{
classes = (
{
automatic = 1;
code = "A Aacute Abreve Acircumflex Adieresis Agrave Amacron Aogonek Aring Atilde AE B C Cacute Ccaron Ccedilla Cdotaccent D Eth Dcaron Dcroat E Eacute Ecaron Ecircumflex Edieresis Edotaccent Egrave Emacron Eogonek F G Gbreve Gcommaaccent Gdotaccent H Hbar I IJ Iacute Icircumflex Idieresis Idotaccent Igrave Imacron Iogonek J K Kcommaaccent L Lacute Lcaron Lcommaaccent Ldot Lslash M N Nacute Ncaron Ncommaaccent Eng Ntilde O Oacute Ocircumflex Odieresis Ograve Ohungarumlaut Omacron Oslash Otilde OE P Thorn Q R Racute Rcaron Rcommaaccent S Sacute Scaron Scedilla Scommaaccent T Tbar Tcaron Tcedilla Tcommaaccent U Uacute Ucircumflex Udieresis Ugrave Uhungarumlaut Umacron Uogonek Uring V W Wacute Wcircumflex Wdieresis Wgrave X Y Yacute Ycircumflex Ydieresis Ygrave Z Zacute Zcaron Zdotaccent A.ss01 E.ss01 M.ss01 N.ss01 Q.ss01 R.ss01 U.ss01 W.ss01";
name = Uppercase;
}
);
copyright = "Copyright \U00A9 2013 by Andrew Paglinawan. All rights reserved.";
customParameters = (
{
name = description;
value = "Copyright \U00A9 2013 by Andrew Paglinawan. All rights reserved.";
},
{
name = vendorID;
value = AP;
},
{
name = licenseURL;
value = "http://scripts.sil.org/OFL_web";
}
);
date = "2013-10-21 08:17:31 +0000";
designer = "Andrew Paglinawan";
designerURL = www.andrewpaglinawan.com;
familyName = "Quicksand Pro";
featurePrefixes = (
{
automatic = 1;
code = "languagesystem DFLT dflt;\012languagesystem grek dflt;\012languagesystem latn dflt;\012languagesystem latn CAT;\012languagesystem latn ROM;\012languagesystem latn MOL;\012languagesystem latn TRK;\012";
name = Languagesystems;
}
);
features = (
{
automatic = 1;
code = "feature locl;\012feature sups;\012feature frac;\012feature ordn;\012feature case;\012feature salt;\012feature ss01;\012";
name = aalt;
},
{
automatic = 1;

glyphs = (
{
glyphname = A;
lastChange = "2013-12-18 08:30:52 +0400";
layers = (
{
anchors = (
{
name = ogonek;
position = "{541, 10}";
},
{
name = top;
position = "{301, 700}";
}
);
layerId = "9764FC2E-EF50-4B10-BB5F-6BAA27A55E88";
name = Regular;
paths = (
{
closed = 1;
nodes = (
"334 679 LINE SMOOTH",
"328 694 OFFCURVE",
"315 702 OFFCURVE",
"302 702 CURVE",
"286 704 OFFCURVE",
"273 695 OFFCURVE",
"267 679 CURVE SMOOTH",
"13 45 LINE SMOOTH",
"5 26 OFFCURVE",
"14 7 OFFCURVE",
"32 0 CURVE SMOOTH",
"52 -7 OFFCURVE",
"71 1 OFFCURVE",
"78 21 CURVE SMOOTH",
"128 152 LINE SMOOTH",
"129 155 OFFCURVE",
"131 156 OFFCURVE",
"134 156 CURVE SMOOTH",
"465 156 LINE SMOOTH",
"468 156 OFFCURVE",
"470 155 OFFCURVE",
"471 152 CURVE SMOOTH",
"521 21 LINE SMOOTH",
"529 2 OFFCURVE",
"548 -7 OFFCURVE",
"566 0 CURVE SMOOTH",
"586 7 OFFCURVE",
"595 27 OFFCURVE",
"587 46 CURVE SMOOTH"
);
},
{
closed = 1;
nodes = (
"163 226 LINE SMOOTH",
"159 226 OFFCURVE",
"157 228 OFFCURVE",
"159 232 CURVE SMOOTH",
"296 563 LINE SMOOTH",
"298 567 OFFCURVE",
"301 567 OFFCURVE",
"303 563 CURVE SMOOTH",
"440 232 LINE SMOOTH",
"442 228 OFFCURVE",
"440 226 OFFCURVE",
"436 226 CURVE SMOOTH"
);
}
);
width = 599.907;
}
);
leftKerningGroup = A;
rightKerningGroup = dollar;
unicode = 0041;
},
{
glyphname = AE;
lastChange = "2013-12-18 08:30:52 +0400";
layers = (
{
anchors = (
{
name = bottom;
position = "{655, 0}";
},
{
name = ogonek;
position = "{881, 10}";
},
{
name = top;
position = "{655, 700}";
}
);
layerId = "9764FC2E-EF50-4B10-BB5F-6BAA27A55E88";
name = Regular;
paths = (
{
closed = 1;
nodes = (
"537 70 LINE SMOOTH",
"534 70 OFFCURVE",
"532 72 OFFCURVE",
"532 75 CURVE SMOOTH",
"532 270 LINE SMOOTH",
"532 273 OFFCURVE",
"534 275 OFFCURVE",
"537 275 CURVE SMOOTH",
"809 275 LINE SMOOTH",
"830 275 OFFCURVE",
"845 290 OFFCURVE",
"845 310 CURVE SMOOTH",
"845 330 OFFCURVE",
"830 345 OFFCURVE",
"809 345 CURVE SMOOTH",
"537 345 LINE SMOOTH",
"534 345 OFFCURVE",
"532 347 OFFCURVE",
"532 350 CURVE SMOOTH",
"532 625 LINE SMOOTH",
"532 628 OFFCURVE",
"534 630 OFFCURVE",
"537 630 CURVE SMOOTH",
"852 630 LINE SMOOTH",
"873 630 OFFCURVE",
"888 645 OFFCURVE",
"888 665 CURVE SMOOTH",
"888 685 OFFCURVE",
"873 700 OFFCURVE",
"852 700 CURVE SMOOTH",
"497 700 LINE",
"494 700 LINE SMOOTH",
"489 700 OFFCURVE",
"483 698 OFFCURVE",
"478 695 CURVE",
"473 691 LINE",
"471 689 OFFCURVE",
"469 687 OFFCURVE",
"467 684 CURVE SMOOTH",
"27 56 LINE SMOOTH",
"14 38 OFFCURVE",
"18 18 OFFCURVE",
"35 6 CURVE SMOOTH",
"52 -6 OFFCURVE",
"72 -2 OFFCURVE",
"84 15 CURVE SMOOTH",
"185 160 LINE SMOOTH",
"187 162 OFFCURVE",
"189 163 OFFCURVE",
"191 163 CURVE SMOOTH",
"457 163 LINE SMOOTH",
"460 163 OFFCURVE",
"462 161 OFFCURVE",
"462 158 CURVE SMOOTH",
"462 36 LINE SMOOTH",
"462 15 OFFCURVE",
"477 0 OFFCURVE",
"497 0 CURVE SMOOTH",
"852 0 LINE SMOOTH",
"873 0 OFFCURVE",
"888 15 OFFCURVE",
"888 35 CURVE SMOOTH",
"888 55 OFFCURVE",
"873 70 OFFCURVE",
"852 70 CURVE SMOOTH"
);
},
{
closed = 1;
nodes = (
"244 233 LINE SMOOTH",
"240 233 OFFCURVE",
"238 236 OFFCURVE",
"241 239 CURVE SMOOTH",
"462 555 LINE",
"462 238 LINE SMOOTH",
"462 235 OFFCURVE",
"460 233 OFFCURVE",
"457 233 CURVE SMOOTH"
);
}
);
width = 938;
}
);
leftMetricsKey = A;
rightMetricsKey = E;
unicode = 00C6;
},
{
glyphname = B;
lastChange = "2013-12-18 08:30:52 +0400";
layers = (
{
layerId = "9764FC2E-EF50-4B10-BB5F-6BAA27A55E88";
name = Regular;
paths = (
{
closed = 1;
nodes = (
"126 700 LINE SMOOTH",
"104.994 700 OFFCURVE",
"90 685.006 OFFCURVE",
"90 664 CURVE SMOOTH",
"90 36 LINE SMOOTH",
"90 14.994 OFFCURVE",
"104.994 0 OFFCURVE",
"126 0 CURVE SMOOTH",
"327 0 LINE SMOOTH",
"450 0 OFFCURVE",
"551 78 OFFCURVE",
"551 201 CURVE SMOOTH",
"551 289 OFFCURVE",
"500 355 OFFCURVE",
"425 385 CURVE SMOOTH",
"422 387 OFFCURVE",
"421 389 OFFCURVE",
"424 392 CURVE SMOOTH",
"456 424 OFFCURVE",
"476 468 OFFCURVE",
"476 519 CURVE SMOOTH",
"476 627 OFFCURVE",
"387 700 OFFCURVE",
"280 700 CURVE SMOOTH"
);
},
{
closed = 1;
nodes = (
"280 630 LINE SMOOTH",
"350 630 OFFCURVE",
"406 590 OFFCURVE",
"406 519 CURVE SMOOTH",
"406 449 OFFCURVE",
"350 404 OFFCURVE",
"280 404 CURVE SMOOTH",
"165 404 LINE SMOOTH",
"162 404 OFFCURVE",
"160 406 OFFCURVE",
"160 409 CURVE SMOOTH",
"160 625 LINE SMOOTH",
"160 628 OFFCURVE",
"162 630 OFFCURVE",
"165 630 CURVE SMOOTH"
);
},
{
closed = 1;
nodes = (
"165 70 LINE SMOOTH",
"162 70 OFFCURVE",
"160 72 OFFCURVE",
"160 74.9999 CURVE SMOOTH",
"160 329 LINE SMOOTH",
"160 332 OFFCURVE",
"162 334 OFFCURVE",
"165 334 CURVE SMOOTH",
"327 334 LINE SMOOTH",
"413 334 OFFCURVE",
"481 286 OFFCURVE",
"481 201 CURVE SMOOTH",
"481 115 OFFCURVE",
"413 69.9999 OFFCURVE",
"327 69.9999 CURVE SMOOTH"
);
}
);
width = 599;
}
);
leftKerningGroup = B;
rightKerningGroup = B;
unicode = 0042;
},
{
glyphname = C;
lastChange = "2013-12-18 08:30:52 +0400";
layers = (
{
anchors = (
{
name = bottom;
position = "{329, 0}";
},
{
name = top;
position = "{329, 700}";
}
);
layerId = "9764FC2E-EF50-4B10-BB5F-6BAA27A55E88";
name = Regular;
paths = (
{
closed = 1;
nodes = (
"562 689 OFFCURVE",
"493 710 OFFCURVE",
"419 710 CURVE SMOOTH",
"215 710 OFFCURVE",
"50 549 OFFCURVE",
"50 350 CURVE SMOOTH",
"50 151 OFFCURVE",
"215 -10 OFFCURVE",
"419 -10 CURVE SMOOTH",
"493 -10 OFFCURVE",
"561 11 OFFCURVE",
"619 47 CURVE SMOOTH",
"638 59 OFFCURVE",
"641 82 OFFCURVE",
"627 99 CURVE SMOOTH",
"615 114 OFFCURVE",
"597 116 OFFCURVE",
"580 105 CURVE SMOOTH",
"533 76 OFFCURVE",
"480 60 OFFCURVE",
"419 60 CURVE SMOOTH",
"253 60 OFFCURVE",
"120 190 OFFCURVE",
"120 350 CURVE SMOOTH",
"120 509 OFFCURVE",
"253 640 OFFCURVE",
"419 640 CURVE SMOOTH",
"480 640 OFFCURVE",
"533 624 OFFCURVE",
"580 595 CURVE SMOOTH",
"597 584 OFFCURVE",
"615 586 OFFCURVE",
"627 601 CURVE SMOOTH",
"640 618 OFFCURVE",
"638 641 OFFCURVE",
"619 653 CURVE SMOOTH"
);
}
);
width = 656;
}
);
leftKerningGroup = C;
rightKerningGroup = C;
unicode = 0043;
},
{
glyphname = D;
lastChange = "2013-12-18 08:30:52 +0400";
layers = (
{
anchors = (
{
name = center;
position = "{336, 350}";
},
{
name = top;
position = "{336, 700}";
}
);
layerId = "9764FC2E-EF50-4B10-BB5F-6BAA27A55E88";
name = Regular;
paths = (
{
closed = 1;
nodes = (
"126 700 LINE SMOOTH",
"105 700 OFFCURVE",
"90 685 OFFCURVE",
"90 664 CURVE SMOOTH",
"90 36 LINE SMOOTH",
"90 15 OFFCURVE",
"105 0 OFFCURVE",
"126 0 CURVE SMOOTH",
"300 0 LINE SMOOTH",
"513 0 OFFCURVE",
"620 127 OFFCURVE",
"620 350 CURVE SMOOTH",
"620 573 OFFCURVE",
"513 700 OFFCURVE",
"300 700 CURVE SMOOTH"
);
},
{
closed = 1;
nodes = (
"166 70 LINE SMOOTH",
"163 70 OFFCURVE",
"161 72 OFFCURVE",
"161 75 CURVE SMOOTH",
"161 625 LINE SMOOTH",
"161 628 OFFCURVE",
"163 630 OFFCURVE",
"166 630 CURVE SMOOTH",
"300 630 LINE SMOOTH",
"474 630 OFFCURVE",
"550 535 OFFCURVE",
"550 350 CURVE SMOOTH",
"550 165 OFFCURVE",
"474 70 OFFCURVE",
"300 70 CURVE SMOOTH"
);
}
);
width = 670;
}
);
leftKerningGroup = B;
rightKerningGroup = D;
unicode = 0044;
},
{
glyphname = Eth;
lastChange = "2013-12-18 08:30:52 +0400";
layers = (
{
anchors = (
{
name = center;
position = "{347, 350}";
},
{
name = top;
position = "{347, 700}";
}
);
layerId = "9764FC2E-EF50-4B10-BB5F-6BAA27A55E88";
name = Regular;
paths = (
{
closed = 1;
nodes = (
"137 700 LINE SMOOTH",
"116 700 OFFCURVE",
"101 685 OFFCURVE",
"101 664 CURVE SMOOTH",
"101 396 LINE SMOOTH",
"101 393 OFFCURVE",
"99 391 OFFCURVE",
"96 391 CURVE SMOOTH",
"65 391 LINE SMOOTH",
"41 391 OFFCURVE",
"24 374 OFFCURVE",
"24 351 CURVE SMOOTH",
"24 327 OFFCURVE",
"41 310 OFFCURVE",
"65 310 CURVE SMOOTH",
"96 310 LINE SMOOTH",
"99 310 OFFCURVE",
"101 308 OFFCURVE",
"101 305 CURVE SMOOTH",
"101 36 LINE SMOOTH",
"101 15 OFFCURVE",
"116 0 OFFCURVE",
"137 0 CURVE SMOOTH",
"311 0 LINE SMOOTH",
"524 0 OFFCURVE",
"631 127 OFFCURVE",
"631 350 CURVE SMOOTH",
"631 573 OFFCURVE",
"524 700 OFFCURVE",
"311 700 CURVE SMOOTH"
);
},
{
closed = 1;
nodes = (
"177 70 LINE SMOOTH",
"174 70 OFFCURVE",
"172 72 OFFCURVE",
"172 75 CURVE SMOOTH",
"172 305 LINE SMOOTH",
"172 308 OFFCURVE",
"174 310 OFFCURVE",
"177 310 CURVE SMOOTH",
"261 310 LINE SMOOTH",
"285 310 OFFCURVE",
"302 327 OFFCURVE",
"302 351 CURVE SMOOTH",
"302 374 OFFCURVE",
"285 391 OFFCURVE",
"261 391 CURVE SMOOTH",
"177 391 LINE SMOOTH",
"174 391 OFFCURVE",
"172 393 OFFCURVE",
"172 396 CURVE SMOOTH",
"172 625 LINE SMOOTH",
"172 628 OFFCURVE",
"174 630 OFFCURVE",
"177 630 CURVE SMOOTH",
"311 630 LINE SMOOTH",
"485 630 OFFCURVE",
"561 535 OFFCURVE",
"561 350 CURVE SMOOTH",
"561 165 OFFCURVE",
"485 70 OFFCURVE",
"311 70 CURVE SMOOTH"
);
}
);
width = 669;
}
);
unicode = 00D0;
},
{
glyphname = E;
lastChange = "2013-12-18 08:30:52 +0400";
layers = (
{
anchors = (
{
name = bottom;
position = "{283, 0}";
},
{
name = ogonek;
position = "{509, 10}";
},
{
name = top;
position = "{283, 700}";
}
);
layerId = "9764FC2E-EF50-4B10-BB5F-6BAA27A55E88";
name = Regular;
paths = (
{
closed = 1;
nodes = (
"165 70 LINE SMOOTH",
"162 70 OFFCURVE",
"160 72 OFFCURVE",
"160 75 CURVE SMOOTH",
"160 270 LINE SMOOTH",
"160 273 OFFCURVE",
"162 275 OFFCURVE",
"165 275 CURVE SMOOTH",
"437 275 LINE SMOOTH",
"458 275 OFFCURVE",
"473 290 OFFCURVE",
"473 310 CURVE SMOOTH",
"473 330 OFFCURVE",
"458 345 OFFCURVE",
"437 345 CURVE SMOOTH",
"165 345 LINE SMOOTH",
"162 345 OFFCURVE",
"160 347 OFFCURVE",
"160 350 CURVE SMOOTH",
"160 625 LINE SMOOTH",
"160 628 OFFCURVE",
"162 630 OFFCURVE",
"165 630 CURVE SMOOTH",
"480 630 LINE SMOOTH",
"501 630 OFFCURVE",
"516 645 OFFCURVE",
"516 665 CURVE SMOOTH",
"516 685 OFFCURVE",
"501 700 OFFCURVE",
"480 700 CURVE SMOOTH",
"125 700 LINE SMOOTH",
"105 700 OFFCURVE",
"90 685 OFFCURVE",
"90 664 CURVE SMOOTH",
"90 36 LINE SMOOTH",
"90 15 OFFCURVE",
"105 0 OFFCURVE",
"125 0 CURVE SMOOTH",
"480 0 LINE SMOOTH",
"501 0 OFFCURVE",
"516 15 OFFCURVE",
"516 35 CURVE SMOOTH",
"516 55 OFFCURVE",
"501 70 OFFCURVE",
"480 70 CURVE SMOOTH"
);
}
);
width = 566;
}
);
leftKerningGroup = B;
rightKerningGroup = E;
unicode = 0045;
},
{
glyphname = F;
lastChange = "2013-12-18 08:30:52 +0400";
layers = (
{
layerId = "9764FC2E-EF50-4B10-BB5F-6BAA27A55E88";
name = Regular;
paths = (
{
closed = 1;
nodes = (
"125 700 LINE SMOOTH",
"105 700 OFFCURVE",
"90 685 OFFCURVE",
"90 664 CURVE SMOOTH",
"90 36 LINE SMOOTH",
"90 15 OFFCURVE",
"105 0 OFFCURVE",
"125 0 CURVE SMOOTH",
"145 0 OFFCURVE",
"160 15 OFFCURVE",
"160 36 CURVE SMOOTH",
"160 270 LINE SMOOTH",
"160 273 OFFCURVE",
"162 275 OFFCURVE",
"165 275 CURVE SMOOTH",
"437 275 LINE SMOOTH",
"458 275 OFFCURVE",
"473 290 OFFCURVE",
"473 310 CURVE SMOOTH",
"473 330 OFFCURVE",
"458 345 OFFCURVE",
"437 345 CURVE SMOOTH",
"165 345 LINE SMOOTH",
"162 345 OFFCURVE",
"160 347 OFFCURVE",
"160 350 CURVE SMOOTH",
"160 625 LINE SMOOTH",
"160 628 OFFCURVE",
"162 630 OFFCURVE",
"165 630 CURVE SMOOTH",
"480 630 LINE SMOOTH",
"501 630 OFFCURVE",
"516 645 OFFCURVE",
"516 665 CURVE SMOOTH",
"516 685 OFFCURVE",
"501 700 OFFCURVE",
"480 700 CURVE SMOOTH"
);
}
);
width = 566;
}
);
leftKerningGroup = B;
rightKerningGroup = F;
unicode = 0046;
},
{
glyphname = G;
lastChange = "2013-12-18 08:30:52 +0400";
layers = (
{
anchors = (
{
name = bottom;
position = "{347, 0}";
},
{
name = top;
position = "{347, 700}";
}
);
layerId = "9764FC2E-EF50-4B10-BB5F-6BAA27A55E88";
name = Regular;
paths = (
{
closed = 1;
nodes = (
"456 342 LINE SMOOTH",
"435 342 OFFCURVE",
"420 327 OFFCURVE",
"420 307 CURVE SMOOTH",
"420 287 OFFCURVE",
"435 272 OFFCURVE",
"456 272 CURVE SMOOTH",
"576 272 LINE SMOOTH",
"579 272 OFFCURVE",
"581 270 OFFCURVE",
"581 267 CURVE SMOOTH",
"581 109 LINE SMOOTH",
"581 106 OFFCURVE",
"580 104 OFFCURVE",
"578 103 CURVE SMOOTH",
"530 72 OFFCURVE",
"483 60 OFFCURVE",
"419 60 CURVE SMOOTH",
"253 60 OFFCURVE",
"120 191 OFFCURVE",
"120 350 CURVE SMOOTH",
"120 510 OFFCURVE",
"253 640 OFFCURVE",
"419 640 CURVE SMOOTH",
"480 640 OFFCURVE",
"532 625 OFFCURVE",
"579 596 CURVE SMOOTH",
"596 585 OFFCURVE",
"616 587 OFFCURVE",
"628 603 CURVE SMOOTH",
"628 604 LINE SMOOTH",
"641 620 OFFCURVE",
"637 642 OFFCURVE",
"619 654 CURVE SMOOTH",
"562 689 OFFCURVE",
"493 710 OFFCURVE",
"419 710 CURVE SMOOTH",
"215 710 OFFCURVE",
"50 549 OFFCURVE",
"50 350 CURVE SMOOTH",
"50 151 OFFCURVE",
"215 -10 OFFCURVE",
"419 -10 CURVE SMOOTH",
"500 -10 OFFCURVE",
"573 10 OFFCURVE",
"640 63 CURVE SMOOTH",
"647 69 OFFCURVE",
"651 77 OFFCURVE",
"651 86 CURVE SMOOTH",
"651 306 LINE SMOOTH",
"651 327 OFFCURVE",
"636 342 OFFCURVE",
"615 342 CURVE SMOOTH"
);
}
);
width = 691;
}
);
leftKerningGroup = C;
rightKerningGroup = G;
unicode = 0047;
},
{
glyphname = H;
lastChange = "2013-12-18 08:30:52 +0400";
layers = (
{
anchors = (
{
name = center;
position = "{350, 350}";
},
{
name = top;
position = "{350, 700}";
}
);
layerId = "9764FC2E-EF50-4B10-BB5F-6BAA27A55E88";
name = Regular;
paths = (
{
closed = 1;
nodes = (
"554 700 OFFCURVE",
"539 685.006 OFFCURVE",
"539 664 CURVE SMOOTH",
"539 351 LINE SMOOTH",
"539 348 OFFCURVE",
"537 346 OFFCURVE",
"534 346 CURVE SMOOTH",
"165 346 LINE SMOOTH",
"162 346 OFFCURVE",
"160 348 OFFCURVE",
"160 351 CURVE SMOOTH",
"160 664 LINE SMOOTH",
"160 685.006 OFFCURVE",
"146 700 OFFCURVE",
"126 700 CURVE SMOOTH",
"104.994 700 OFFCURVE",
"90 685.006 OFFCURVE",
"90 664 CURVE SMOOTH",
"90 36 LINE SMOOTH",
"90 14.994 OFFCURVE",
"104 0 OFFCURVE",
"124 0 CURVE SMOOTH",
"145.006 0 OFFCURVE",
"160 14.994 OFFCURVE",
"160 36 CURVE SMOOTH",
"160 271 LINE SMOOTH",
"160 274 OFFCURVE",
"162 276 OFFCURVE",
"165 276 CURVE SMOOTH",
"534 276 LINE SMOOTH",
"537 276 OFFCURVE",
"539 274 OFFCURVE",
"539 271 CURVE SMOOTH",
"539 36 LINE SMOOTH",
"539 14.994 OFFCURVE",
"553 0 OFFCURVE",
"573 0 CURVE SMOOTH",
"594.006 0 OFFCURVE",
"609 14.994 OFFCURVE",
"609 36 CURVE SMOOTH",
"609 664 LINE SMOOTH",
"609 685.006 OFFCURVE",
"594 700 OFFCURVE",
"574 700 CURVE SMOOTH"
);
}
);
width = 699;
}
);
leftKerningGroup = B;
rightKerningGroup = H;
unicode = 0048;
},
{
glyphname = Hbar;
lastChange = "2013-12-18 08:30:52 +0400";
layers = (
{
anchors = (
{
name = center;
position = "{393, 350}";
},
{
name = top;
position = "{393, 700}";
}
);
layerId = "9764FC2E-EF50-4B10-BB5F-6BAA27A55E88";
name = Regular;
paths = (
{
closed = 1;
nodes = (
"657 544 LINE SMOOTH",
"654 544 OFFCURVE",
"652 546 OFFCURVE",
"652 549 CURVE SMOOTH",
"652 664 LINE SMOOTH",
"652 685 OFFCURVE",
"637 700 OFFCURVE",
"617 700 CURVE SMOOTH",
"597 700 OFFCURVE",
"582 685 OFFCURVE",
"582 664 CURVE SMOOTH",
"582 549 LINE SMOOTH",
"582 546 OFFCURVE",
"580 544 OFFCURVE",
"577 544 CURVE SMOOTH",
"208 544 LINE SMOOTH",
"205 544 OFFCURVE",
"203 546 OFFCURVE",
"203 549 CURVE SMOOTH",
"203 664 LINE SMOOTH",
"203 685 OFFCURVE",
"189 700 OFFCURVE",
"169 700 CURVE SMOOTH",
"148 700 OFFCURVE",
"133 685 OFFCURVE",
"133 664 CURVE SMOOTH",
"133 549 LINE SMOOTH",
"133 546 OFFCURVE",
"131 544 OFFCURVE",
"128 544 CURVE SMOOTH",
"86 544 LINE SMOOTH",
"65 544 OFFCURVE",
"50 529 OFFCURVE",
"50 509 CURVE SMOOTH",
"50 489 OFFCURVE",
"65 474 OFFCURVE",
"86 474 CURVE SMOOTH",
"128 474 LINE SMOOTH",
"131 474 OFFCURVE",
"133 472 OFFCURVE",
"133 469 CURVE SMOOTH",
"133 36 LINE SMOOTH",
"133 15 OFFCURVE",
"147 0 OFFCURVE",
"167 0 CURVE SMOOTH",
"188 0 OFFCURVE",
"203 15 OFFCURVE",
"203 36 CURVE SMOOTH",
"203 271 LINE SMOOTH",
"203 274 OFFCURVE",
"205 276 OFFCURVE",
"208 276 CURVE SMOOTH",
"577 276 LINE SMOOTH",
"580 276 OFFCURVE",
"582 274 OFFCURVE",
"582 271 CURVE SMOOTH",
"582 36 LINE SMOOTH",
"582 15 OFFCURVE",
"596 0 OFFCURVE",
"616 0 CURVE SMOOTH",
"637 0 OFFCURVE",
"652 15 OFFCURVE",
"652 36 CURVE SMOOTH",
"652 469 LINE SMOOTH",
"652 472 OFFCURVE",
"654 474 OFFCURVE",
"657 474 CURVE SMOOTH",
"699 474 LINE SMOOTH",
"720 474 OFFCURVE",
"735 489 OFFCURVE",
"735 509 CURVE SMOOTH",
"735 529 OFFCURVE",
"720 544 OFFCURVE",
"699 544 CURVE SMOOTH"
);
},
{
closed = 1;
nodes = (
"582 351 LINE SMOOTH",
"582 348 OFFCURVE",
"580 346 OFFCURVE",
"577 346 CURVE SMOOTH",
"208 346 LINE SMOOTH",
"205 346 OFFCURVE",
"203 348 OFFCURVE",
"203 351 CURVE SMOOTH",
"203 469 LINE SMOOTH",
"203 472 OFFCURVE",
"205 474 OFFCURVE",
"208 474 CURVE SMOOTH",
"577 474 LINE SMOOTH",
"580 474 OFFCURVE",
"582 472 OFFCURVE",
"582 469 CURVE SMOOTH"
);
}
);
width = 785;
}
);
unicode = 0126;
},
{
glyphname = I;
lastChange = "2013-12-18 08:30:52 +0400";
layers = (
{
anchors = (
{
name = ogonek;
position = "{228, 10}";
},
{
name = top;
position = "{124, 700}";
}
);
layerId = "9764FC2E-EF50-4B10-BB5F-6BAA27A55E88";
name = Regular;
paths = (
{
closed = 1;
nodes = (
"160 664 LINE SMOOTH",
"160 685 OFFCURVE",
"145 700 OFFCURVE",
"125 700 CURVE SMOOTH",
"105 700 OFFCURVE",
"90 685 OFFCURVE",
"90 664 CURVE SMOOTH",
"90 36 LINE SMOOTH",
"90 15 OFFCURVE",
"105 0 OFFCURVE",
"125 0 CURVE SMOOTH",
"145 0 OFFCURVE",
"160 15 OFFCURVE",
"160 36 CURVE SMOOTH"
);
}
);
width = 250;
}
);
leftKerningGroup = B;
rightKerningGroup = H;
unicode = 0049;
},
{
glyphname = J;
lastChange = "2013-12-18 08:30:52 +0400";
layers = (
{
anchors = (
{
name = top;
position = "{293, 700}";
}
);
layerId = "9764FC2E-EF50-4B10-BB5F-6BAA27A55E88";
name = Regular;
paths = (
{
closed = 1;
nodes = (
"422 699 OFFCURVE",
"407 684 OFFCURVE",
"407 663 CURVE SMOOTH",
"408 221 LINE SMOOTH",
"408 132 OFFCURVE",
"335 59 OFFCURVE",
"245 59 CURVE SMOOTH",
"184 59 OFFCURVE",
"131 93 OFFCURVE",
"103 143 CURVE SMOOTH",
"94 160 OFFCURVE",
"78 170 OFFCURVE",
"57 161 CURVE SMOOTH",
"38 153 OFFCURVE",
"29 134 OFFCURVE",
"39 114 CURVE SMOOTH",
"78 40 OFFCURVE",
"156 -11 OFFCURVE",
"245 -11 CURVE SMOOTH",
"374 -11 OFFCURVE",
"478 93 OFFCURVE",
"478 221 CURVE SMOOTH",
"477 664 LINE SMOOTH",
"477 684 OFFCURVE",
"463 699 OFFCURVE",
"442 699 CURVE SMOOTH"
);
}
);
width = 568;
}
);
leftKerningGroup = J;
rightKerningGroup = J;
unicode = 004A;
},
{
glyphname = K;
lastChange = "2013-12-18 08:30:52 +0400";
layers = (
{
anchors = (
{
name = bottom;
position = "{345, 0}";
},
{
name = top;
position = "{345, 700}";
}
);
layerId = "9764FC2E-EF50-4B10-BB5F-6BAA27A55E88";
name = Regular;
paths = (
{
closed = 1;
nodes = (
"367 388 LINE SMOOTH",
"365 391 OFFCURVE",
"365 393 OFFCURVE",
"367 395 CURVE SMOOTH",
"609 641 LINE SMOOTH",
"624 656 OFFCURVE",
"624 677 OFFCURVE",
"609 691 CURVE SMOOTH",
"594 705 OFFCURVE",
"573 705 OFFCURVE",
"559 690 CURVE SMOOTH",
"166 289 LINE SMOOTH",
"163 286 OFFCURVE",
"160 287 OFFCURVE",
"160 292 CURVE SMOOTH",
"160 664 LINE SMOOTH",
"160 685 OFFCURVE",
"145 700 OFFCURVE",
"125 700 CURVE SMOOTH",
"105 700 OFFCURVE",
"90 685 OFFCURVE",
"90 664 CURVE SMOOTH",
"90 36 LINE SMOOTH",
"90 15 OFFCURVE",
"105 0 OFFCURVE",
"125 0 CURVE SMOOTH",
"145 0 OFFCURVE",
"160 15 OFFCURVE",
"160 36 CURVE SMOOTH",
"160 181 LINE SMOOTH",
"160 183 OFFCURVE",
"161 185 OFFCURVE",
"163 187 CURVE SMOOTH",
"311 338 LINE SMOOTH",
"314 340 OFFCURVE",
"316 340 OFFCURVE",
"318 338 CURVE SMOOTH",
"582 13 LINE SMOOTH",
"595 -4 OFFCURVE",
"616 -6 OFFCURVE",
"632 7 CURVE SMOOTH",
"648 20 OFFCURVE",
"650 41 OFFCURVE",
"637 57 CURVE SMOOTH"
);
}
);
width = 680.533;
}
);
leftKerningGroup = B;
rightKerningGroup = K;
unicode = 004B;
},
{
glyphname = L;
lastChange = "2013-12-18 08:30:52 +0400";
layers = (
{
anchors = (
{
name = bottom;
position = "{261, 0}";
},
{
name = top;
position = "{261, 700}";
}
);
layerId = "9764FC2E-EF50-4B10-BB5F-6BAA27A55E88";
name = Regular;
paths = (
{
closed = 1;
nodes = (
"165 70 LINE SMOOTH",
"162 70 OFFCURVE",
"160 72 OFFCURVE",
"160 75 CURVE SMOOTH",
"160 664 LINE SMOOTH",
"160 685 OFFCURVE",
"145 700 OFFCURVE",
"125 700 CURVE SMOOTH",
"105 700 OFFCURVE",
"90 685 OFFCURVE",
"90 664 CURVE SMOOTH",
"90 36 LINE SMOOTH",
"90 15 OFFCURVE",
"105 0 OFFCURVE",
"125 0 CURVE SMOOTH",
"127 0 LINE",
"475 0 LINE SMOOTH",
"496 0 OFFCURVE",
"511 15 OFFCURVE",
"511 35 CURVE SMOOTH",
"511 55 OFFCURVE",
"496 70 OFFCURVE",
"475 70 CURVE SMOOTH"
);
}
);
width = 526;
}
);
leftKerningGroup = B;
rightKerningGroup = L;
unicode = 004C;
},
{
glyphname = Lslash;
lastChange = "2013-12-18 08:30:52 +0400";
layers = (
{
anchors = (
{
name = bottom;
position = "{344, 0}";
},
{
name = top;
position = "{344, 700}";
}
);
layerId = "9764FC2E-EF50-4B10-BB5F-6BAA27A55E88";
name = Regular;
paths = (
{
closed = 1;
nodes = (
"248 70 LINE SMOOTH",
"245 70 OFFCURVE",
"243 72 OFFCURVE",
"243 75 CURVE SMOOTH",
"243 347 LINE SMOOTH",
"243 350 OFFCURVE",
"244 352 OFFCURVE",
"247 353 CURVE SMOOTH",
"411 426 LINE SMOOTH",
"430 434 OFFCURVE",
"438 453 OFFCURVE",
"430 472 CURVE SMOOTH",
"422 491 OFFCURVE",
"402 498 OFFCURVE",
"383 489 CURVE SMOOTH",
"249 430 LINE SMOOTH",
"245 428 OFFCURVE",
"243 430 OFFCURVE",
"243 433 CURVE SMOOTH",
"243 664 LINE SMOOTH",
"243 685 OFFCURVE",
"228 700 OFFCURVE",
"208 700 CURVE SMOOTH",
"188 700 OFFCURVE",
"173 685 OFFCURVE",
"173 664 CURVE SMOOTH",
"173 400 LINE SMOOTH",
"173 397 OFFCURVE",
"172 396 OFFCURVE",
"169 394 CURVE SMOOTH",
"80 355 LINE SMOOTH",
"62 347 OFFCURVE",
"54 328 OFFCURVE",
"62 309 CURVE SMOOTH",
"70 290 OFFCURVE",
"90 283 OFFCURVE",
"109 292 CURVE SMOOTH",
"167 318 LINE SMOOTH",
"171 319 OFFCURVE",
"173 318 OFFCURVE",
"173 314 CURVE SMOOTH",
"173 36 LINE SMOOTH",
"173 15 OFFCURVE",
"188 0 OFFCURVE",
"208 0 CURVE SMOOTH",
"558 0 LINE SMOOTH",
"579 0 OFFCURVE",
"594 15 OFFCURVE",
"594 35 CURVE SMOOTH",
"594 55 OFFCURVE",
"579 70 OFFCURVE",
"558 70 CURVE SMOOTH"
);
}
);
width = 610.101;
}
);
rightMetricsKey = L;
unicode = 0141;
},
{
glyphname = M;
lastChange = "2013-12-18 08:30:52 +0400";
layers = (
{
layerId = "9764FC2E-EF50-4B10-BB5F-6BAA27A55E88";
name = Regular;
paths = (
{
closed = 1;
nodes = (
"431 315 LINE SMOOTH",
"429 312 OFFCURVE",
"426 312 OFFCURVE",
"424 315 CURVE SMOOTH",
"156 684 LINE SMOOTH",
"147 696 OFFCURVE",
"135 701 OFFCURVE",
"123 700 CURVE",
"104 699 OFFCURVE",
"90 684 OFFCURVE",
"90 664 CURVE SMOOTH",
"90 36 LINE SMOOTH",
"90 15 OFFCURVE",
"104 0 OFFCURVE",
"124 0 CURVE SMOOTH",
"145 0 OFFCURVE",
"160 15 OFFCURVE",
"160 36 CURVE SMOOTH",
"160 551 LINE SMOOTH",
"160 555 OFFCURVE",
"163 556 OFFCURVE",
"166 553 CURVE SMOOTH",
"398 237 LINE SMOOTH",
"406 226 OFFCURVE",
"417 221 OFFCURVE",
"428 221 CURVE",
"439 221 OFFCURVE",
"450 226 OFFCURVE",
"458 237 CURVE SMOOTH",
"680 552 LINE SMOOTH",
"683 556 OFFCURVE",
"686 555 OFFCURVE",
"686 550 CURVE SMOOTH",
"686 36 LINE SMOOTH",
"686 15 OFFCURVE",
"701 0 OFFCURVE",
"722 0 CURVE SMOOTH",
"742 0 OFFCURVE",
"756 15 OFFCURVE",
"756 36 CURVE SMOOTH",
"756 664 LINE SMOOTH",
"756 684 OFFCURVE",
"743 699 OFFCURVE",
"723 700 CURVE SMOOTH",
"711 701 OFFCURVE",
"699 696 OFFCURVE",
"690 684 CURVE SMOOTH"
);
}
);
width = 846;
}
);
leftKerningGroup = B;
rightKerningGroup = H;
unicode = 004D;
},
{
glyphname = N;
lastChange = "2013-12-18 08:30:52 +0400";
layers = (
{
anchors = (
{
name = bottom;
position = "{372, 0}";
},
{
name = top;
position = "{372, 700}";
}
);
layerId = "9764FC2E-EF50-4B10-BB5F-6BAA27A55E88";
name = Regular;
paths = (
{
closed = 1;
nodes = (
"584 146 LINE SMOOTH",
"584 141 OFFCURVE",
"581 140 OFFCURVE",
"578 144 CURVE SMOOTH",
"156 684 LINE SMOOTH",
"154 687 OFFCURVE",
"152 689 OFFCURVE",
"150 691 CURVE",
"144 697 OFFCURVE",
"135 700 OFFCURVE",
"126 700 CURVE SMOOTH",
"105 700 OFFCURVE",
"90 685 OFFCURVE",
"90 664 CURVE SMOOTH",
"90 36 LINE SMOOTH",
"90 15 OFFCURVE",
"104 0 OFFCURVE",
"124 0 CURVE SMOOTH",
"145 0 OFFCURVE",
"160 15 OFFCURVE",
"160 36 CURVE SMOOTH",
"160 554 LINE SMOOTH",
"160 559 OFFCURVE",
"163 560 OFFCURVE",
"166 556 CURVE SMOOTH",
"588 16 LINE SMOOTH",
"590 13 OFFCURVE",
"592 11 OFFCURVE",
"594 9 CURVE",
"600 3 OFFCURVE",
"609 0 OFFCURVE",
"618 0 CURVE SMOOTH",
"639 0 OFFCURVE",
"654 15 OFFCURVE",
"654 36 CURVE SMOOTH",
"654 664 LINE SMOOTH",
"654 685 OFFCURVE",
"640 700 OFFCURVE",
"620 700 CURVE SMOOTH",
"599 700 OFFCURVE",
"584 685 OFFCURVE",
"584 664 CURVE SMOOTH"
);
}
);
width = 744;
}
);
leftKerningGroup = B;
rightKerningGroup = H;
unicode = 004E;
},
{
glyphname = Eng;
lastChange = "2013-12-18 08:30:52 +0400";
layers = (
{
anchors = (
{
name = bottom;
position = "{373, 0}";
},
{
name = top;
position = "{373, 700}";
}
);
layerId = "9764FC2E-EF50-4B10-BB5F-6BAA27A55E88";
name = Regular;
paths = (
{
closed = 1;
nodes = (
"599.994 700 OFFCURVE",
"585 685.006 OFFCURVE",
"585 664 CURVE SMOOTH",
"585 146 LINE SMOOTH",
"585 141 OFFCURVE",
"582 140 OFFCURVE",
"579 144 CURVE SMOOTH",
"157 684 LINE SMOOTH",
"155 686.614 OFFCURVE",
"152.836 688.897 OFFCURVE",
"150.546 690.845 CURVE",
"144.614 696.628 OFFCURVE",
"136.481 700 OFFCURVE",
"127 700 CURVE SMOOTH",
"106 700 OFFCURVE",
"91 685 OFFCURVE",
"91 664 CURVE SMOOTH",
"91 36 LINE SMOOTH",
"91 15 OFFCURVE",
"105 0 OFFCURVE",
"125 0 CURVE SMOOTH",
"146 0 OFFCURVE",
"161 15 OFFCURVE",
"161 36 CURVE SMOOTH",
"161 554 LINE SMOOTH",
"161 559 OFFCURVE",
"164 560 OFFCURVE",
"167 556 CURVE SMOOTH",
"583 24 LINE SMOOTH",
"584 22 OFFCURVE",
"585 20 OFFCURVE",
"585 18 CURVE SMOOTH",
"585 -41 LINE SMOOTH",
"585 -102 OFFCURVE",
"552 -131 OFFCURVE",
"480 -131 CURVE SMOOTH",
"456 -131 OFFCURVE",
"443 -149 OFFCURVE",
"443 -165 CURVE SMOOTH",
"443 -185 OFFCURVE",
"455 -200 OFFCURVE",
"476 -200 CURVE SMOOTH",
"555 -200 OFFCURVE",
"655 -166 OFFCURVE",
"655 -60 CURVE SMOOTH",
"655 664 LINE SMOOTH",
"655 685.006 OFFCURVE",
"641 700 OFFCURVE",
"621 700 CURVE SMOOTH"
);
}
);
width = 688;
}
);
leftMetricsKey = N;
rightMetricsKey = N;
unicode = 014A;
},
{
glyphname = O;
lastChange = "2013-12-18 08:30:52 +0400";
layers = (
{
anchors = (
{
name = top;
position = "{387, 700}";
}
);
layerId = "9764FC2E-EF50-4B10-BB5F-6BAA27A55E88";
name = Regular;
paths = (
{
closed = 1;
nodes = (
"658 189 OFFCURVE",
"536 60 OFFCURVE",
"389 60 CURVE",
"242 60 OFFCURVE",
"120 189 OFFCURVE",
"120 350 CURVE",
"120 511 OFFCURVE",
"242 640 OFFCURVE",
"389 640 CURVE",
"536 640 OFFCURVE",
"658 511 OFFCURVE",
"658 350 CURVE"
);
},
{
closed = 1;
nodes = (
"728 549 OFFCURVE",
"576 710 OFFCURVE",
"389 710 CURVE",
"202 710 OFFCURVE",
"50 549 OFFCURVE",
"50 350 CURVE",
"50 151 OFFCURVE",
"202 -10 OFFCURVE",
"389 -10 CURVE",
"576 -10 OFFCURVE",
"728 151 OFFCURVE",
"728 350 CURVE"
);
}
);
width = 778;
}
);
leftKerningGroup = C;
rightKerningGroup = D;
unicode = 004F;
},
{
glyphname = Oslash;
lastChange = "2013-12-18 08:30:52 +0400";
layers = (
{
anchors = (
{
name = top;
position = "{383, 701}";
}
);
layerId = "9764FC2E-EF50-4B10-BB5F-6BAA27A55E88";
name = Regular;
paths = (
{
closed = 1;
nodes = (
"697 678 LINE SMOOTH",
"710 694 OFFCURVE",
"709 715 OFFCURVE",
"694 727 CURVE",
"678 741 OFFCURVE",
"657 738 OFFCURVE",
"643 722 CURVE SMOOTH",
"583 648 LINE SMOOTH",
"581 645 OFFCURVE",
"578 645 OFFCURVE",
"576 647 CURVE SMOOTH",
"521 687 OFFCURVE",
"455 710 OFFCURVE",
"384 710 CURVE SMOOTH",
"197 710 OFFCURVE",
"45 549 OFFCURVE",
"45 350 CURVE SMOOTH",
"45 256 OFFCURVE",
"79 170 OFFCURVE",
"134 106 CURVE SMOOTH",
"136 104 OFFCURVE",
"136 102 OFFCURVE",
"135 99 CURVE SMOOTH",
"73 24 LINE SMOOTH",
"60 8 OFFCURVE",
"61 -13 OFFCURVE",
"76 -25 CURVE",
"92 -39 OFFCURVE",
"113 -36 OFFCURVE",
"127 -20 CURVE SMOOTH",
"186 52 LINE SMOOTH",
"188 54 OFFCURVE",
"190 55 OFFCURVE",
"193 53 CURVE SMOOTH",
"247 13 OFFCURVE",
"313 -10 OFFCURVE",
"384 -10 CURVE SMOOTH",
"571 -10 OFFCURVE",
"723 151 OFFCURVE",
"723 350 CURVE SMOOTH",
"723 444 OFFCURVE",
"689 529 OFFCURVE",
"634 593 CURVE SMOOTH",
"632 596 OFFCURVE",
"632 598 OFFCURVE",
"634 600 CURVE SMOOTH"
);
},
{
closed = 1;
nodes = (
"115 511 OFFCURVE",
"237 640 OFFCURVE",
"384 640 CURVE SMOOTH",
"438 640 OFFCURVE",
"488 623 OFFCURVE",
"531 593 CURVE SMOOTH",
"534 591 OFFCURVE",
"534 588 OFFCURVE",
"532 586 CURVE SMOOTH",
"186 162 LINE SMOOTH",
"184 160 OFFCURVE",
"181 160 OFFCURVE",
"179 162 CURVE SMOOTH",
"139 213 OFFCURVE",
"115 278 OFFCURVE",
"115 350 CURVE SMOOTH"
);
},
{
closed = 1;
nodes = (
"330 60 OFFCURVE",
"280 77 OFFCURVE",
"237 107 CURVE SMOOTH",
"235 109 OFFCURVE",
"234 112 OFFCURVE",
"236 114 CURVE SMOOTH",
"582 537 LINE SMOOTH",
"584 540 OFFCURVE",
"587 540 OFFCURVE",
"589 537 CURVE SMOOTH",
"629 487 OFFCURVE",
"653 422 OFFCURVE",
"653 350 CURVE SMOOTH",
"653 189 OFFCURVE",
"531 60 OFFCURVE",
"384 60 CURVE SMOOTH"
);
}
);
width = 768;
}
);
unicode = 00D8;
},
{
glyphname = P;
lastChange = "2013-12-18 08:30:52 +0400";
layers = (
{
layerId = "9764FC2E-EF50-4B10-BB5F-6BAA27A55E88";
name = Regular;
paths = (
{
closed = 1;
nodes = (
"126 700 LINE SMOOTH",
"104.994 700 OFFCURVE",
"90 685.006 OFFCURVE",
"90 664 CURVE SMOOTH",
"90 36 LINE SMOOTH",
"90 14.994 OFFCURVE",
"104 0 OFFCURVE",
"124 0 CURVE SMOOTH",
"145.006 0 OFFCURVE",
"160 14.994 OFFCURVE",
"160 36 CURVE SMOOTH",
"160 268 LINE SMOOTH",
"160 271 OFFCURVE",
"162 273 OFFCURVE",
"165 273 CURVE SMOOTH",
"371 273 LINE SMOOTH",
"476 273 OFFCURVE",
"560 357 OFFCURVE",
"560 486 CURVE SMOOTH",
"560 616 OFFCURVE",
"476 700 OFFCURVE",
"371 700 CURVE SMOOTH"
);
},
{
closed = 1;
nodes = (
"165 343 LINE SMOOTH",
"162 343 OFFCURVE",
"160 345 OFFCURVE",
"160 348 CURVE SMOOTH",
"160 625 LINE SMOOTH",
"160 628 OFFCURVE",
"162 630 OFFCURVE",
"165 630 CURVE SMOOTH",
"371 630 LINE SMOOTH",
"437 630 OFFCURVE",
"490 577 OFFCURVE",
"490 486 CURVE SMOOTH",
"490 396 OFFCURVE",
"437 343 OFFCURVE",
"371 343 CURVE SMOOTH"
);
}
);
width = 595;
}
);
leftKerningGroup = B;
rightKerningGroup = P;
unicode = 0050;
},
{
glyphname = Thorn;
lastChange = "2013-12-18 08:30:52 +0400";
layers = (
{
anchors = (
{
name = bottom;
position = "{116, 0}";
},
{
name = top;
position = "{116, 515}";
},
{
name = topright;
position = "{212, 515}";
}
);
layerId = "9764FC2E-EF50-4B10-BB5F-6BAA27A55E88";
name = Regular;
paths = (
{
closed = 1;
nodes = (
"513 580 OFFCURVE",
"398 585 OFFCURVE",
"189 585 CURVE SMOOTH",
"186 585 OFFCURVE",
"184 587 OFFCURVE",
"184 590 CURVE SMOOTH",
"184 704 LINE SMOOTH",
"184 725 OFFCURVE",
"170 740 OFFCURVE",
"150 740 CURVE SMOOTH",
"129 740 OFFCURVE",
"114 725 OFFCURVE",
"114 704 CURVE SMOOTH",
"114 36 LINE SMOOTH",
"114 15 OFFCURVE",
"128 0 OFFCURVE",
"148 0 CURVE SMOOTH",
"169 0 OFFCURVE",
"184 15 OFFCURVE",
"184 36 CURVE SMOOTH",
"184 152 LINE SMOOTH",
"184 155 OFFCURVE",
"186 157 OFFCURVE",
"189 157 CURVE SMOOTH",
"389 157 OFFCURVE",
"513 162 OFFCURVE",
"513 370.999 CURVE"
);
},
{
closed = 1;
nodes = (
"184 510 LINE SMOOTH",
"184 513 OFFCURVE",
"186 515 OFFCURVE",
"189 515 CURVE SMOOTH",
"362 516 OFFCURVE",
"443 520 OFFCURVE",
"443 370.999 CURVE SMOOTH",
"443 221 OFFCURVE",
"362 226 OFFCURVE",
"189 227 CURVE SMOOTH",
"186 227 OFFCURVE",
"184 229 OFFCURVE",
"184 232 CURVE SMOOTH"
);
}
);
width = 541;
}
);
unicode = 00DE;
},
{
glyphname = Q;
lastChange = "2013-12-18 08:30:52 +0400";
layers = (
{
layerId = "9764FC2E-EF50-4B10-BB5F-6BAA27A55E88";
name = Regular;
paths = (
{
closed = 1;
nodes = (
"533 24 LINE SMOOTH",
"648 81 OFFCURVE",
"728 206 OFFCURVE",
"728 350 CURVE SMOOTH",
"728 549 OFFCURVE",
"576 710 OFFCURVE",
"389 710 CURVE SMOOTH",
"202 710 OFFCURVE",
"50 549 OFFCURVE",
"50 350 CURVE SMOOTH",
"50 176 OFFCURVE",
"166 32 OFFCURVE",
"319 -2 CURVE",
"213 -54 LINE SMOOTH",
"194 -64 OFFCURVE",
"188 -84 OFFCURVE",
"197 -102 CURVE SMOOTH",
"206 -120 OFFCURVE",
"225 -126 OFFCURVE",
"244 -119 CURVE SMOOTH",
"295 -99 OFFCURVE",
"337 -93 OFFCURVE",
"386 -103 CURVE SMOOTH",
"424 -111 OFFCURVE",
"507 -177 OFFCURVE",
"604 -177 CURVE SMOOTH",
"691 -177 OFFCURVE",
"769 -129 OFFCURVE",
"813 -87 CURVE",
"830 -72 OFFCURVE",
"827 -48 OFFCURVE",
"809 -35 CURVE SMOOTH",
"794 -24 OFFCURVE",
"777 -26 OFFCURVE",
"763 -39 CURVE SMOOTH",
"729 -71 OFFCURVE",
"670 -107 OFFCURVE",
"604 -107 CURVE SMOOTH",
"507 -107 OFFCURVE",
"506 -62 OFFCURVE",
"419 -39 CURVE SMOOTH",
"414 -38 OFFCURVE",
"413 -35 OFFCURVE",
"418 -32 CURVE SMOOTH"
);
},
{
closed = 1;
nodes = (
"120 511 OFFCURVE",
"242 640 OFFCURVE",
"389 640 CURVE SMOOTH",
"536 640 OFFCURVE",
"658 511 OFFCURVE",
"658 350 CURVE SMOOTH",
"658 189 OFFCURVE",
"536 60 OFFCURVE",
"389 60 CURVE SMOOTH",
"242 60 OFFCURVE",
"120 189 OFFCURVE",
"120 350 CURVE SMOOTH"
);
}
);
width = 774;
}
);
leftKerningGroup = C;
rightKerningGroup = D;
unicode = 0051;
},
{
glyphname = R;
lastChange = "2013-12-18 08:30:52 +0400";
layers = (
{
anchors = (
{
name = bottom;
position = "{317, 0}";
},
{
name = top;
position = "{317, 700}";
}
);
layerId = "9764FC2E-EF50-4B10-BB5F-6BAA27A55E88";
name = Regular;
paths = (
{
closed = 1;
nodes = (
"126 700 LINE SMOOTH",
"104.994 700 OFFCURVE",
"90 685.006 OFFCURVE",
"90 664 CURVE SMOOTH",
"90 36 LINE SMOOTH",
"90 14.994 OFFCURVE",
"104 0 OFFCURVE",
"124 0 CURVE SMOOTH",
"145.006 0 OFFCURVE",
"160 14.994 OFFCURVE",
"160 36 CURVE SMOOTH",
"160 288 LINE SMOOTH",
"160 291 OFFCURVE",
"162 293 OFFCURVE",
"165 293 CURVE SMOOTH",
"349 293 LINE SMOOTH",
"405 293 OFFCURVE",
"467 260 OFFCURVE",
"467 196 CURVE SMOOTH",
"467 113 OFFCURVE",
"479 45 OFFCURVE",
"538 6 CURVE SMOOTH",
"556 -6 OFFCURVE",
"583 0 OFFCURVE",
"591 22 CURVE SMOOTH",
"598 41 OFFCURVE",
"586 58 OFFCURVE",
"571 68 CURVE SMOOTH",
"541 89 OFFCURVE",
"537 115 OFFCURVE",
"537 190 CURVE SMOOTH",
"537 242 OFFCURVE",
"505 282 OFFCURVE",
"463 310 CURVE SMOOTH",
"460 313 OFFCURVE",
"460 315 OFFCURVE",
"463 317 CURVE SMOOTH",
"521 350 OFFCURVE",
"560 415 OFFCURVE",
"560 496 CURVE SMOOTH",
"560 616 OFFCURVE",
"476 700 OFFCURVE",
"371 700 CURVE SMOOTH"
);
},
{
closed = 1;
nodes = (
"165 363 LINE SMOOTH",
"162 363 OFFCURVE",
"160 365 OFFCURVE",
"160 368 CURVE SMOOTH",
"160 625 LINE SMOOTH",
"160 628 OFFCURVE",
"162 630 OFFCURVE",
"165 630 CURVE SMOOTH",
"371 630 LINE SMOOTH",
"437 630 OFFCURVE",
"490 577 OFFCURVE",
"490 496 CURVE SMOOTH",
"490 416 OFFCURVE",
"437 363 OFFCURVE",
"371 363 CURVE SMOOTH"
);
}
);
width = 633;
}
);
leftKerningGroup = B;
rightKerningGroup = R;
unicode = 0052;
},
{
glyphname = S;
lastChange = "2013-12-18 08:30:52 +0400";
layers = (
{
anchors = (
{
name = bottom;
position = "{311, 0}";
},
{
name = top;
position = "{311, 700}";
}
);
layerId = "9764FC2E-EF50-4B10-BB5F-6BAA27A55E88";
name = Regular;
paths = (
{
closed = 1;
nodes = (
"87 48 OFFCURVE",
"196 -9 OFFCURVE",
"301 -9 CURVE SMOOTH",
"427 -9 OFFCURVE",
"567 41 OFFCURVE",
"567 185 CURVE SMOOTH",
"567 310 OFFCURVE",
"466 357 OFFCURVE",
"343 393 CURVE SMOOTH",
"217 429 OFFCURVE",
"121 446 OFFCURVE",
"121 524 CURVE SMOOTH",
"121 601 OFFCURVE",
"208 640 OFFCURVE",
"284 640 CURVE SMOOTH",
"376 640 OFFCURVE",
"427 606 OFFCURVE",
"470 573 CURVE SMOOTH",
"484 562 OFFCURVE",
"505 565 OFFCURVE",
"516 580 CURVE SMOOTH",
"529 598 OFFCURVE",
"524 620 OFFCURVE",
"507 632 CURVE SMOOTH",
"455 669 OFFCURVE",
"389 710 OFFCURVE",
"284 710 CURVE SMOOTH",
"184 710 OFFCURVE",
"51 653 OFFCURVE",
"51 524 CURVE SMOOTH",
"51 388 OFFCURVE",
"201 361 OFFCURVE",
"323 325 CURVE SMOOTH",
"448 289 OFFCURVE",
"497 256 OFFCURVE",
"497 185 CURVE SMOOTH",
"497 97 OFFCURVE",
"407 61 OFFCURVE",
"301 61 CURVE SMOOTH",
"207 61 OFFCURVE",
"148 103 OFFCURVE",
"106 141 CURVE SMOOTH",
"93 153 OFFCURVE",
"73 157 OFFCURVE",
"57 144 CURVE SMOOTH",
"42 132 OFFCURVE",
"40 113 OFFCURVE",
"55 94 CURVE"
);
}
);
width = 612;
}
);
leftKerningGroup = S;
rightKerningGroup = S;
unicode = 0053;
},
{
glyphname = T;
lastChange = "2013-12-18 08:30:52 +0400";
layers = (
{
anchors = (
{
name = bottom;
position = "{282, 0}";
},
{
name = center;
position = "{282, 350}";
},
{
name = top;
position = "{282, 700}";
}
);
layerId = "9764FC2E-EF50-4B10-BB5F-6BAA27A55E88";
name = Regular;
paths = (
{
closed = 1;
nodes = (
"533 685 OFFCURVE",
"518 700 OFFCURVE",
"497 700 CURVE SMOOTH",
"66 700 LINE SMOOTH",
"45 700 OFFCURVE",
"30 686 OFFCURVE",
"30 666 CURVE SMOOTH",
"30 645 OFFCURVE",
"45 630 OFFCURVE",
"66 630 CURVE SMOOTH",
"242 630 LINE SMOOTH",
"245 630 OFFCURVE",
"247 628 OFFCURVE",
"247 625 CURVE SMOOTH",
"247 36 LINE SMOOTH",
"247 15 OFFCURVE",
"261 0 OFFCURVE",
"281 0 CURVE SMOOTH",
"302 0 OFFCURVE",
"317 15 OFFCURVE",
"317 36 CURVE SMOOTH",
"317 625 LINE SMOOTH",
"317 628 OFFCURVE",
"319 630 OFFCURVE",
"322 630 CURVE SMOOTH",
"497 630 LINE SMOOTH",
"518 630 OFFCURVE",
"533 645 OFFCURVE",
"533 665 CURVE SMOOTH"
);
}
);
width = 563;
}
);
leftKerningGroup = T;
rightKerningGroup = T;
unicode = 0054;
},
{
glyphname = Tbar;
lastChange = "2013-12-18 08:30:52 +0400";
layers = (
{
anchors = (
{
name = bottom;
position = "{275, 0}";
},
{
name = center;
position = "{275, 350}";
},
{
name = top;
position = "{275, 700}";
}
);
layerId = "9764FC2E-EF50-4B10-BB5F-6BAA27A55E88";
name = Regular;
paths = (
{
closed = 1;
nodes = (
"59 700 LINE SMOOTH",
"38 700 OFFCURVE",
"23 686 OFFCURVE",
"23 666 CURVE SMOOTH",
"23 645 OFFCURVE",
"38 630 OFFCURVE",
"59 630 CURVE SMOOTH",
"235 630 LINE SMOOTH",
"238 630 OFFCURVE",
"240 628 OFFCURVE",
"240 625 CURVE SMOOTH",
"240 460 LINE SMOOTH",
"240 457 OFFCURVE",
"238 455 OFFCURVE",
"235 455 CURVE SMOOTH",
"108 455 LINE SMOOTH",
"86 455 OFFCURVE",
"72 441 OFFCURVE",
"72 421 CURVE SMOOTH",
"72 400 OFFCURVE",
"86 385 OFFCURVE",
"108 385 CURVE SMOOTH",
"235 385 LINE SMOOTH",
"238 385 OFFCURVE",
"240 383 OFFCURVE",
"240 380 CURVE SMOOTH",
"240 36 LINE SMOOTH",
"240 15 OFFCURVE",
"254 0 OFFCURVE",
"274 0 CURVE SMOOTH",
"295 0 OFFCURVE",
"310 15 OFFCURVE",
"310 36 CURVE SMOOTH",
"310 380 LINE SMOOTH",
"310 383 OFFCURVE",
"312 385 OFFCURVE",
"315 385 CURVE SMOOTH",
"442 385 LINE SMOOTH",
"463 385 OFFCURVE",
"478 399 OFFCURVE",
"478 419 CURVE SMOOTH",
"478 440 OFFCURVE",
"463 455 OFFCURVE",
"442 455 CURVE SMOOTH",
"315 455 LINE SMOOTH",
"312 455 OFFCURVE",
"310 457 OFFCURVE",
"310 460 CURVE SMOOTH",
"310 625 LINE SMOOTH",
"310 628 OFFCURVE",
"312 630 OFFCURVE",
"315 630 CURVE SMOOTH",
"490 630 LINE SMOOTH",
"511 630 OFFCURVE",
"526 645 OFFCURVE",
"526 665 CURVE SMOOTH",
"526 685 OFFCURVE",
"511 700 OFFCURVE",
"490 700 CURVE SMOOTH"
);
}
);
width = 558;
}
);
leftMetricsKey = T;
rightMetricsKey = T;
unicode = 0166;
},
{
glyphname = U;
lastChange = "2013-12-18 08:30:52 +0400";
layers = (
{
anchors = (
{
name = ogonek;
position = "{649, 10}";
},
{
name = top;
position = "{362, 700}";
}
);
layerId = "9764FC2E-EF50-4B10-BB5F-6BAA27A55E88";
name = Regular;
paths = (
{
closed = 1;
nodes = (
"589 700 OFFCURVE",
"574 685 OFFCURVE",
"574 664 CURVE SMOOTH",
"574 271 LINE SMOOTH",
"574 154 OFFCURVE",
"479 60 OFFCURVE",
"362 60 CURVE SMOOTH",
"245 60 OFFCURVE",
"150 154 OFFCURVE",
"150 271 CURVE SMOOTH",
"150 664 LINE SMOOTH",
"150 685 OFFCURVE",
"136 700 OFFCURVE",
"116 700 CURVE SMOOTH",
"95 700 OFFCURVE",
"80 685 OFFCURVE",
"80 664 CURVE SMOOTH",
"80 271 LINE SMOOTH",
"80 116 OFFCURVE",
"206 -10 OFFCURVE",
"362 -10 CURVE SMOOTH",
"518 -10 OFFCURVE",
"644 116 OFFCURVE",
"644 271 CURVE SMOOTH",
"644 664 LINE SMOOTH",
"644 685 OFFCURVE",
"629 700 OFFCURVE",
"609 700 CURVE SMOOTH"
);
}
);
width = 724;
}
);
leftKerningGroup = U;
rightKerningGroup = U;
unicode = 0055;
},
{
glyphname = V;
lastChange = "2013-12-18 08:30:52 +0400";
layers = (
{
layerId = "9764FC2E-EF50-4B10-BB5F-6BAA27A55E88";
name = Regular;
paths = (
{
closed = 1;
nodes = (
"338 128 LINE SMOOTH",
"337 124 OFFCURVE",
"333 124 OFFCURVE",
"332 128 CURVE SMOOTH",
"88 679 LINE SMOOTH",
"80 698 OFFCURVE",
"60 706 OFFCURVE",
"42 698 CURVE SMOOTH",
"23 690 OFFCURVE",
"15 670 OFFCURVE",
"23 651 CURVE SMOOTH",
"302 22 LINE SMOOTH",
"308 8 OFFCURVE",
"321 -1 OFFCURVE",
"335 0 CURVE",
"349 -1 OFFCURVE",
"362 8 OFFCURVE",
"368 22 CURVE SMOOTH",
"647 651 LINE SMOOTH",
"655 670 OFFCURVE",
"647 690 OFFCURVE",
"628 698 CURVE SMOOTH",
"610 706 OFFCURVE",
"590 698 OFFCURVE",
"582 679 CURVE SMOOTH"
);
}
);
width = 670;
}
);
leftKerningGroup = V;
rightKerningGroup = V;
unicode = 0056;
},
{
glyphname = W;
lastChange = "2013-12-18 08:30:52 +0400";
layers = (
{
anchors = (
{
name = top;
position = "{477, 700}";
}
);
layerId = "9764FC2E-EF50-4B10-BB5F-6BAA27A55E88";
name = Regular;
paths = (
{
closed = 1;
nodes = (
"667 138 LINE SMOOTH",
"666 133 OFFCURVE",
"662 133 OFFCURVE",
"660 138 CURVE SMOOTH",
"502 518 LINE SMOOTH",
"496 534 OFFCURVE",
"483 543 OFFCURVE",
"467 543 CURVE",
"452 543 OFFCURVE",
"439 534 OFFCURVE",
"432 518 CURVE SMOOTH",
"273 137 LINE SMOOTH",
"271 133 OFFCURVE",
"268 133 OFFCURVE",
"267 138 CURVE SMOOTH",
"88 675 LINE SMOOTH",
"81 695 OFFCURVE",
"64 705 OFFCURVE",
"45 699 CURVE SMOOTH",
"25 693 OFFCURVE",
"15 674 OFFCURVE",
"22 654 CURVE SMOOTH",
"231 25 LINE SMOOTH",
"237 8 OFFCURVE",
"250 -1 OFFCURVE",
"265 -1 CURVE",
"281 -2 OFFCURVE",
"295 7 OFFCURVE",
"302 24 CURVE SMOOTH",
"464 411 LINE SMOOTH",
"465 415 OFFCURVE",
"469 415 OFFCURVE",
"470 411 CURVE SMOOTH",
"632 24 LINE",
"638 7 OFFCURVE",
"652 -2 OFFCURVE",
"669 -1 CURVE",
"684 -1 OFFCURVE",
"697 8 OFFCURVE",
"703 25 CURVE SMOOTH",
"912 654 LINE SMOOTH",
"919 674 OFFCURVE",
"909 693 OFFCURVE",
"889 699 CURVE SMOOTH",
"870 705 OFFCURVE",
"853 695 OFFCURVE",
"846 675 CURVE SMOOTH"
);
}
);
width = 934;
}
);
leftKerningGroup = W;
rightKerningGroup = W;
unicode = 0057;
},
{
glyphname = X;
lastChange = "2013-12-18 08:30:52 +0400";
layers = (
{
layerId = "9764FC2E-EF50-4B10-BB5F-6BAA27A55E88";
name = Regular;
paths = (
{
closed = 1;
nodes = (
"557 646 LINE SMOOTH",
"570 663 OFFCURVE",
"567 683 OFFCURVE",
"551 695 CURVE SMOOTH",
"534 707 OFFCURVE",
"513 704 OFFCURVE",
"501 687 CURVE SMOOTH",
"297 414 LINE SMOOTH",
"294 411 OFFCURVE",
"292 411 OFFCURVE",
"289 414 CURVE SMOOTH",
"85 686 LINE SMOOTH",
"72 703 OFFCURVE",
"52 707 OFFCURVE",
"36 695 CURVE SMOOTH",
"19 683 OFFCURVE",
"16 662 OFFCURVE",
"28 646 CURVE SMOOTH",
"246 355 LINE SMOOTH",
"248 352 OFFCURVE",
"248 350 OFFCURVE",
"246 347 CURVE SMOOTH",
"27 54 LINE SMOOTH",
"15 37 OFFCURVE",
"18 17 OFFCURVE",
"34 5 CURVE SMOOTH",
"51 -7 OFFCURVE",
"72 -4 OFFCURVE",
"84 13 CURVE SMOOTH",
"289 287 LINE SMOOTH",
"292 290 OFFCURVE",
"294 290 OFFCURVE",
"297 287 CURVE SMOOTH",
"500 14 LINE SMOOTH",
"513 -3 OFFCURVE",
"533 -7 OFFCURVE",
"549 5 CURVE SMOOTH",
"566 17 OFFCURVE",
"569 38 OFFCURVE",
"557 54 CURVE SMOOTH",
"339 346 LINE SMOOTH",
"337 349 OFFCURVE",
"337 351 OFFCURVE",
"339 354 CURVE SMOOTH"
);
}
);
width = 585;
}
);
leftKerningGroup = X;
rightKerningGroup = X;
unicode = 0058;
},
{
glyphname = Y;
lastChange = "2013-12-18 08:30:52 +0400";
layers = (
{
anchors = (
{
name = top;
position = "{296, 700}";
}
);
layerId = "9764FC2E-EF50-4B10-BB5F-6BAA27A55E88";
name = Regular;
paths = (
{
closed = 1;
nodes = (
"301 389 LINE SMOOTH",
"298 386 OFFCURVE",
"296 386 OFFCURVE",
"293 389 CURVE SMOOTH",
"83 686 LINE SMOOTH",
"71 703 OFFCURVE",
"50 706 OFFCURVE",
"34 694 CURVE SMOOTH",
"18 682 OFFCURVE",
"16 661 OFFCURVE",
"27 645 CURVE SMOOTH",
"260 316 LINE SMOOTH",
"261 314 OFFCURVE",
"262 312 OFFCURVE",
"262 310 CURVE SMOOTH",
"262 36 LINE SMOOTH",
"262 15 OFFCURVE",
"277 0 OFFCURVE",
"297 0 CURVE SMOOTH",
"317 0 OFFCURVE",
"332 15 OFFCURVE",
"332 36 CURVE SMOOTH",
"332 310 LINE SMOOTH",
"332 312 OFFCURVE",
"333 314 OFFCURVE",
"334 316 CURVE SMOOTH",
"567 645 LINE SMOOTH",
"578 661 OFFCURVE",
"576 682 OFFCURVE",
"560 694 CURVE SMOOTH",
"544 706 OFFCURVE",
"523 703 OFFCURVE",
"511 686 CURVE SMOOTH"
);
}
);
width = 594;
}
);
leftKerningGroup = Y;
rightKerningGroup = Y;
unicode = 0059;
},
{
glyphname = Z;
lastChange = "2013-12-18 08:30:52 +0400";
layers = (
{
anchors = (
{
name = top;
position = "{323, 700}";
}
);
layerId = "9764FC2E-EF50-4B10-BB5F-6BAA27A55E88";
name = Regular;
paths = (
{
closed = 1;
nodes = (
"115 700 LINE SMOOTH",
"94 700 OFFCURVE",
"79 686 OFFCURVE",
"79 666 CURVE SMOOTH",
"79 645 OFFCURVE",
"94 630 OFFCURVE",
"115 630 CURVE SMOOTH",
"486 630 LINE SMOOTH",
"490 630 OFFCURVE",
"491 627 OFFCURVE",
"489 624 CURVE SMOOTH",
"47 55 LINE SMOOTH",
"35 40 OFFCURVE",
"39 21 OFFCURVE",
"53 8 CURVE",
"61 2 OFFCURVE",
"70 -1 OFFCURVE",
"79 0 CURVE",
"555 0 LINE SMOOTH",
"576 0 OFFCURVE",
"591 14 OFFCURVE",
"591 34 CURVE SMOOTH",
"591 55 OFFCURVE",
"576 70 OFFCURVE",
"555 70 CURVE SMOOTH",
"155 70 LINE SMOOTH",
"151 70 OFFCURVE",
"150 73 OFFCURVE",
"152 76 CURVE SMOOTH",
"593 643 LINE SMOOTH",
"602 654 OFFCURVE",
"603 666 OFFCURVE",
"599 677 CURVE",
"595 689 OFFCURVE",
"586 697 OFFCURVE",
"573 699 CURVE SMOOTH",
"570 700 OFFCURVE",
"566 700 OFFCURVE",
"562 700 CURVE"
);
}
);
width = 641;
}
);
leftKerningGroup = Z;
rightKerningGroup = Z;
unicode = 005A;
},
{
glyphname = A.ss01;
lastChange = "2013-12-18 08:30:52 +0400";
layers = (
{
layerId = "9764FC2E-EF50-4B10-BB5F-6BAA27A55E88";
name = Regular;
paths = (
{
closed = 1;
nodes = (
"673 700 OFFCURVE",
"658 685 OFFCURVE",
"658 664 CURVE SMOOTH",
"658 570 LINE SMOOTH",
"658 565 OFFCURVE",
"655 564 OFFCURVE",
"652 568 CURVE SMOOTH",
"598 650 OFFCURVE",
"494 710 OFFCURVE",
"389 710 CURVE SMOOTH",
"202 710 OFFCURVE",
"50 549 OFFCURVE",
"50 350 CURVE SMOOTH",
"50 151 OFFCURVE",
"202 -10 OFFCURVE",
"389 -10 CURVE SMOOTH",
"494 -10 OFFCURVE",
"598 50 OFFCURVE",
"652 132 CURVE SMOOTH",
"655 136 OFFCURVE",
"658 135 OFFCURVE",
"658 130 CURVE SMOOTH",
"658 36 LINE SMOOTH",
"658 15 OFFCURVE",
"672 0 OFFCURVE",
"692 0 CURVE SMOOTH",
"713 0 OFFCURVE",
"728 15 OFFCURVE",
"728 36 CURVE SMOOTH",
"728 664 LINE SMOOTH",
"728 685 OFFCURVE",
"713 700 OFFCURVE",
"693 700 CURVE SMOOTH"
);
},
{
closed = 1;
nodes = (
"242 60 OFFCURVE",
"120 189 OFFCURVE",
"120 350 CURVE SMOOTH",
"120 511 OFFCURVE",
"242 640 OFFCURVE",
"389 640 CURVE SMOOTH",
"536 640 OFFCURVE",
"658 511 OFFCURVE",
"658 350 CURVE SMOOTH",
"658 189 OFFCURVE",
"536 60 OFFCURVE",
"389 60 CURVE SMOOTH"
);
}
);
width = 818;
}
);
},
{
glyphname = E.ss01;
lastChange = "2013-12-18 08:30:52 +0400";
layers = (
{
layerId = "9764FC2E-EF50-4B10-BB5F-6BAA27A55E88";
name = Regular;
paths = (
{
closed = 1;
nodes = (
"744 550 OFFCURVE",
"600 710 OFFCURVE",
"398 710 CURVE SMOOTH",
"206 710 OFFCURVE",
"50 549 OFFCURVE",
"50 350 CURVE SMOOTH",
"50 151 OFFCURVE",
"206 -10 OFFCURVE",
"398 -10 CURVE SMOOTH",
"513 -10 OFFCURVE",
"599 18 OFFCURVE",
"669 90 CURVE SMOOTH",
"686 108 OFFCURVE",
"683 133 OFFCURVE",
"663 145 CURVE SMOOTH",
"649 154 OFFCURVE",
"632 151 OFFCURVE",
"620 139 CURVE SMOOTH",
"561 78 OFFCURVE",
"493 60 OFFCURVE",
"398 60 CURVE SMOOTH",
"254 60 OFFCURVE",
"135 174 OFFCURVE",
"121 321 CURVE SMOOTH",
"121 324 OFFCURVE",
"123 326 OFFCURVE",
"126 326 CURVE SMOOTH",
"708 326 LINE SMOOTH",
"729 326 OFFCURVE",
"744 341 OFFCURVE",
"744 362 CURVE SMOOTH",
"744 371 LINE SMOOTH"
);
},
{
closed = 1;
nodes = (
"129 396 LINE SMOOTH",
"125 396 OFFCURVE",
"124 398 OFFCURVE",
"124 401 CURVE SMOOTH",
"148 538 OFFCURVE",
"262 640 OFFCURVE",
"398 640 CURVE SMOOTH",
"533 640 OFFCURVE",
"648 537 OFFCURVE",
"671 401 CURVE SMOOTH",
"671 398 OFFCURVE",
"669 396 OFFCURVE",
"666 396 CURVE SMOOTH"
);
}
);
width = 794;
}
);
},
{
glyphname = M.ss01;
lastChange = "2013-12-18 08:30:52 +0400";
layers = (
{
layerId = "9764FC2E-EF50-4B10-BB5F-6BAA27A55E88";
name = Regular;
paths = (
{
closed = 1;
nodes = (
"160 665 LINE SMOOTH",
"160 686 OFFCURVE",
"146 701 OFFCURVE",
"126 701 CURVE SMOOTH",
"105 701 OFFCURVE",
"90 686 OFFCURVE",
"90 665 CURVE SMOOTH",
"90 36 LINE SMOOTH",
"90 15 OFFCURVE",
"104 0 OFFCURVE",
"124 0 CURVE SMOOTH",
"145 0 OFFCURVE",
"160 15 OFFCURVE",
"160 36 CURVE SMOOTH",
"160 388 LINE SMOOTH",
"160 545 OFFCURVE",
"245 640 OFFCURVE",
"382 640 CURVE SMOOTH",
"503 640 OFFCURVE",
"548 545 OFFCURVE",
"548 428 CURVE SMOOTH",
"548 36 LINE SMOOTH",
"548 15 OFFCURVE",
"562 0 OFFCURVE",
"582 0 CURVE SMOOTH",
"603 0 OFFCURVE",
"618 15 OFFCURVE",
"618 36 CURVE SMOOTH",
"618 388 LINE SMOOTH",
"618 545 OFFCURVE",
"713 640 OFFCURVE",
"850 640 CURVE SMOOTH",
"966 640 OFFCURVE",
"1011 545 OFFCURVE",
"1011 428 CURVE SMOOTH",
"1011 36 LINE SMOOTH",
"1011 15 OFFCURVE",
"1025 0 OFFCURVE",
"1045 0 CURVE SMOOTH",
"1066 0 OFFCURVE",
"1081 15 OFFCURVE",
"1081 36 CURVE SMOOTH",
"1081 428 LINE SMOOTH",
"1081 584 OFFCURVE",
"1005 710 OFFCURVE",
"850 710 CURVE SMOOTH",
"714 710 OFFCURVE",
"634 634 OFFCURVE",
"598 560 CURVE SMOOTH",
"596 556 OFFCURVE",
"593 556 OFFCURVE",
"592 560 CURVE SMOOTH",
"553 649 OFFCURVE",
"491 710 OFFCURVE",
"382 710 CURVE SMOOTH",
"279 710 OFFCURVE",
"210 664 OFFCURVE",
"166 597 CURVE SMOOTH",
"163 593 OFFCURVE",
"160 594 OFFCURVE",
"160 599 CURVE SMOOTH"
);
}
);
width = 1156;
}
);
},
{
glyphname = N.ss01;
lastChange = "2013-12-18 08:30:52 +0400";
layers = (
{
layerId = "9764FC2E-EF50-4B10-BB5F-6BAA27A55E88";
name = Regular;
paths = (
{
closed = 1;
nodes = (
"160 665 LINE SMOOTH",
"160 686 OFFCURVE",
"146 701 OFFCURVE",
"126 701 CURVE SMOOTH",
"105 701 OFFCURVE",
"90 686 OFFCURVE",
"90 665 CURVE SMOOTH",
"90 36 LINE SMOOTH",
"90 15 OFFCURVE",
"104 0 OFFCURVE",
"124 0 CURVE SMOOTH",
"145 0 OFFCURVE",
"160 15 OFFCURVE",
"160 36 CURVE SMOOTH",
"160 388 LINE SMOOTH",
"160 545 OFFCURVE",
"265 640 OFFCURVE",
"392 640 CURVE SMOOTH",
"518 640 OFFCURVE",
"583 545 OFFCURVE",
"583 428 CURVE SMOOTH",
"583 36 LINE SMOOTH",
"583 15 OFFCURVE",
"597 0 OFFCURVE",
"617 0 CURVE SMOOTH",
"638 0 OFFCURVE",
"653 15 OFFCURVE",
"653 36 CURVE SMOOTH",
"653 428 LINE SMOOTH",
"653 584 OFFCURVE",
"557 710 OFFCURVE",
"392 710 CURVE SMOOTH",
"299 710 OFFCURVE",
"220 664 OFFCURVE",
"166 597 CURVE SMOOTH",
"163 593 OFFCURVE",
"160 594 OFFCURVE",
"160 599 CURVE SMOOTH"
);
}
);
width = 733;
}
);
},
{
glyphname = Q.ss01;
lastChange = "2013-12-18 08:30:52 +0400";
layers = (
{
layerId = "9764FC2E-EF50-4B10-BB5F-6BAA27A55E88";
name = Regular;
paths = (
{
closed = 1;
nodes = (
"728 549 OFFCURVE",
"576 710 OFFCURVE",
"389 710 CURVE SMOOTH",
"202 710 OFFCURVE",
"50 549 OFFCURVE",
"50 350 CURVE SMOOTH",
"50 165 OFFCURVE",
"181 13 OFFCURVE",
"349 -8 CURVE SMOOTH",
"352 -8 OFFCURVE",
"354 -10 OFFCURVE",
"354 -13 CURVE SMOOTH",
"354 -113 LINE SMOOTH",
"354 -134 OFFCURVE",
"369 -149 OFFCURVE",
"389 -149 CURVE SMOOTH",
"409 -149 OFFCURVE",
"424 -134 OFFCURVE",
"424 -113 CURVE SMOOTH",
"424 -13 LINE SMOOTH",
"424 -10 OFFCURVE",
"426 -8 OFFCURVE",
"429 -8 CURVE SMOOTH",
"597 13 OFFCURVE",
"728 165 OFFCURVE",
"728 350 CURVE SMOOTH"
);
},
{
closed = 1;
nodes = (
"242 60 OFFCURVE",
"120 189 OFFCURVE",
"120 350 CURVE SMOOTH",
"120 511 OFFCURVE",
"242 640 OFFCURVE",
"389 640 CURVE SMOOTH",
"536 640 OFFCURVE",
"658 511 OFFCURVE",
"658 350 CURVE SMOOTH",
"658 189 OFFCURVE",
"536 60 OFFCURVE",
"389 60 CURVE SMOOTH"
);
}
);
width = 778;
}
);
},
{
glyphname = R.ss01;
lastChange = "2013-12-18 08:30:52 +0400";
layers = (
{
layerId = "9764FC2E-EF50-4B10-BB5F-6BAA27A55E88";
name = Regular;
paths = (
{
closed = 1;
nodes = (
"160 664 LINE SMOOTH",
"160 685 OFFCURVE",
"145 700 OFFCURVE",
"125 700 CURVE SMOOTH",
"105 700 OFFCURVE",
"90 685 OFFCURVE",
"90 664 CURVE SMOOTH",
"90 36 LINE SMOOTH",
"90 15 OFFCURVE",
"105 0 OFFCURVE",
"125 0 CURVE SMOOTH",
"145 0 OFFCURVE",
"160 15 OFFCURVE",
"160 36 CURVE SMOOTH",
"160 317 LINE SMOOTH",
"160 553 OFFCURVE",
"312 603 OFFCURVE",
"437 637 CURVE SMOOTH",
"466 645 OFFCURVE",
"466 670 OFFCURVE",
"461 684 CURVE SMOOTH",
"456 699 OFFCURVE",
"441 709 OFFCURVE",
"417 708 CURVE SMOOTH",
"350 705 OFFCURVE",
"240 657 OFFCURVE",
"166 557 CURVE SMOOTH",
"163 553 OFFCURVE",
"160 554 OFFCURVE",
"160 559 CURVE SMOOTH"
);
}
);
width = 473.504;
}
);
},
{
glyphname = U.ss01;
lastChange = "2013-12-18 08:30:52 +0400";
layers = (
{
layerId = "9764FC2E-EF50-4B10-BB5F-6BAA27A55E88";
name = Regular;
paths = (
{
closed = 1;
nodes = (
"573 45 LINE SMOOTH",
"573 24 OFFCURVE",
"587 9 OFFCURVE",
"607 9 CURVE SMOOTH",
"628 9 OFFCURVE",
"643 24 OFFCURVE",
"643 45 CURVE SMOOTH",
"643 674 LINE SMOOTH",
"643 695 OFFCURVE",
"629 710 OFFCURVE",
"609 710 CURVE SMOOTH",
"588 710 OFFCURVE",
"573 695 OFFCURVE",
"573 674 CURVE SMOOTH",
"573 322 LINE SMOOTH",
"573 165 OFFCURVE",
"468 70 OFFCURVE",
"341 70 CURVE SMOOTH",
"215 70 OFFCURVE",
"150 165 OFFCURVE",
"150 282 CURVE SMOOTH",
"150 674 LINE SMOOTH",
"150 695 OFFCURVE",
"136 710 OFFCURVE",
"116 710 CURVE SMOOTH",
"95 710 OFFCURVE",
"80 695 OFFCURVE",
"80 674 CURVE SMOOTH",
"80 282 LINE SMOOTH",
"80 126 OFFCURVE",
"176 0 OFFCURVE",
"341 0 CURVE SMOOTH",
"434 0 OFFCURVE",
"513 46 OFFCURVE",
"567 113 CURVE SMOOTH",
"570 117 OFFCURVE",
"573 116 OFFCURVE",
"573 111 CURVE SMOOTH"
);
}
);
width = 733;
}
);
},
{
glyphname = W.ss01;
lastChange = "2013-12-18 08:30:52 +0400";
layers = (
{
layerId = "9764FC2E-EF50-4B10-BB5F-6BAA27A55E88";
name = Regular;
paths = (
{
closed = 1;
nodes = (
"988 271 LINE SMOOTH",
"988 154 OFFCURVE",
"893 60 OFFCURVE",
"796 60 CURVE SMOOTH",
"679 60 OFFCURVE",
"604 154 OFFCURVE",
"604 271 CURVE SMOOTH",
"604 664 LINE SMOOTH",
"604 685 OFFCURVE",
"590 700 OFFCURVE",
"570 700 CURVE SMOOTH",
"569.829 700 OFFCURVE",
"569.658 699.999 OFFCURVE",
"569.488 699.997 CURVE SMOOTH",
"549.469 700 OFFCURVE",
"534.706 685.695 OFFCURVE",
"534.025 665.467 CURVE SMOOTH",
"534 664 LINE",
"534 271 LINE SMOOTH",
"534 154 OFFCURVE",
"459 60 OFFCURVE",
"342 60 CURVE SMOOTH",
"225 60 OFFCURVE",
"150 154 OFFCURVE",
"150 271 CURVE SMOOTH",
"150 664 LINE SMOOTH",
"150 685 OFFCURVE",
"136 700 OFFCURVE",
"116 700 CURVE SMOOTH",
"95 700 OFFCURVE",
"80 685 OFFCURVE",
"80 664 CURVE SMOOTH",
"80 271 LINE SMOOTH",
"80 116 OFFCURVE",
"186 -10 OFFCURVE",
"342 -10 CURVE SMOOTH",
"444.612 -10 OFFCURVE",
"536 55 OFFCURVE",
"569 136 CURVE",
"602 55 OFFCURVE",
"693.388 -10 OFFCURVE",
"796 -10 CURVE SMOOTH",
"932 -10 OFFCURVE",
"1058 116 OFFCURVE",
"1058 271 CURVE SMOOTH",
"1058 664 LINE SMOOTH",
"1058 685 OFFCURVE",
"1043 700 OFFCURVE",
"1023 700 CURVE SMOOTH",
"1003 700 OFFCURVE",
"988 685 OFFCURVE",
"988 664 CURVE SMOOTH"
);
}
);
width = 1138;
}
);
},
{
glyphname = a;
lastChange = "2013-12-18 08:30:52 +0400";
layers = (
{
anchors = (
{
name = ogonek;
position = "{563, 10}";
},
{
name = top;
position = "{313, 515}";
}
);
layerId = "9764FC2E-EF50-4B10-BB5F-6BAA27A55E88";
name = Regular;
paths = (
{
closed = 1;
nodes = (
"493 515 OFFCURVE",
"478 500 OFFCURVE",
"478 479 CURVE SMOOTH",
"478 440 LINE SMOOTH",
"478 435 OFFCURVE",
"475 434 OFFCURVE",
"472 438 CURVE SMOOTH",
"438 492 OFFCURVE",
"364 525 OFFCURVE",
"297 525 CURVE SMOOTH",
"158 525 OFFCURVE",
"45 405 OFFCURVE",
"45 257 CURVE SMOOTH",
"45 110 OFFCURVE",
"158 -10 OFFCURVE",
"297 -10 CURVE SMOOTH",
"364 -10 OFFCURVE",
"438 23 OFFCURVE",
"472 77 CURVE SMOOTH",
"475 81 OFFCURVE",
"478 80 OFFCURVE",
"478 75 CURVE SMOOTH",
"478 36 LINE SMOOTH",
"478 15 OFFCURVE",
"492 0 OFFCURVE",
"512 0 CURVE SMOOTH",
"533 0 OFFCURVE",
"548 15 OFFCURVE",
"548 36 CURVE SMOOTH",
"548 479 LINE SMOOTH",
"548 500 OFFCURVE",
"533 515 OFFCURVE",
"513 515 CURVE SMOOTH"
);
},
{
closed = 1;
nodes = (
"198 60 OFFCURVE",
"115 147 OFFCURVE",
"115 257 CURVE SMOOTH",
"115 368 OFFCURVE",
"198 455 OFFCURVE",
"297 455 CURVE SMOOTH",
"396 455 OFFCURVE",
"478 368 OFFCURVE",
"478 257 CURVE SMOOTH",
"478 147 OFFCURVE",
"396 60 OFFCURVE",
"297 60 CURVE SMOOTH"
);
}
);
width = 628;
}
);
leftKerningGroup = a;
rightKerningGroup = a;
unicode = 0061;
},
{
glyphname = ae;
lastChange = "2013-12-18 08:30:52 +0400";
layers = (
{
anchors = (
{
name = bottom;
position = "{734, 0}";
},
{
name = ogonek;
position = "{973, 10}";
},
{
name = top;
position = "{734, 515}";
}
);
layerId = "9764FC2E-EF50-4B10-BB5F-6BAA27A55E88";
name = Regular;
paths = (
{
closed = 1;
nodes = (
"663 525 OFFCURVE",
"596 492 OFFCURVE",
"549 439 CURVE SMOOTH",
"546 436 OFFCURVE",
"543 438 OFFCURVE",
"543 442 CURVE SMOOTH",
"543 479 LINE SMOOTH",
"543 500 OFFCURVE",
"528 515 OFFCURVE",
"508 515 CURVE SMOOTH",
"488 515 OFFCURVE",
"473 500 OFFCURVE",
"473 479 CURVE SMOOTH",
"473 440 LINE SMOOTH",
"473 435 OFFCURVE",
"470 434 OFFCURVE",
"467 438 CURVE",
"433 492 OFFCURVE",
"359 525 OFFCURVE",
"292 525 CURVE SMOOTH",
"153 525 OFFCURVE",
"40 405 OFFCURVE",
"40 257 CURVE SMOOTH",
"40 110 OFFCURVE",
"153 -10 OFFCURVE",
"292 -10 CURVE SMOOTH",
"359 -10 OFFCURVE",
"433 23 OFFCURVE",
"467 77 CURVE",
"470 81 OFFCURVE",
"473 80 OFFCURVE",
"473 75 CURVE SMOOTH",
"473 36 LINE SMOOTH",
"473 15 OFFCURVE",
"487 0 OFFCURVE",
"507 0 CURVE SMOOTH",
"528 0 OFFCURVE",
"543 15 OFFCURVE",
"543 36 CURVE SMOOTH",
"543 82.0732 LINE",
"591.347 25.7272 OFFCURVE",
"663.517 -10 OFFCURVE",
"747 -10 CURVE SMOOTH",
"840 -10 OFFCURVE",
"907 28 OFFCURVE",
"939 65 CURVE SMOOTH",
"950 78 OFFCURVE",
"946 100 OFFCURVE",
"935 109 CURVE SMOOTH",
"922 120 OFFCURVE",
"905 122 OFFCURVE",
"889 109 CURVE SMOOTH",
"858 85 OFFCURVE",
"817 60 OFFCURVE",
"747 60 CURVE SMOOTH",
"645 60 OFFCURVE",
"566 131 OFFCURVE",
"552 225 CURVE",
"551 228 OFFCURVE",
"553 230 OFFCURVE",
"556 230 CURVE SMOOTH",
"958 230 LINE SMOOTH",
"979 230 OFFCURVE",
"994 246 OFFCURVE",
"994 266 CURVE SMOOTH",
"994 282 LINE SMOOTH",
"994 416 OFFCURVE",
"877 525 OFFCURVE",
"737 525 CURVE SMOOTH"
);
},
{
closed = 1;
nodes = (
"193 60 OFFCURVE",
"110 147 OFFCURVE",
"110 257 CURVE SMOOTH",
"110 368 OFFCURVE",
"193 455 OFFCURVE",
"292 455 CURVE SMOOTH",
"391 455 OFFCURVE",
"473 368 OFFCURVE",
"473 257 CURVE SMOOTH",
"473 147 OFFCURVE",
"391 60 OFFCURVE",
"292 60 CURVE SMOOTH"
);
},
{
closed = 1;
nodes = (
"559 300 LINE SMOOTH",
"555 300 OFFCURVE",
"553 302 OFFCURVE",
"554 306 CURVE SMOOTH",
"575 392 OFFCURVE",
"650 455 OFFCURVE",
"737 455 CURVE SMOOTH",
"824 455 OFFCURVE",
"899 392 OFFCURVE",
"920 306 CURVE SMOOTH",
"921 302 OFFCURVE",
"919 300 OFFCURVE",
"915 300 CURVE SMOOTH"
);
}
);
width = 1224;
}
);
leftMetricsKey = a;
rightMetricsKey = e;
unicode = 00E6;
},
{
glyphname = b;
lastChange = "2013-12-18 08:30:52 +0400";
layers = (
{
layerId = "9764FC2E-EF50-4B10-BB5F-6BAA27A55E88";
name = Regular;
paths = (
{
closed = 1;
nodes = (
"95 740 OFFCURVE",
"80 725 OFFCURVE",
"80 704 CURVE SMOOTH",
"80 36 LINE SMOOTH",
"80 15 OFFCURVE",
"95 0 OFFCURVE",
"116 0 CURVE SMOOTH",
"136 0 OFFCURVE",
"150 15 OFFCURVE",
"150 36 CURVE SMOOTH",
"150 75 LINE SMOOTH",
"150 80 OFFCURVE",
"153 81 OFFCURVE",
"156 77 CURVE SMOOTH",
"190 23 OFFCURVE",
"264 -10 OFFCURVE",
"331 -10 CURVE SMOOTH",
"470 -10 OFFCURVE",
"583 110 OFFCURVE",
"583 257 CURVE SMOOTH",
"583 405 OFFCURVE",
"470 525 OFFCURVE",
"331 525 CURVE SMOOTH",
"264 525 OFFCURVE",
"190 492 OFFCURVE",
"156 438 CURVE SMOOTH",
"153 434 OFFCURVE",
"150 435 OFFCURVE",
"150 440 CURVE SMOOTH",
"150 704 LINE SMOOTH",
"150 725 OFFCURVE",
"135 740 OFFCURVE",
"115 740 CURVE SMOOTH"
);
},
{
closed = 1;
nodes = (
"232 60 OFFCURVE",
"150 147 OFFCURVE",
"150 257 CURVE SMOOTH",
"150 368 OFFCURVE",
"232 455 OFFCURVE",
"331 455 CURVE SMOOTH",
"430 455 OFFCURVE",
"513 368 OFFCURVE",
"513 257 CURVE SMOOTH",
"513 147 OFFCURVE",
"430 60 OFFCURVE",
"331 60 CURVE SMOOTH"
);
}
);
width = 628;
}
);
leftKerningGroup = b;
rightKerningGroup = b;
unicode = 0062;
},
{
glyphname = c;
lastChange = "2013-12-18 08:30:52 +0400";
layers = (
{
anchors = (
{
name = bottom;
position = "{254, 0}";
},
{
name = top;
position = "{254, 515}";
}
);
layerId = "9764FC2E-EF50-4B10-BB5F-6BAA27A55E88";
name = Regular;
paths = (
{
closed = 1;
nodes = (
"419 512 OFFCURVE",
"371 525 OFFCURVE",
"320 525 CURVE SMOOTH",
"168 525 OFFCURVE",
"45 405 OFFCURVE",
"45 257 CURVE SMOOTH",
"45 110 OFFCURVE",
"168 -10 OFFCURVE",
"320 -10 CURVE SMOOTH",
"371 -10 OFFCURVE",
"419 3 OFFCURVE",
"460 27 CURVE SMOOTH",
"479 38 OFFCURVE",
"482 61 OFFCURVE",
"469 78 CURVE SMOOTH",
"457 93 OFFCURVE",
"439 95 OFFCURVE",
"422 86 CURVE SMOOTH",
"392 69 OFFCURVE",
"358 60 OFFCURVE",
"320 60 CURVE SMOOTH",
"206 60 OFFCURVE",
"115 149 OFFCURVE",
"115 257 CURVE SMOOTH",
"115 366 OFFCURVE",
"206 455 OFFCURVE",
"320 455 CURVE SMOOTH",
"358 455 OFFCURVE",
"392 446 OFFCURVE",
"422 429 CURVE SMOOTH",
"439 420 OFFCURVE",
"457 421 OFFCURVE",
"468 436 CURVE SMOOTH",
"482 454 OFFCURVE",
"479 477 OFFCURVE",
"460 488 CURVE SMOOTH"
);
}
);
width = 507;
}
);
leftKerningGroup = c;
rightKerningGroup = c;
unicode = 0063;
},
{
glyphname = cdotaccent;
lastChange = "2013-12-18 08:30:52 +0400";
layers = (
{
layerId = "9764FC2E-EF50-4B10-BB5F-6BAA27A55E88";
name = Regular;
paths = (
{
closed = 1;
nodes = (
"377 494 OFFCURVE",
"333 505 OFFCURVE",
"290 505 CURVE SMOOTH",
"146 505 OFFCURVE",
"29 392 OFFCURVE",
"29 250 CURVE SMOOTH",
"29 109 OFFCURVE",
"146 -5 OFFCURVE",
"290 -5 CURVE SMOOTH",
"333 -5 OFFCURVE",
"378 7 OFFCURVE",
"415 27 CURVE SMOOTH",
"437 39 OFFCURVE",
"441 66 OFFCURVE",
"426 86 CURVE SMOOTH",
"413 102 OFFCURVE",
"393 105 OFFCURVE",
"374 95 CURVE SMOOTH",
"349 82 OFFCURVE",
"320 75 OFFCURVE",
"290 75 CURVE SMOOTH",
"190 75 OFFCURVE",
"109 155 OFFCURVE",
"109 250 CURVE SMOOTH",
"109 346 OFFCURVE",
"190 425 OFFCURVE",
"290 425 CURVE SMOOTH",
"320 425 OFFCURVE",
"348 419 OFFCURVE",
"373 406 CURVE SMOOTH",
"392 397 OFFCURVE",
"412 398 OFFCURVE",
"424 414 CURVE SMOOTH",
"441 434 OFFCURVE",
"438 463 OFFCURVE",
"414 475 CURVE SMOOTH"
);
},
{
closed = 1;
nodes = (
"288 676 OFFCURVE",
"268 696 OFFCURVE",
"241 696 CURVE SMOOTH",
"214 696 OFFCURVE",
"194 676 OFFCURVE",
"194 648 CURVE SMOOTH",
"194 620 OFFCURVE",
"214 600 OFFCURVE",
"241 600 CURVE SMOOTH",
"268 600 OFFCURVE",
"288 620 OFFCURVE",
"288 648 CURVE SMOOTH"
);
}
);
width = 463;
}
);
unicode = 010B;
},
{
glyphname = d;
lastChange = "2013-12-18 08:30:52 +0400";
layers = (
{
anchors = (
{
name = center;
position = "{313, 258}";
},
{
name = topright;
position = "{606, 515}";
}
);
layerId = "9764FC2E-EF50-4B10-BB5F-6BAA27A55E88";
name = Regular;
paths = (
{
closed = 1;
nodes = (
"493 740 OFFCURVE",
"478 725 OFFCURVE",
"478 704 CURVE SMOOTH",
"478 440 LINE SMOOTH",
"478 435 OFFCURVE",
"475 434 OFFCURVE",
"472 438 CURVE SMOOTH",
"438 492 OFFCURVE",
"364 525 OFFCURVE",
"297 525 CURVE SMOOTH",
"158 525 OFFCURVE",
"45 405 OFFCURVE",
"45 257 CURVE SMOOTH",
"45 110 OFFCURVE",
"158 -10 OFFCURVE",
"297 -10 CURVE SMOOTH",
"364 -10 OFFCURVE",
"438 23 OFFCURVE",
"472 77 CURVE SMOOTH",
"475 81 OFFCURVE",
"478 80 OFFCURVE",
"478 75 CURVE SMOOTH",
"478 36 LINE SMOOTH",
"478 15 OFFCURVE",
"492 0 OFFCURVE",
"512 0 CURVE SMOOTH",
"533 0 OFFCURVE",
"548 15 OFFCURVE",
"548 36 CURVE SMOOTH",
"548 704 LINE SMOOTH",
"548 725 OFFCURVE",
"533 740 OFFCURVE",
"513 740 CURVE SMOOTH"
);
},
{
closed = 1;
nodes = (
"198 60 OFFCURVE",
"115 147 OFFCURVE",
"115 257 CURVE SMOOTH",
"115 368 OFFCURVE",
"198 455 OFFCURVE",
"297 455 CURVE SMOOTH",
"396 455 OFFCURVE",
"478 368 OFFCURVE",
"478 257 CURVE SMOOTH",
"478 147 OFFCURVE",
"396 60 OFFCURVE",
"297 60 CURVE SMOOTH"
);
}
);
width = 628;
}
);
leftKerningGroup = c;
rightKerningGroup = d;
unicode = 0064;
},
{
glyphname = eth;
lastChange = "2013-12-18 08:30:52 +0400";
layers = (
{
layerId = "9764FC2E-EF50-4B10-BB5F-6BAA27A55E88";
name = Regular;
paths = (
{
closed = 1;
nodes = (
"450 598 LINE SMOOTH",
"466 604 OFFCURVE",
"473 619 OFFCURVE",
"468 634 CURVE",
"461 651 OFFCURVE",
"445 659 OFFCURVE",
"428 653 CURVE SMOOTH",
"351 623 LINE SMOOTH",
"348 622 OFFCURVE",
"346 623 OFFCURVE",
"344 624 CURVE SMOOTH",
"304 658 OFFCURVE",
"255 684 OFFCURVE",
"196 699 CURVE SMOOTH",
"174 704 OFFCURVE",
"156 691 OFFCURVE",
"153 671 CURVE SMOOTH",
"150 650 OFFCURVE",
"162 635 OFFCURVE",
"182 630 CURVE SMOOTH",
"214 623 OFFCURVE",
"241 611 OFFCURVE",
"265 597 CURVE SMOOTH",
"269 595 OFFCURVE",
"268 592 OFFCURVE",
"264 590 CURVE SMOOTH",
"155 548 LINE SMOOTH",
"139 542 OFFCURVE",
"132 527 OFFCURVE",
"137 512 CURVE",
"144 495 OFFCURVE",
"160 487 OFFCURVE",
"177 493 CURVE SMOOTH",
"320 548 LINE SMOOTH",
"323 549 OFFCURVE",
"325 549 OFFCURVE",
"327 546 CURVE SMOOTH",
"362 508 OFFCURVE",
"385 460 OFFCURVE",
"400 413 CURVE",
"402 408 OFFCURVE",
"399 406 OFFCURVE",
"395 409 CURVE",
"360 431 OFFCURVE",
"319 445 OFFCURVE",
"274 445 CURVE SMOOTH",
"151 445 OFFCURVE",
"51 342 OFFCURVE",
"51 218 CURVE SMOOTH",
"51 93 OFFCURVE",
"151 -10 OFFCURVE",
"274 -10 CURVE SMOOTH",
"397 -10 OFFCURVE",
"491 82 OFFCURVE",
"502 208 CURVE SMOOTH",
"510 301 OFFCURVE",
"487 457 OFFCURVE",
"396 571 CURVE SMOOTH",
"394 574 OFFCURVE",
"394 577 OFFCURVE",
"398 578 CURVE SMOOTH"
);
},
{
closed = 1;
nodes = (
"189 59.9999 OFFCURVE",
"121 129 OFFCURVE",
"121 218 CURVE SMOOTH",
"121 306 OFFCURVE",
"189 375 OFFCURVE",
"274 375 CURVE SMOOTH",
"359 375 OFFCURVE",
"427 306 OFFCURVE",
"427 218 CURVE SMOOTH",
"427 129 OFFCURVE",
"359 59.9999 OFFCURVE",
"274 59.9999 CURVE SMOOTH"
);
}
);
width = 527;
}
);
leftMetricsKey = o;
rightMetricsKey = o;
unicode = 00F0;
},
{
glyphname = dcroat;
lastChange = "2013-12-18 08:30:52 +0400";
layers = (
{
anchors = (
{
name = _top;
position = "{275, 500}";
},
{
name = center;
position = "{313, 258}";
},
{
name = topright;
position = "{606, 515}";
}
);
layerId = "9764FC2E-EF50-4B10-BB5F-6BAA27A55E88";
name = Regular;
paths = (
{
closed = 1;
nodes = (
"553 627 LINE SMOOTH",
"550 627 OFFCURVE",
"548 629 OFFCURVE",
"548 632 CURVE SMOOTH",
"548 704 LINE SMOOTH",
"548 725 OFFCURVE",
"533 740 OFFCURVE",
"513 740 CURVE SMOOTH",
"493 740 OFFCURVE",
"478 725 OFFCURVE",
"478 704 CURVE SMOOTH",
"478 632 LINE SMOOTH",
"478 629 OFFCURVE",
"476 627 OFFCURVE",
"473 627 CURVE SMOOTH",
"382 627 LINE SMOOTH",
"358 627 OFFCURVE",
"341 611 OFFCURVE",
"341 596 CURVE SMOOTH",
"341 572 OFFCURVE",
"358 560 OFFCURVE",
"382 560 CURVE SMOOTH",
"473 560 LINE SMOOTH",
"476 560 OFFCURVE",
"478 558 OFFCURVE",
"478 555 CURVE SMOOTH",
"478 440 LINE SMOOTH",
"478 435 OFFCURVE",
"475 434 OFFCURVE",
"472 438 CURVE",
"438 492 OFFCURVE",
"364 525 OFFCURVE",
"297 525 CURVE SMOOTH",
"158 525 OFFCURVE",
"45 405 OFFCURVE",
"45 257 CURVE SMOOTH",
"45 110 OFFCURVE",
"158 -10 OFFCURVE",
"297 -10 CURVE SMOOTH",
"364 -10 OFFCURVE",
"438 23 OFFCURVE",
"472 77 CURVE",
"475 81 OFFCURVE",
"478 80 OFFCURVE",
"478 75 CURVE SMOOTH",
"478 36 LINE SMOOTH",
"478 15 OFFCURVE",
"492 0 OFFCURVE",
"512 0 CURVE SMOOTH",
"533 0 OFFCURVE",
"548 15 OFFCURVE",
"548 36 CURVE SMOOTH",
"548 555 LINE SMOOTH",
"548 558 OFFCURVE",
"550 560 OFFCURVE",
"553 560 CURVE SMOOTH",
"616 560 LINE SMOOTH",
"640 560 OFFCURVE",
"657 574 OFFCURVE",
"657 594 CURVE SMOOTH",
"657 613 OFFCURVE",
"640 627 OFFCURVE",
"616 627 CURVE SMOOTH"
);
},
{
closed = 1;
nodes = (
"198 60 OFFCURVE",
"115 147 OFFCURVE",
"115 257 CURVE SMOOTH",
"115 368 OFFCURVE",
"198 455 OFFCURVE",
"297 455 CURVE SMOOTH",
"396 455 OFFCURVE",
"478 368 OFFCURVE",
"478 257 CURVE SMOOTH",
"478 147 OFFCURVE",
"396 60 OFFCURVE",
"297 60 CURVE SMOOTH"
);
}
);
width = 667;
}
);
leftMetricsKey = d;
unicode = 0111;
},
{
glyphname = e;
lastChange = "2013-12-18 08:30:52 +0400";
layers = (
{
anchors = (
{
name = bottom;
position = "{300, 0}";
},
{
name = ogonek;
position = "{539, 10}";
},
{
name = top;
position = "{300, 515}";
}
);
layerId = "9764FC2E-EF50-4B10-BB5F-6BAA27A55E88";
name = Regular;
paths = (
{
closed = 1;
nodes = (
"560 282 LINE SMOOTH",
"560 416 OFFCURVE",
"443 525 OFFCURVE",
"303 525 CURVE SMOOTH",
"160 525 OFFCURVE",
"45 405 OFFCURVE",
"45 257 CURVE SMOOTH",
"45 110 OFFCURVE",
"160 -10 OFFCURVE",
"313 -10 CURVE SMOOTH",
"406 -10 OFFCURVE",
"473 28 OFFCURVE",
"505 65 CURVE SMOOTH",
"516 78 OFFCURVE",
"512 100 OFFCURVE",
"501 109 CURVE SMOOTH",
"488 120 OFFCURVE",
"471 122 OFFCURVE",
"455 109 CURVE SMOOTH",
"424 85 OFFCURVE",
"383 60 OFFCURVE",
"313 60 CURVE SMOOTH",
"211 60 OFFCURVE",
"132 131 OFFCURVE",
"118 225 CURVE SMOOTH",
"117 228 OFFCURVE",
"119 230 OFFCURVE",
"122 230 CURVE SMOOTH",
"524 230 LINE SMOOTH",
"545 230 OFFCURVE",
"560 246 OFFCURVE",
"560 266 CURVE SMOOTH"
);
},
{
closed = 1;
nodes = (
"125 300 LINE SMOOTH",
"121 300 OFFCURVE",
"119 302 OFFCURVE",
"120 306 CURVE SMOOTH",
"141 392 OFFCURVE",
"216 455 OFFCURVE",
"303 455 CURVE SMOOTH",
"390 455 OFFCURVE",
"465 392 OFFCURVE",
"486 306 CURVE SMOOTH",
"487 302 OFFCURVE",
"485 300 OFFCURVE",
"481 300 CURVE SMOOTH"
);
}
);
width = 605;
}
);
leftKerningGroup = c;
rightKerningGroup = e;
unicode = 0065;
},
{
glyphname = f;
lastChange = "2013-12-18 08:30:52 +0400";
layers = (
{
layerId = "9764FC2E-EF50-4B10-BB5F-6BAA27A55E88";
name = Regular;
paths = (
{
closed = 1;
nodes = (
"107 522 LINE SMOOTH",
"107 517 OFFCURVE",
"105 515 OFFCURVE",
"100 515 CURVE SMOOTH",
"60 515 LINE SMOOTH",
"34 515 OFFCURVE",
"25 496 OFFCURVE",
"25 480 CURVE SMOOTH",
"25 464 OFFCURVE",
"34 445 OFFCURVE",
"60 445 CURVE SMOOTH",
"100 445 LINE SMOOTH",
"105 445 OFFCURVE",
"107 443 OFFCURVE",
"107 438 CURVE SMOOTH",
"107 35 LINE SMOOTH",
"107 19 OFFCURVE",
"116 0 OFFCURVE",
"142 0 CURVE SMOOTH",
"168 0 OFFCURVE",
"177 19 OFFCURVE",
"177 35 CURVE SMOOTH",
"177 438 LINE SMOOTH",
"177 443 OFFCURVE",
"179 445 OFFCURVE",
"184 445 CURVE SMOOTH",
"267 445 LINE SMOOTH",
"293 445 OFFCURVE",
"302 464 OFFCURVE",
"302 480 CURVE SMOOTH",
"302 496 OFFCURVE",
"293 515 OFFCURVE",
"267 515 CURVE SMOOTH",
"184 515 LINE SMOOTH",
"179 515 OFFCURVE",
"177 517 OFFCURVE",
"177 522 CURVE SMOOTH",
"177 566 LINE SMOOTH",
"177 629 OFFCURVE",
"204 667 OFFCURVE",
"250 671 CURVE SMOOTH",
"276 673 OFFCURVE",
"306 669 OFFCURVE",
"306 700 CURVE SMOOTH",
"306 701 LINE SMOOTH",
"306 727 OFFCURVE",
"286 740 OFFCURVE",
"260 740 CURVE SMOOTH",
"201 740 OFFCURVE",
"107 698 OFFCURVE",
"107 586 CURVE SMOOTH"
);
}
);
width = 326;
}
);
leftKerningGroup = f;
rightKerningGroup = f;
unicode = 0066;
},
{
glyphname = g;
lastChange = "2013-12-18 08:30:52 +0400";
layers = (
{
anchors = (
{
name = top;
position = "{313, 515}";
}
);
layerId = "9764FC2E-EF50-4B10-BB5F-6BAA27A55E88";
name = Regular;
paths = (
{
closed = 1;
nodes = (
"478 440 LINE SMOOTH",
"478 435 OFFCURVE",
"475 434 OFFCURVE",
"472 438 CURVE",
"438 492 OFFCURVE",
"364 525 OFFCURVE",
"297 525 CURVE SMOOTH",
"158 525 OFFCURVE",
"45 405 OFFCURVE",
"45 258 CURVE SMOOTH",
"45 110 OFFCURVE",
"158 -10 OFFCURVE",
"297 -10 CURVE SMOOTH",
"364 -10 OFFCURVE",
"438 23 OFFCURVE",
"472 77 CURVE",
"475 81 OFFCURVE",
"478 80 OFFCURVE",
"478 75 CURVE SMOOTH",
"478 4 LINE SMOOTH",
"478 -104 OFFCURVE",
"382 -140 OFFCURVE",
"314 -140 CURVE SMOOTH",
"249 -140 OFFCURVE",
"206 -122 OFFCURVE",
"179 -102 CURVE SMOOTH",
"162 -89 OFFCURVE",
"142 -96 OFFCURVE",
"132 -110 CURVE SMOOTH",
"121 -125 OFFCURVE",
"128 -146 OFFCURVE",
"138 -155 CURVE SMOOTH",
"172 -186 OFFCURVE",
"243 -210 OFFCURVE",
"314 -210 CURVE SMOOTH",
"420 -210 OFFCURVE",
"548 -140 OFFCURVE",
"548 4 CURVE SMOOTH",
"548 479 LINE SMOOTH",
"548 500 OFFCURVE",
"533 515 OFFCURVE",
"512 515 CURVE SMOOTH",
"492 515 OFFCURVE",
"478 500 OFFCURVE",
"478 479 CURVE SMOOTH"
);
},
{
closed = 1;
nodes = (
"198 60 OFFCURVE",
"115 147 OFFCURVE",
"115 258 CURVE SMOOTH",
"115 368 OFFCURVE",
"198 455 OFFCURVE",
"297 455 CURVE SMOOTH",
"396 455 OFFCURVE",
"478 368 OFFCURVE",
"478 258 CURVE SMOOTH",
"478 147 OFFCURVE",
"396 60 OFFCURVE",
"297 60 CURVE SMOOTH"
);
}
);
width = 628;
}
);
leftKerningGroup = g;
rightKerningGroup = g;
unicode = 0067;
},
{
glyphname = h;
lastChange = "2013-12-18 08:30:52 +0400";
layers = (
{
anchors = (
{
name = center;
position = "{285, 258}";
},
{
name = top;
position = "{285, 515}";
}
);
layerId = "9764FC2E-EF50-4B10-BB5F-6BAA27A55E88";
name = Regular;
paths = (
{
closed = 1;
nodes = (
"150 704 LINE SMOOTH",
"150 725 OFFCURVE",
"136 740 OFFCURVE",
"116 740 CURVE SMOOTH",
"95 740 OFFCURVE",
"80 725 OFFCURVE",
"80 704 CURVE SMOOTH",
"80 36 LINE SMOOTH",
"80 15 OFFCURVE",
"94 0 OFFCURVE",
"114 0 CURVE SMOOTH",
"135 0 OFFCURVE",
"150 15 OFFCURVE",
"150 36 CURVE SMOOTH",
"150 317 LINE SMOOTH",
"150 394 OFFCURVE",
"221 455 OFFCURVE",
"298 455 CURVE SMOOTH",
"374 455 OFFCURVE",
"426 394 OFFCURVE",
"426 317 CURVE SMOOTH",
"426 36 LINE SMOOTH",
"426 15 OFFCURVE",
"440 0 OFFCURVE",
"460 0 CURVE SMOOTH",
"481 0 OFFCURVE",
"496 15 OFFCURVE",
"496 36 CURVE SMOOTH",
"496 317 LINE SMOOTH",
"496 432 OFFCURVE",
"423 525 OFFCURVE",
"308 525 CURVE SMOOTH",
"234 525 OFFCURVE",
"175 476 OFFCURVE",
"155 447 CURVE SMOOTH",
"153 443 OFFCURVE",
"150 444 OFFCURVE",
"150 449 CURVE SMOOTH"
);
}
);
width = 566;
}
);
leftKerningGroup = b;
rightKerningGroup = h;
unicode = 0068;
},
{
glyphname = hbar;
lastChange = "2013-12-18 08:30:52 +0400";
layers = (
{
anchors = (
{
name = center;
position = "{304, 258}";
},
{
name = top;
position = "{304, 515}";
}
);
layerId = "9764FC2E-EF50-4B10-BB5F-6BAA27A55E88";
name = Regular;
paths = (
{
closed = 1;
nodes = (
"253 525 OFFCURVE",
"194 476 OFFCURVE",
"174 447 CURVE",
"172 443 OFFCURVE",
"169 444 OFFCURVE",
"169 449 CURVE SMOOTH",
"169 578 LINE SMOOTH",
"169 581 OFFCURVE",
"171 583 OFFCURVE",
"174 583 CURVE SMOOTH",
"298 583 LINE SMOOTH",
"319 583 OFFCURVE",
"334 598 OFFCURVE",
"334 618 CURVE SMOOTH",
"334 638 OFFCURVE",
"319 653 OFFCURVE",
"298 653 CURVE SMOOTH",
"174 653 LINE SMOOTH",
"171 653 OFFCURVE",
"169 655 OFFCURVE",
"169 658 CURVE SMOOTH",
"169 704 LINE SMOOTH",
"169 725 OFFCURVE",
"155 740 OFFCURVE",
"135 740 CURVE SMOOTH",
"114 740 OFFCURVE",
"99 725 OFFCURVE",
"99 704 CURVE SMOOTH",
"99 658 LINE SMOOTH",
"99 655 OFFCURVE",
"97 653 OFFCURVE",
"94 653 CURVE SMOOTH",
"46 653 LINE SMOOTH",
"25 653 OFFCURVE",
"10 638 OFFCURVE",
"10 618 CURVE SMOOTH",
"10 598 OFFCURVE",
"25 583 OFFCURVE",
"46 583 CURVE SMOOTH",
"94 583 LINE SMOOTH",
"97 583 OFFCURVE",
"99 581 OFFCURVE",
"99 578 CURVE SMOOTH",
"99 36 LINE SMOOTH",
"99 15 OFFCURVE",
"113 0 OFFCURVE",
"133 0 CURVE SMOOTH",
"154 0 OFFCURVE",
"169 15 OFFCURVE",
"169 36 CURVE SMOOTH",
"169 317 LINE SMOOTH",
"169 394 OFFCURVE",
"240 455 OFFCURVE",
"317 455 CURVE SMOOTH",
"393 455 OFFCURVE",
"445 394 OFFCURVE",
"445 317 CURVE SMOOTH",
"445 36 LINE SMOOTH",
"445 15 OFFCURVE",
"459 0 OFFCURVE",
"479 0 CURVE SMOOTH",
"500 0 OFFCURVE",
"515 15 OFFCURVE",
"515 36 CURVE SMOOTH",
"515 317 LINE SMOOTH",
"515 432 OFFCURVE",
"442 525 OFFCURVE",
"327 525 CURVE SMOOTH"
);
}
);
width = 587;
}
);
rightMetricsKey = h;
unicode = 0127;
},
{
glyphname = i;
lastChange = "2013-12-18 08:30:52 +0400";
layers = (
{
components = (
{
name = dotlessi;
transform = "{1, 0, 0, 1, 2, 0}";
}
);
layerId = "9764FC2E-EF50-4B10-BB5F-6BAA27A55E88";
name = Regular;
paths = (
{
closed = 1;
nodes = (
"150 704 LINE SMOOTH",
"150 725 OFFCURVE",
"135 740 OFFCURVE",
"115 740 CURVE SMOOTH",
"95 740 OFFCURVE",
"80 725 OFFCURVE",
"80 704 CURVE SMOOTH",
"80 658 LINE SMOOTH",
"80 637 OFFCURVE",
"95 622 OFFCURVE",
"115 622 CURVE SMOOTH",
"135 622 OFFCURVE",
"150 637 OFFCURVE",
"150 658 CURVE SMOOTH"
);
}
);
width = 230;
}
);
leftKerningGroup = i;
rightKerningGroup = i;
unicode = 0069;
},
{
glyphname = dotlessi;
lastChange = "2013-12-18 08:30:52 +0400";
layers = (
{
layerId = "9764FC2E-EF50-4B10-BB5F-6BAA27A55E88";
name = Regular;
paths = (
{
closed = 1;
nodes = (
"148 479 LINE SMOOTH",
"148 500 OFFCURVE",
"133 515 OFFCURVE",
"113 515 CURVE SMOOTH",
"93 515 OFFCURVE",
"78 500 OFFCURVE",
"78 479 CURVE SMOOTH",
"78 36 LINE SMOOTH",
"78 15 OFFCURVE",
"93 0 OFFCURVE",
"113 0 CURVE SMOOTH",
"133 0 OFFCURVE",
"148 15 OFFCURVE",
"148 36 CURVE SMOOTH"
);
}
);
width = 226;
}
);
unicode = 0131;
},
{
glyphname = j;
lastChange = "2013-12-18 08:30:52 +0400";
layers = (
{
layerId = "9764FC2E-EF50-4B10-BB5F-6BAA27A55E88";
name = Regular;
paths = (
{
closed = 1;
nodes = (
"78 658 LINE SMOOTH",
"78 637 OFFCURVE",
"93 622 OFFCURVE",
"113 622 CURVE SMOOTH",
"133 622 OFFCURVE",
"148 637 OFFCURVE",
"148 658 CURVE SMOOTH",
"148 704 LINE SMOOTH",
"148 725 OFFCURVE",
"133 740 OFFCURVE",
"113 740 CURVE SMOOTH",
"93 740 OFFCURVE",
"78 725 OFFCURVE",
"78 704 CURVE SMOOTH"
);
},
{
closed = 1;
nodes = (
"78 -62 LINE SMOOTH",
"78 -120 OFFCURVE",
"47 -125 OFFCURVE",
"18 -129 CURVE SMOOTH",
"-1 -132 OFFCURVE",
"-15 -144 OFFCURVE",
"-15 -164 CURVE SMOOTH",
"-15 -166 LINE SMOOTH",
"-15 -186 OFFCURVE",
"1 -201 OFFCURVE",
"22 -200 CURVE SMOOTH",
"83 -195 OFFCURVE",
"148 -170 OFFCURVE",
"148 -62 CURVE SMOOTH",
"148 479 LINE SMOOTH",
"148 500 OFFCURVE",
"133 515 OFFCURVE",
"113 515 CURVE SMOOTH",
"93 515 OFFCURVE",
"78 500 OFFCURVE",
"78 479 CURVE SMOOTH"
);
}
);
width = 228;
}
);
leftKerningGroup = j;
rightKerningGroup = j;
unicode = 006A;
},
{
glyphname = dotlessj;
lastChange = "2013-12-18 08:30:52 +0400";
layers = (
{
layerId = "9764FC2E-EF50-4B10-BB5F-6BAA27A55E88";
name = Regular;
paths = (
{
closed = 1;
nodes = (
"120 -198 OFFCURVE",
"214 -168 OFFCURVE",
"214 -46 CURVE SMOOTH",
"214 460 LINE SMOOTH",
"214 486 OFFCURVE",
"200 500 OFFCURVE",
"174 500 CURVE SMOOTH",
"148 500 OFFCURVE",
"134 486 OFFCURVE",
"134 460 CURVE SMOOTH",
"134 -26 LINE SMOOTH",
"134 -89 OFFCURVE",
"116 -115 OFFCURVE",
"70 -119 CURVE SMOOTH",
"44 -121 OFFCURVE",
"15 -127 OFFCURVE",
"15 -158 CURVE SMOOTH",
"15 -159 LINE SMOOTH",
"15 -185 OFFCURVE",
"35 -198 OFFCURVE",
"61 -198 CURVE SMOOTH"
);
}
);
width = 229;
}
);
unicode = 0237;
},
{
glyphname = k;
lastChange = "2013-12-18 08:30:52 +0400";
layers = (
{
anchors = (
{
name = bottom;
position = "{256, 0}";
}
);
layerId = "9764FC2E-EF50-4B10-BB5F-6BAA27A55E88";
name = Regular;
paths = (
{
closed = 1;
nodes = (
"292 276 LINE SMOOTH",
"290 279 OFFCURVE",
"290 281 OFFCURVE",
"292 283 CURVE SMOOTH",
"493 463 LINE SMOOTH",
"508 477 OFFCURVE",
"509 498 OFFCURVE",
"496 513 CURVE SMOOTH",
"483 528 OFFCURVE",
"462 529 OFFCURVE",
"446 515 CURVE SMOOTH",
"156 256 LINE SMOOTH",
"153 253 OFFCURVE",
"150 255 OFFCURVE",
"150 259 CURVE SMOOTH",
"150 704 LINE SMOOTH",
"150 725 OFFCURVE",
"136 740 OFFCURVE",
"116 740 CURVE SMOOTH",
"95 740 OFFCURVE",
"80 725 OFFCURVE",
"80 704 CURVE SMOOTH",
"80 36 LINE SMOOTH",
"80 15 OFFCURVE",
"94 0 OFFCURVE",
"114 0 CURVE SMOOTH",
"135 0 OFFCURVE",
"150 15 OFFCURVE",
"150 36 CURVE SMOOTH",
"150 155 LINE SMOOTH",
"150 157 OFFCURVE",
"151 159 OFFCURVE",
"153 161 CURVE SMOOTH",
"232 230 LINE SMOOTH",
"235 232 OFFCURVE",
"237 232 OFFCURVE",
"239 230 CURVE SMOOTH",
"442 12 LINE SMOOTH",
"456 -3 OFFCURVE",
"477 -5 OFFCURVE",
"492 9 CURVE SMOOTH",
"507 23 OFFCURVE",
"508 44 OFFCURVE",
"494 59 CURVE SMOOTH"
);
}
);
width = 515.054;
}
);
leftKerningGroup = b;
rightKerningGroup = k;
unicode = 006B;
},
{
glyphname = l;
lastChange = "2013-12-18 08:30:52 +0400";
layers = (
{
anchors = (
{
name = bottom;
position = "{115, 0}";
},
{
name = top;
position = "{115, 515}";
},
{
name = topright;
position = "{211, 515}";
}
);
layerId = "9764FC2E-EF50-4B10-BB5F-6BAA27A55E88";
name = Regular;
paths = (
{
closed = 1;
nodes = (
"150 704 LINE SMOOTH",
"150 725 OFFCURVE",
"136 740 OFFCURVE",
"116 740 CURVE SMOOTH",
"95 740 OFFCURVE",
"80 725 OFFCURVE",
"80 704 CURVE SMOOTH",
"80 36 LINE SMOOTH",
"80 15 OFFCURVE",
"94 0 OFFCURVE",
"114 0 CURVE SMOOTH",
"135 0 OFFCURVE",
"150 15 OFFCURVE",
"150 36 CURVE SMOOTH"
);
}
);
width = 230;
}
);
leftKerningGroup = b;
rightKerningGroup = l;
unicode = 006C;
},
{
glyphname = lslash;
lastChange = "2013-12-18 08:30:52 +0400";
layers = (
{
anchors = (
{
name = bottom;
position = "{173, 0}";
},
{
name = top;
position = "{173, 515}";
},
{
name = topright;
position = "{269, 515}";
}
);
layerId = "9764FC2E-EF50-4B10-BB5F-6BAA27A55E88";
name = Regular;
paths = (
{
closed = 1;
nodes = (
"309 460 OFFCURVE",
"290 469 OFFCURVE",
"270 460 CURVE SMOOTH",
"214 435 LINE SMOOTH",
"210 433 OFFCURVE",
"208 435 OFFCURVE",
"208 439 CURVE SMOOTH",
"208 704 LINE SMOOTH",
"208 725 OFFCURVE",
"194 740 OFFCURVE",
"174 740 CURVE SMOOTH",
"153 740 OFFCURVE",
"138 725 OFFCURVE",
"138 704 CURVE SMOOTH",
"138 405 LINE SMOOTH",
"138 402 OFFCURVE",
"137 400 OFFCURVE",
"134 399 CURVE SMOOTH",
"69 370 LINE SMOOTH",
"49 361 OFFCURVE",
"42 342 OFFCURVE",
"50 324 CURVE SMOOTH",
"58 306 OFFCURVE",
"78 298 OFFCURVE",
"97 306 CURVE SMOOTH",
"132 322 LINE SMOOTH",
"136 323 OFFCURVE",
"138 322 OFFCURVE",
"138 318 CURVE SMOOTH",
"138 36 LINE SMOOTH",
"138 15 OFFCURVE",
"152 0 OFFCURVE",
"172 0 CURVE SMOOTH",
"193 0 OFFCURVE",
"208 15 OFFCURVE",
"208 36 CURVE SMOOTH",
"208 351 LINE SMOOTH",
"208 354 OFFCURVE",
"209 356 OFFCURVE",
"212 357 CURVE SMOOTH",
"298 395 LINE SMOOTH",
"317 403 OFFCURVE",
"325 423 OFFCURVE",
"317 441 CURVE SMOOTH"
);
}
);
width = 351;
}
);
unicode = 0142;
},
{
glyphname = m;
lastChange = "2013-12-18 08:30:52 +0400";
layers = (
{
layerId = "9764FC2E-EF50-4B10-BB5F-6BAA27A55E88";
name = Regular;
paths = (
{
closed = 1;
nodes = (
"150 479 LINE SMOOTH",
"150 500 OFFCURVE",
"136 515 OFFCURVE",
"116 515 CURVE SMOOTH",
"95 515 OFFCURVE",
"80 500 OFFCURVE",
"80 479 CURVE SMOOTH",
"80 36 LINE SMOOTH",
"80 15 OFFCURVE",
"94 0 OFFCURVE",
"114 0 CURVE SMOOTH",
"135 0 OFFCURVE",
"150 15 OFFCURVE",
"150 36 CURVE SMOOTH",
"150 317 LINE SMOOTH",
"150 394 OFFCURVE",
"221 455 OFFCURVE",
"298 455 CURVE SMOOTH",
"374 455 OFFCURVE",
"426 394 OFFCURVE",
"426 317 CURVE SMOOTH",
"426 36 LINE SMOOTH",
"426 15 OFFCURVE",
"440 0 OFFCURVE",
"460 0 CURVE SMOOTH",
"461 0 LINE SMOOTH",
"482 0 OFFCURVE",
"496 15 OFFCURVE",
"496 36 CURVE SMOOTH",
"496 317 LINE SMOOTH",
"496 393 OFFCURVE",
"558 455 OFFCURVE",
"649 455 CURVE SMOOTH",
"725 455 OFFCURVE",
"772 393 OFFCURVE",
"772 317 CURVE SMOOTH",
"772 36 LINE SMOOTH",
"772 15 OFFCURVE",
"787 0 OFFCURVE",
"807 0 CURVE SMOOTH",
"827 0 OFFCURVE",
"842 15 OFFCURVE",
"842 36 CURVE SMOOTH",
"842 317 LINE SMOOTH",
"842 432 OFFCURVE",
"764 525 OFFCURVE",
"649 525 CURVE SMOOTH",
"576 525 OFFCURVE",
"514 486 OFFCURVE",
"475 431 CURVE SMOOTH",
"472 428 OFFCURVE",
"470 428 OFFCURVE",
"468 432 CURVE SMOOTH",
"436 488 OFFCURVE",
"381 525 OFFCURVE",
"308 525 CURVE SMOOTH",
"234 525 OFFCURVE",
"175 476 OFFCURVE",
"155 447 CURVE SMOOTH",
"153 443 OFFCURVE",
"150 444 OFFCURVE",
"150 449 CURVE SMOOTH"
);
}
);
width = 912;
}
);
leftKerningGroup = m;
rightKerningGroup = h;
unicode = 006D;
},
{
glyphname = n;
lastChange = "2013-12-18 08:30:52 +0400";
layers = (
{
anchors = (
{
name = bottom;
position = "{285, 0}";
},
{
name = top;
position = "{285, 515}";
}
);
layerId = "9764FC2E-EF50-4B10-BB5F-6BAA27A55E88";
name = Regular;
paths = (
{
closed = 1;
nodes = (
"150 479 LINE SMOOTH",
"150 500 OFFCURVE",
"136 515 OFFCURVE",
"116 515 CURVE SMOOTH",
"95 515 OFFCURVE",
"80 500 OFFCURVE",
"80 479 CURVE SMOOTH",
"80 36 LINE SMOOTH",
"80 15 OFFCURVE",
"94 0 OFFCURVE",
"114 0 CURVE SMOOTH",
"135 0 OFFCURVE",
"150 15 OFFCURVE",
"150 36 CURVE SMOOTH",
"150 317 LINE SMOOTH",
"150 394 OFFCURVE",
"221 455 OFFCURVE",
"298 455 CURVE SMOOTH",
"374 455 OFFCURVE",
"426 394 OFFCURVE",
"426 317 CURVE SMOOTH",
"426 36 LINE SMOOTH",
"426 15 OFFCURVE",
"440 0 OFFCURVE",
"460 0 CURVE SMOOTH",
"481 0 OFFCURVE",
"496 15 OFFCURVE",
"496 36 CURVE SMOOTH",
"496 317 LINE SMOOTH",
"496 432 OFFCURVE",
"423 525 OFFCURVE",
"308 525 CURVE SMOOTH",
"234 525 OFFCURVE",
"175 476 OFFCURVE",
"155 447 CURVE SMOOTH",
"153 443 OFFCURVE",
"150 444 OFFCURVE",
"150 449 CURVE SMOOTH"
);
}
);
width = 566;
}
);
leftKerningGroup = m;
rightKerningGroup = h;
unicode = 006E;
},
{
glyphname = eng;
lastChange = "2013-12-18 08:30:52 +0400";
layers = (
{
anchors = (
{
name = bottom;
position = "{283, 0}";
},
{
name = top;
position = "{283, 515}";
}
);
layerId = "9764FC2E-EF50-4B10-BB5F-6BAA27A55E88";
name = Regular;
paths = (
{
closed = 1;
nodes = (
"232 525 OFFCURVE",
"173 476 OFFCURVE",
"153 447 CURVE",
"151 443 OFFCURVE",
"148 444 OFFCURVE",
"148 449 CURVE SMOOTH",
"148 479 LINE SMOOTH",
"148 500 OFFCURVE",
"134 515 OFFCURVE",
"114 515 CURVE SMOOTH",
"93 515 OFFCURVE",
"78 500 OFFCURVE",
"78 479 CURVE SMOOTH",
"78 36 LINE SMOOTH",
"78 15 OFFCURVE",
"92 0 OFFCURVE",
"112 0 CURVE SMOOTH",
"133 0 OFFCURVE",
"148 15 OFFCURVE",
"148 36 CURVE SMOOTH",
"148 317 LINE SMOOTH",
"148 394 OFFCURVE",
"219 455 OFFCURVE",
"296 455 CURVE SMOOTH",
"372 455 OFFCURVE",
"424 394 OFFCURVE",
"424 317 CURVE SMOOTH",
"424 36 LINE",
"424 -41 LINE SMOOTH",
"424 -102 OFFCURVE",
"391 -131 OFFCURVE",
"319 -131 CURVE SMOOTH",
"295 -131 OFFCURVE",
"282 -149 OFFCURVE",
"282 -165 CURVE SMOOTH",
"282 -185 OFFCURVE",
"294 -200 OFFCURVE",
"315 -200 CURVE SMOOTH",
"394 -200 OFFCURVE",
"494 -166 OFFCURVE",
"494 -60 CURVE SMOOTH",
"494 36 LINE",
"494 317 LINE SMOOTH",
"494 432 OFFCURVE",
"421 525 OFFCURVE",
"306 525 CURVE SMOOTH"
);
}
);
width = 566;
}
);
leftMetricsKey = n;
rightMetricsKey = n;
unicode = 014B;
},
{
glyphname = o;
lastChange = "2013-12-18 08:30:52 +0400";
layers = (
{
anchors = (
{
name = top;
position = "{290, 515}";
}
);
layerId = "9764FC2E-EF50-4B10-BB5F-6BAA27A55E88";
name = Regular;
paths = (
{
closed = 1;
nodes = (
"473 147 OFFCURVE",
"390 60 OFFCURVE",
"291 60 CURVE",
"192 60 OFFCURVE",
"110 147 OFFCURVE",
"110 257 CURVE",
"110 367 OFFCURVE",
"192 455 OFFCURVE",
"291 455 CURVE",
"390 455 OFFCURVE",
"473 367 OFFCURVE",
"473 257 CURVE"
);
},
{
closed = 1;
nodes = (
"543 405 OFFCURVE",
"430 525 OFFCURVE",
"291 525 CURVE",
"152 525 OFFCURVE",
"40 405 OFFCURVE",
"40 257 CURVE",
"40 109 OFFCURVE",
"152 -10 OFFCURVE",
"291 -10 CURVE",
"430 -10 OFFCURVE",
"543 109 OFFCURVE",
"543 257 CURVE"
);
}
);
width = 583;
}
);
leftKerningGroup = c;
rightKerningGroup = b;
unicode = 006F;
},
{
glyphname = oslash;
lastChange = "2013-12-18 08:30:52 +0400";
layers = (
{
anchors = (
{
name = top;
position = "{283, 509}";
}
);
layerId = "9764FC2E-EF50-4B10-BB5F-6BAA27A55E88";
name = Regular;
paths = (
{
closed = 1;
nodes = (
"523 486 LINE SMOOTH",
"536 502 OFFCURVE",
"535 522 OFFCURVE",
"520 535 CURVE",
"505 549 OFFCURVE",
"483 547 OFFCURVE",
"470 531 CURVE SMOOTH",
"428 482 LINE SMOOTH",
"426 479 OFFCURVE",
"423 479 OFFCURVE",
"421 481 CURVE SMOOTH",
"381 509 OFFCURVE",
"333 525 OFFCURVE",
"282 525 CURVE SMOOTH",
"143 525 OFFCURVE",
"31 405 OFFCURVE",
"31 257 CURVE SMOOTH",
"31 193 OFFCURVE",
"52 134 OFFCURVE",
"87 89 CURVE SMOOTH",
"89 86 OFFCURVE",
"89 84 OFFCURVE",
"87 82 CURVE SMOOTH",
"42 29 LINE SMOOTH",
"29 13 OFFCURVE",
"30 -7 OFFCURVE",
"45 -20 CURVE",
"60 -34 OFFCURVE",
"82 -32 OFFCURVE",
"95 -16 CURVE SMOOTH",
"137 33 LINE SMOOTH",
"139 35 OFFCURVE",
"141 36 OFFCURVE",
"144 34 CURVE SMOOTH",
"183 6 OFFCURVE",
"231 -10 OFFCURVE",
"282 -10 CURVE SMOOTH",
"421 -10 OFFCURVE",
"534 109 OFFCURVE",
"534 257 CURVE SMOOTH",
"534 321 OFFCURVE",
"513 380 OFFCURVE",
"478 426 CURVE SMOOTH",
"476 428 OFFCURVE",
"476 431 OFFCURVE",
"478 433 CURVE SMOOTH"
);
},
{
closed = 1;
nodes = (
"101 367 OFFCURVE",
"183 455 OFFCURVE",
"282 455 CURVE SMOOTH",
"316 455 OFFCURVE",
"347 445 OFFCURVE",
"375 427 CURVE SMOOTH",
"377 425 OFFCURVE",
"378 423 OFFCURVE",
"376 420 CURVE SMOOTH",
"140 144 LINE SMOOTH",
"138 141 OFFCURVE",
"135 142 OFFCURVE",
"133 145 CURVE SMOOTH",
"113 176 OFFCURVE",
"101 215 OFFCURVE",
"101 257 CURVE SMOOTH"
);
},
{
closed = 1;
nodes = (
"249 60 OFFCURVE",
"217 70 OFFCURVE",
"190 87 CURVE SMOOTH",
"187 89 OFFCURVE",
"187 92 OFFCURVE",
"189 94 CURVE SMOOTH",
"424 370 LINE SMOOTH",
"427 373 OFFCURVE",
"429 373 OFFCURVE",
"431 370 CURVE SMOOTH",
"452 338 OFFCURVE",
"464 299 OFFCURVE",
"464 257 CURVE SMOOTH",
"464 147 OFFCURVE",
"381 59.9998 OFFCURVE",
"282 59.9998 CURVE SMOOTH"
);
}
);
width = 591;
}
);
leftMetricsKey = o;
rightMetricsKey = o;
unicode = 00F8;
},
{
glyphname = oe;
lastChange = "2013-12-18 08:30:52 +0400";
layers = (
{
anchors = (
{
name = bottom;
position = "{733, 0}";
},
{
name = ogonek;
position = "{972, 10}";
},
{
name = top;
position = "{296, 515}";
}
);
layerId = "9764FC2E-EF50-4B10-BB5F-6BAA27A55E88";
name = Regular;
paths = (
{
closed = 1;
nodes = (
"643 525 OFFCURVE",
"561 474 OFFCURVE",
"516 397 CURVE SMOOTH",
"514 394 OFFCURVE",
"511 394 OFFCURVE",
"509 398 CURVE SMOOTH",
"465 474 OFFCURVE",
"386 525 OFFCURVE",
"295 525 CURVE SMOOTH",
"156 525 OFFCURVE",
"44 405 OFFCURVE",
"44 257 CURVE SMOOTH",
"44 109 OFFCURVE",
"156 -10 OFFCURVE",
"295 -10 CURVE SMOOTH",
"386 -10 OFFCURVE",
"465 41 OFFCURVE",
"510 117 CURVE SMOOTH",
"512 121 OFFCURVE",
"515 121 OFFCURVE",
"517 117 CURVE SMOOTH",
"563 41 OFFCURVE",
"646 -10 OFFCURVE",
"746 -10 CURVE SMOOTH",
"839 -10 OFFCURVE",
"906 28 OFFCURVE",
"938 65 CURVE SMOOTH",
"949 78 OFFCURVE",
"945 100 OFFCURVE",
"934 109 CURVE SMOOTH",
"921 120 OFFCURVE",
"904 122 OFFCURVE",
"888 109 CURVE SMOOTH",
"857 85 OFFCURVE",
"816 60 OFFCURVE",
"746 60 CURVE SMOOTH",
"644 60 OFFCURVE",
"565 131 OFFCURVE",
"551 225 CURVE",
"550 228 OFFCURVE",
"552 230 OFFCURVE",
"555 230 CURVE SMOOTH",
"957 230 LINE SMOOTH",
"978 230 OFFCURVE",
"993 246 OFFCURVE",
"993 266 CURVE SMOOTH",
"993 282 LINE SMOOTH",
"993 416 OFFCURVE",
"876 525 OFFCURVE",
"736 525 CURVE SMOOTH"
);
},
{
closed = 1;
nodes = (
"196 60 OFFCURVE",
"114 147 OFFCURVE",
"114 257 CURVE SMOOTH",
"114 367 OFFCURVE",
"196 455 OFFCURVE",
"295 455 CURVE SMOOTH",
"394 455 OFFCURVE",
"477 367 OFFCURVE",
"477 257 CURVE SMOOTH",
"477 147 OFFCURVE",
"394 60 OFFCURVE",
"295 60 CURVE SMOOTH"
);
},
{
closed = 1;
nodes = (
"558 300 LINE SMOOTH",
"554 300 OFFCURVE",
"552 302 OFFCURVE",
"553 306 CURVE SMOOTH",
"574 392 OFFCURVE",
"649 455 OFFCURVE",
"736 455 CURVE SMOOTH",
"823 455 OFFCURVE",
"898 392 OFFCURVE",
"919 306 CURVE SMOOTH",
"920 302 OFFCURVE",
"918 300 OFFCURVE",
"914 300 CURVE SMOOTH"
);
}
);
width = 1189;
}
);
leftMetricsKey = o;
rightMetricsKey = e;
unicode = 0153;
},
{
glyphname = p;
lastChange = "2013-12-18 08:30:52 +0400";
layers = (
{
layerId = "9764FC2E-EF50-4B10-BB5F-6BAA27A55E88";
name = Regular;
paths = (
{
closed = 1;
nodes = (
"135 -200 OFFCURVE",
"150 -185 OFFCURVE",
"150 -164 CURVE SMOOTH",
"150 75 LINE SMOOTH",
"150 80 OFFCURVE",
"153 81 OFFCURVE",
"156 77 CURVE SMOOTH",
"190 23 OFFCURVE",
"264 -10 OFFCURVE",
"331 -10 CURVE SMOOTH",
"470 -10 OFFCURVE",
"583 110 OFFCURVE",
"583 258 CURVE SMOOTH",
"583 405 OFFCURVE",
"470 525 OFFCURVE",
"331 525 CURVE SMOOTH",
"264 525 OFFCURVE",
"190 492 OFFCURVE",
"156 438 CURVE SMOOTH",
"153 434 OFFCURVE",
"150 435 OFFCURVE",
"150 440 CURVE SMOOTH",
"150 479 LINE SMOOTH",
"150 500 OFFCURVE",
"136 515 OFFCURVE",
"116 515 CURVE SMOOTH",
"95 515 OFFCURVE",
"80 500 OFFCURVE",
"80 479 CURVE SMOOTH",
"80 -164 LINE SMOOTH",
"80 -185 OFFCURVE",
"95 -200 OFFCURVE",
"115 -200 CURVE SMOOTH"
);
},
{
closed = 1;
nodes = (
"430 455 OFFCURVE",
"513 368 OFFCURVE",
"513 258 CURVE SMOOTH",
"513 147 OFFCURVE",
"430 60 OFFCURVE",
"331 60 CURVE SMOOTH",
"232 60 OFFCURVE",
"150 147 OFFCURVE",
"150 258 CURVE SMOOTH",
"150 368 OFFCURVE",
"232 455 OFFCURVE",
"331 455 CURVE SMOOTH"
);
}
);
width = 628;
}
);
leftKerningGroup = p;
rightKerningGroup = b;
unicode = 0070;
},
{
glyphname = thorn;
lastChange = "2013-12-18 08:30:52 +0400";
layers = (
{
anchors = (
{
name = bottom;
position = "{74, 0}";
},
{
name = top;
position = "{291, 628}";
},
{
name = topright;
position = "{170, 515}";
}
);
layerId = "9764FC2E-EF50-4B10-BB5F-6BAA27A55E88";
name = Regular;
paths = (
{
closed = 1;
nodes = (
"222 638 OFFCURVE",
"160 609 OFFCURVE",
"115 562 CURVE SMOOTH",
"112 559 OFFCURVE",
"109 560 OFFCURVE",
"109 565 CURVE SMOOTH",
"109 704 LINE SMOOTH",
"109 725 OFFCURVE",
"95 740 OFFCURVE",
"75 740 CURVE SMOOTH",
"54 740 OFFCURVE",
"39 725 OFFCURVE",
"39 704 CURVE SMOOTH",
"39 36 LINE SMOOTH",
"39 15 OFFCURVE",
"53 0 OFFCURVE",
"73 0 CURVE SMOOTH",
"94 0 OFFCURVE",
"109 15 OFFCURVE",
"109 36 CURVE SMOOTH",
"109 176 LINE SMOOTH",
"109 180 OFFCURVE",
"112 181 OFFCURVE",
"115 178 CURVE SMOOTH",
"160 132 OFFCURVE",
"222 103 OFFCURVE",
"290 103 CURVE SMOOTH",
"429 103 OFFCURVE",
"542 222 OFFCURVE",
"542 370 CURVE SMOOTH",
"542 518 OFFCURVE",
"429 638 OFFCURVE",
"290 638 CURVE SMOOTH"
);
},
{
closed = 1;
nodes = (
"191 173 OFFCURVE",
"109 260 OFFCURVE",
"109 370 CURVE SMOOTH",
"109 480 OFFCURVE",
"191 568 OFFCURVE",
"290 568 CURVE SMOOTH",
"389 568 OFFCURVE",
"472 480 OFFCURVE",
"472 370 CURVE SMOOTH",
"472 260 OFFCURVE",
"389 173 OFFCURVE",
"290 173 CURVE SMOOTH"
);
}
);
width = 591;
}
);
leftMetricsKey = l;
rightMetricsKey = o;
unicode = 00FE;
},
{
glyphname = q;
lastChange = "2013-12-18 08:30:52 +0400";
layers = (
{
layerId = "9764FC2E-EF50-4B10-BB5F-6BAA27A55E88";
name = Regular;
paths = (
{
closed = 1;
nodes = (
"533 -200 OFFCURVE",
"548 -185 OFFCURVE",
"548 -164 CURVE SMOOTH",
"548 479 LINE SMOOTH",
"548 500 OFFCURVE",
"533 515 OFFCURVE",
"512 515 CURVE SMOOTH",
"492 515 OFFCURVE",
"478 500 OFFCURVE",
"478 479 CURVE SMOOTH",
"478 440 LINE SMOOTH",
"478 435 OFFCURVE",
"475 434 OFFCURVE",
"472 438 CURVE SMOOTH",
"438 492 OFFCURVE",
"364 525 OFFCURVE",
"297 525 CURVE SMOOTH",
"158 525 OFFCURVE",
"45 405 OFFCURVE",
"45 258 CURVE SMOOTH",
"45 110 OFFCURVE",
"158 -10 OFFCURVE",
"297 -10 CURVE SMOOTH",
"364 -10 OFFCURVE",
"438 23 OFFCURVE",
"472 77 CURVE SMOOTH",
"475 81 OFFCURVE",
"478 80 OFFCURVE",
"478 75 CURVE SMOOTH",
"478 -164 LINE SMOOTH",
"478 -185 OFFCURVE",
"493 -200 OFFCURVE",
"513 -200 CURVE SMOOTH"
);
},
{
closed = 1;
nodes = (
"396 455 OFFCURVE",
"478 368 OFFCURVE",
"478 258 CURVE SMOOTH",
"478 147 OFFCURVE",
"396 60 OFFCURVE",
"297 60 CURVE SMOOTH",
"198 60 OFFCURVE",
"115 147 OFFCURVE",
"115 258 CURVE SMOOTH",
"115 368 OFFCURVE",
"198 455 OFFCURVE",
"297 455 CURVE SMOOTH"
);
}
);
width = 628;
}
);
leftKerningGroup = c;
rightKerningGroup = q;
unicode = 0071;
},
{
glyphname = r;
lastChange = "2013-12-18 08:30:52 +0400";
layers = (
{
anchors = (
{
name = bottom;
position = "{188, 0}";
},
{
name = top;
position = "{188, 515}";
}
);
layerId = "9764FC2E-EF50-4B10-BB5F-6BAA27A55E88";
name = Regular;
paths = (
{
closed = 1;
nodes = (
"150 480 LINE",
"150 500 OFFCURVE",
"135 515 OFFCURVE",
"115 515 CURVE SMOOTH",
"95 515 OFFCURVE",
"80 500 OFFCURVE",
"80 479 CURVE SMOOTH",
"80 36 LINE SMOOTH",
"80 15 OFFCURVE",
"95 0 OFFCURVE",
"115 0 CURVE SMOOTH",
"135 0 OFFCURVE",
"150 15 OFFCURVE",
"150 36 CURVE SMOOTH",
"150 293 LINE SMOOTH",
"150 343 OFFCURVE",
"173 414 OFFCURVE",
"330 456 CURVE SMOOTH",
"352 462 OFFCURVE",
"367 472 OFFCURVE",
"367 493 CURVE SMOOTH",
"367 518 OFFCURVE",
"347 527 OFFCURVE",
"322 525 CURVE SMOOTH",
"252 518 OFFCURVE",
"199 472 OFFCURVE",
"162 426 CURVE SMOOTH",
"154 416 OFFCURVE",
"150 420 OFFCURVE",
"150 429 CURVE SMOOTH"
);
}
);
width = 375;
}
);
leftKerningGroup = m;
rightKerningGroup = r;
unicode = 0072;
},
{
glyphname = s;
lastChange = "2013-12-18 08:30:52 +0400";
layers = (
{
anchors = (
{
name = bottom;
position = "{228, 0}";
},
{
name = top;
position = "{228, 515}";
}
);
layerId = "9764FC2E-EF50-4B10-BB5F-6BAA27A55E88";
name = Regular;
paths = (
{
closed = 1;
nodes = (
"81 23 OFFCURVE",
"143 -10 OFFCURVE",
"219 -10 CURVE SMOOTH",
"336 -10 OFFCURVE",
"411 55 OFFCURVE",
"411 135 CURVE SMOOTH",
"411 212 OFFCURVE",
"365 256 OFFCURVE",
"242 289 CURVE SMOOTH",
"128 319 OFFCURVE",
"105 344 OFFCURVE",
"105 378 CURVE SMOOTH",
"105 414 OFFCURVE",
"146 457 OFFCURVE",
"211 457 CURVE SMOOTH",
"262 457 OFFCURVE",
"292 439 OFFCURVE",
"315 425 CURVE SMOOTH",
"332 414 OFFCURVE",
"353 418 OFFCURVE",
"363 432 CURVE SMOOTH",
"374 447 OFFCURVE",
"374 468 OFFCURVE",
"356 481 CURVE SMOOTH",
"325 504 OFFCURVE",
"281 525 OFFCURVE",
"211 525 CURVE SMOOTH",
"109 525 OFFCURVE",
"35 455 OFFCURVE",
"35 378 CURVE SMOOTH",
"35 300 OFFCURVE",
"86 264 OFFCURVE",
"224 227 CURVE SMOOTH",
"308 205 OFFCURVE",
"344 176 OFFCURVE",
"344 138 CURVE SMOOTH",
"344 93 OFFCURVE",
"294 57 OFFCURVE",
"219 57 CURVE SMOOTH",
"162 57 OFFCURVE",
"118 87 OFFCURVE",
"92 112 CURVE SMOOTH",
"79 124 OFFCURVE",
"61 123 OFFCURVE",
"48 112 CURVE SMOOTH",
"31 97 OFFCURVE",
"31 77 OFFCURVE",
"48 58 CURVE SMOOTH"
);
}
);
width = 456;
}
);
leftKerningGroup = s;
rightKerningGroup = s;
unicode = 0073;
},
{
glyphname = scommaaccent;
lastChange = "2013-12-18 08:30:52 +0400";
layers = (
{
layerId = "9764FC2E-EF50-4B10-BB5F-6BAA27A55E88";
name = Regular;
paths = (
{
closed = 1;
nodes = (
"88 22 OFFCURVE",
"163 -4 OFFCURVE",
"225 -4 CURVE SMOOTH",
"334 -4 OFFCURVE",
"411 49 OFFCURVE",
"411 130 CURVE SMOOTH",
"411 240 OFFCURVE",
"315 264 OFFCURVE",
"240 282 CURVE SMOOTH",
"136 307 OFFCURVE",
"103 335 OFFCURVE",
"103 366 CURVE SMOOTH",
"103 399 OFFCURVE",
"136 427 OFFCURVE",
"198 427 CURVE SMOOTH",
"239 427 OFFCURVE",
"288 408 OFFCURVE",
"310 393 CURVE SMOOTH",
"327 382 OFFCURVE",
"347 382 OFFCURVE",
"361 396 CURVE SMOOTH",
"362 397 LINE SMOOTH",
"379 414 OFFCURVE",
"380 442 OFFCURVE",
"359 457 CURVE SMOOTH",
"328 479 OFFCURVE",
"278 504 OFFCURVE",
"213 504 CURVE SMOOTH",
"113 504 OFFCURVE",
"25 451 OFFCURVE",
"25 366 CURVE SMOOTH",
"25 281 OFFCURVE",
"94 245 OFFCURVE",
"222 214 CURVE SMOOTH",
"297 196 OFFCURVE",
"332 179 OFFCURVE",
"332 135 CURVE SMOOTH",
"332 114 OFFCURVE",
"321 71 OFFCURVE",
"233 71 CURVE SMOOTH",
"189 71 OFFCURVE",
"126 96 OFFCURVE",
"93 117 CURVE SMOOTH",
"77 126 OFFCURVE",
"60 127 OFFCURVE",
"46 115 CURVE SMOOTH",
"46 115 LINE SMOOTH",
"25 97 OFFCURVE",
"23 67 OFFCURVE",
"45 52 CURVE SMOOTH"
);
},
{
closed = 1;
nodes = (
"158 -300 OFFCURVE",
"176 -304 OFFCURVE",
"197 -296 CURVE SMOOTH",
"247 -275 OFFCURVE",
"271 -237 OFFCURVE",
"271 -170 CURVE SMOOTH",
"271 -121 LINE SMOOTH",
"271 -97 OFFCURVE",
"254 -80 OFFCURVE",
"230 -80 CURVE SMOOTH",
"220 -80 LINE SMOOTH",
"196 -80 OFFCURVE",
"179 -97 OFFCURVE",
"179 -121 CURVE SMOOTH",
"179 -144 LINE SMOOTH",
"179 -166 OFFCURVE",
"192 -182 OFFCURVE",
"210 -185 CURVE SMOOTH",
"213 -185 OFFCURVE",
"215 -187 OFFCURVE",
"215 -190 CURVE SMOOTH",
"217 -219 OFFCURVE",
"206 -241 OFFCURVE",
"180 -257 CURVE SMOOTH",
"162 -268 OFFCURVE",
"150 -279 OFFCURVE",
"154 -290 CURVE SMOOTH"
);
}
);
width = 440;
}
);
leftMetricsKey = s;
rightMetricsKey = s;
unicode = 0219;
},
{
glyphname = germandbls;
lastChange = "2013-12-18 08:30:52 +0400";
layers = (
{
layerId = "9764FC2E-EF50-4B10-BB5F-6BAA27A55E88";
name = Regular;
paths = (
{
closed = 1;
nodes = (
"490 658 OFFCURVE",
"410 737 OFFCURVE",
"284 737 CURVE SMOOTH",
"145 737 OFFCURVE",
"57 642 OFFCURVE",
"57 501 CURVE SMOOTH",
"57 41 LINE SMOOTH",
"57 17 OFFCURVE",
"73 0 OFFCURVE",
"96 0 CURVE SMOOTH",
"118 0 OFFCURVE",
"134 17 OFFCURVE",
"134 41 CURVE SMOOTH",
"134 502 LINE SMOOTH",
"134 604 OFFCURVE",
"195 669 OFFCURVE",
"280 669 CURVE SMOOTH",
"358 669 OFFCURVE",
"411 621 OFFCURVE",
"411 551 CURVE SMOOTH",
"411 476 OFFCURVE",
"358 429 OFFCURVE",
"286 397 CURVE SMOOTH",
"272 391 OFFCURVE",
"263 379 OFFCURVE",
"263 363 CURVE SMOOTH",
"263 360 LINE SMOOTH",
"263 342 OFFCURVE",
"277 330 OFFCURVE",
"297 326 CURVE SMOOTH",
"394 309 OFFCURVE",
"454 266 OFFCURVE",
"454 193 CURVE SMOOTH",
"454 115 OFFCURVE",
"393 71 OFFCURVE",
"292 62 CURVE SMOOTH",
"275 60 OFFCURVE",
"263 48 OFFCURVE",
"263 32 CURVE SMOOTH",
"263 29 LINE SMOOTH",
"263 11 OFFCURVE",
"276 -2 OFFCURVE",
"295 -1 CURVE SMOOTH",
"442 6 OFFCURVE",
"533 76 OFFCURVE",
"533 193 CURVE SMOOTH",
"533 292 OFFCURVE",
"456 345 OFFCURVE",
"367 368 CURVE SMOOTH",
"359 370 OFFCURVE",
"358 375 OFFCURVE",
"366 379 CURVE SMOOTH",
"431 411 OFFCURVE",
"490 467 OFFCURVE",
"490 556 CURVE SMOOTH"
);
}
);
width = 561;
}
);
leftMetricsKey = B;
rightMetricsKey = B;
unicode = 00DF;
},
{
glyphname = t;
lastChange = "2013-12-18 08:30:52 +0400";
layers = (
{
anchors = (
{
name = bottom;
position = "{149, 0}";
},
{
name = center;
position = "{149, 258}";
}
);
layerId = "9764FC2E-EF50-4B10-BB5F-6BAA27A55E88";
name = Regular;
paths = (
{
closed = 1;
nodes = (
"246 445 LINE SMOOTH",
"267 445 OFFCURVE",
"282 460 OFFCURVE",
"282 480 CURVE SMOOTH",
"282 500 OFFCURVE",
"267 515 OFFCURVE",
"246 515 CURVE SMOOTH",
"187 515 LINE SMOOTH",
"184 515 OFFCURVE",
"182 517 OFFCURVE",
"182 520 CURVE SMOOTH",
"182 615 LINE SMOOTH",
"182 637 OFFCURVE",
"166 650 OFFCURVE",
"147 650 CURVE SMOOTH",
"128 650 OFFCURVE",
"112 637 OFFCURVE",
"112 615 CURVE SMOOTH",
"112 520 LINE SMOOTH",
"112 517 OFFCURVE",
"110 515 OFFCURVE",
"107 515 CURVE SMOOTH",
"46 515 LINE SMOOTH",
"25 515 OFFCURVE",
"10 500 OFFCURVE",
"10 480 CURVE SMOOTH",
"10 460 OFFCURVE",
"25 445 OFFCURVE",
"46 445 CURVE SMOOTH",
"107 445 LINE SMOOTH",
"110 445 OFFCURVE",
"112 443 OFFCURVE",
"112 440 CURVE SMOOTH",
"112 102 LINE SMOOTH",
"112 23 OFFCURVE",
"157 0 OFFCURVE",
"206 0 CURVE SMOOTH",
"239 0 OFFCURVE",
"266 13 OFFCURVE",
"265 41 CURVE SMOOTH",
"264 65 OFFCURVE",
"248 78 OFFCURVE",
"222 75 CURVE SMOOTH",
"188 71 OFFCURVE",
"182 102 OFFCURVE",
"182 135 CURVE SMOOTH",
"182 440 LINE SMOOTH",
"182 443 OFFCURVE",
"184 445 OFFCURVE",
"187 445 CURVE SMOOTH"
);
}
);
width = 297;
}
);
leftKerningGroup = t;
rightKerningGroup = t;
unicode = 0074;
},
{
glyphname = tbar;
lastChange = "2013-12-18 08:30:52 +0400";
layers = (
{
components = (
{
name = t;
transform = "{1, 0, 0, 1, 0, 0}";
}
);
layerId = "9764FC2E-EF50-4B10-BB5F-6BAA27A55E88";
name = Regular;
paths = (
{
closed = 1;
nodes = (
"65 337 LINE SMOOTH",
"44 337 OFFCURVE",
"29 323 OFFCURVE",
"29 303 CURVE SMOOTH",
"29 282 OFFCURVE",
"44 267 OFFCURVE",
"65 267 CURVE SMOOTH",
"225 267 LINE SMOOTH",
"246 267 OFFCURVE",
"261 281 OFFCURVE",
"261 301 CURVE SMOOTH",
"261 322 OFFCURVE",
"246 337 OFFCURVE",
"225 337 CURVE SMOOTH"
);
}
);
width = 295;
}
);
unicode = 0167;
},
{
glyphname = tcaron;
lastChange = "2013-12-18 08:30:52 +0400";
layers = (
{
anchors = (
{
name = bottom;
position = "{157, 0}";
},
{
name = center;
position = "{157, 250}";
}
);
layerId = "9764FC2E-EF50-4B10-BB5F-6BAA27A55E88";
name = Regular;
paths = (
{
closed = 1;
nodes = (
"264 583 OFFCURVE",
"267 583 OFFCURVE",
"274 601 CURVE SMOOTH",
"319 714 LINE SMOOTH",
"327 735 OFFCURVE",
"316 749 OFFCURVE",
"297 750 CURVE",
"281 750 LINE",
"260 750 OFFCURVE",
"249 741 OFFCURVE",
"247 720 CURVE SMOOTH",
"236 601 LINE SMOOTH",
"235 589 OFFCURVE",
"240 583 OFFCURVE",
"251 583 CURVE SMOOTH"
);
},
{
closed = 1;
nodes = (
"245 445 LINE SMOOTH",
"266.006 445 OFFCURVE",
"281 460 OFFCURVE",
"281 480 CURVE SMOOTH",
"281 500 OFFCURVE",
"266.006 515 OFFCURVE",
"245 515 CURVE SMOOTH",
"186 515 LINE SMOOTH",
"183 515 OFFCURVE",
"181 517 OFFCURVE",
"181 520 CURVE SMOOTH",
"181 615 LINE SMOOTH",
"181 637 OFFCURVE",
"165 650 OFFCURVE",
"146 650 CURVE SMOOTH",
"127 650 OFFCURVE",
"111 637 OFFCURVE",
"111 615 CURVE SMOOTH",
"111 520 LINE SMOOTH",
"111 517 OFFCURVE",
"109 515 OFFCURVE",
"106 515 CURVE SMOOTH",
"45 515 LINE SMOOTH",
"23.994 515 OFFCURVE",
"9 500 OFFCURVE",
"9 480 CURVE SMOOTH",
"9 460 OFFCURVE",
"23.994 445 OFFCURVE",
"45 445 CURVE SMOOTH",
"106 445 LINE SMOOTH",
"109 445 OFFCURVE",
"111 443 OFFCURVE",
"111 440 CURVE SMOOTH",
"111 102 LINE SMOOTH",
"111 23 OFFCURVE",
"156 0 OFFCURVE",
"205 0 CURVE SMOOTH",
"238 0 OFFCURVE",
"265 13 OFFCURVE",
"264 41 CURVE SMOOTH",
"263 65 OFFCURVE",
"247 78 OFFCURVE",
"221 75 CURVE SMOOTH",
"187 71 OFFCURVE",
"181 102 OFFCURVE",
"181 135 CURVE SMOOTH",
"181 440 LINE SMOOTH",
"181 443 OFFCURVE",
"183 445 OFFCURVE",
"186 445 CURVE SMOOTH"
);
}
);
width = 295;
}
);
leftMetricsKey = t;
unicode = 0165;
},
{
glyphname = u;
lastChange = "2013-12-18 08:30:52 +0400";
layers = (
{
anchors = (
{
name = ogonek;
position = "{507, 10}";
},
{
name = top;
position = "{281, 515}";
}
);
layerId = "9764FC2E-EF50-4B10-BB5F-6BAA27A55E88";
name = Regular;
paths = (
{
closed = 1;
nodes = (
"431 515 OFFCURVE",
"416 500 OFFCURVE",
"416 479 CURVE SMOOTH",
"416 198 LINE SMOOTH",
"416 122 OFFCURVE",
"354 60 OFFCURVE",
"278 60 CURVE SMOOTH",
"202 60 OFFCURVE",
"140 122 OFFCURVE",
"140 198 CURVE SMOOTH",
"140 479 LINE SMOOTH",
"140 500 OFFCURVE",
"126 515 OFFCURVE",
"106 515 CURVE SMOOTH",
"85 515 OFFCURVE",
"70 500 OFFCURVE",
"70 479 CURVE SMOOTH",
"70 198 LINE SMOOTH",
"70 83 OFFCURVE",
"163 -10 OFFCURVE",
"278 -10 CURVE SMOOTH",
"393 -10 OFFCURVE",
"486 83 OFFCURVE",
"486 198 CURVE SMOOTH",
"486 479 LINE SMOOTH",
"486 500 OFFCURVE",
"471 515 OFFCURVE",
"451 515 CURVE SMOOTH"
);
}
);
width = 566;
}
);
leftKerningGroup = u;
rightKerningGroup = u;
unicode = 0075;
},
{
glyphname = v;
lastChange = "2013-12-18 08:30:52 +0400";
layers = (
{
layerId = "9764FC2E-EF50-4B10-BB5F-6BAA27A55E88";
name = Regular;
paths = (
{
closed = 1;
nodes = (
"262 132 LINE SMOOTH",
"261 128 OFFCURVE",
"257 128 OFFCURVE",
"256 132 CURVE SMOOTH",
"102 494 LINE SMOOTH",
"94 513 OFFCURVE",
"75 521 OFFCURVE",
"57 513 CURVE SMOOTH",
"38 505 OFFCURVE",
"30 485 OFFCURVE",
"38 466 CURVE SMOOTH",
"226 21 LINE SMOOTH",
"232 6 OFFCURVE",
"245 -2 OFFCURVE",
"259 -1 CURVE",
"272 -2 OFFCURVE",
"285 6 OFFCURVE",
"291 21 CURVE SMOOTH",
"479 466 LINE SMOOTH",
"487 485 OFFCURVE",
"479 505 OFFCURVE",
"460 513 CURVE SMOOTH",
"442 521 OFFCURVE",
"423 513 OFFCURVE",
"415 494 CURVE SMOOTH"
);
}
);
width = 517;
}
);
leftKerningGroup = v;
rightKerningGroup = v;
unicode = 0076;
},
{
glyphname = w;
lastChange = "2013-12-18 08:30:52 +0400";
layers = (
{
anchors = (
{
name = top;
position = "{380, 515}";
}
);
layerId = "9764FC2E-EF50-4B10-BB5F-6BAA27A55E88";
name = Regular;
paths = (
{
closed = 1;
nodes = (
"539 136 LINE SMOOTH",
"538 131 OFFCURVE",
"534 131 OFFCURVE",
"532 135 CURVE SMOOTH",
"417 407 LINE SMOOTH",
"411 421 OFFCURVE",
"398 429 OFFCURVE",
"384 429 CURVE",
"370 429 OFFCURVE",
"357 421 OFFCURVE",
"351 407 CURVE SMOOTH",
"235 135 LINE SMOOTH",
"234 131 OFFCURVE",
"230 131 OFFCURVE",
"229 135 CURVE SMOOTH",
"103 493 LINE SMOOTH",
"96 513 OFFCURVE",
"77 522 OFFCURVE",
"59 515 CURVE SMOOTH",
"39 508 OFFCURVE",
"30 489 OFFCURVE",
"37 469 CURVE SMOOTH",
"194 23 LINE SMOOTH",
"199 9 OFFCURVE",
"210 1 OFFCURVE",
"221 -1 CURVE",
"238 -5 OFFCURVE",
"255 3 OFFCURVE",
"262 20 CURVE SMOOTH",
"381 299 LINE SMOOTH",
"382 303 OFFCURVE",
"386 303 OFFCURVE",
"387 299 CURVE SMOOTH",
"506 20 LINE SMOOTH",
"513 3 OFFCURVE",
"530 -5 OFFCURVE",
"547 -1 CURVE",
"559 1 OFFCURVE",
"569 9 OFFCURVE",
"574 23 CURVE SMOOTH",
"731 469 LINE SMOOTH",
"738 489 OFFCURVE",
"729 508 OFFCURVE",
"709 515 CURVE SMOOTH",
"691 522 OFFCURVE",
"672 513 OFFCURVE",
"665 493 CURVE SMOOTH"
);
}
);
width = 768;
}
);
leftKerningGroup = w;
rightKerningGroup = w;
unicode = 0077;
},
{
glyphname = x;
lastChange = "2013-12-18 08:30:52 +0400";
layers = (
{
layerId = "9764FC2E-EF50-4B10-BB5F-6BAA27A55E88";
name = Regular;
paths = (
{
closed = 1;
nodes = (
"473 459 LINE SMOOTH",
"486 474 OFFCURVE",
"482 497 OFFCURVE",
"465 509 CURVE SMOOTH",
"449 521 OFFCURVE",
"430 517 OFFCURVE",
"416 501 CURVE SMOOTH",
"262 322 LINE SMOOTH",
"259 319 OFFCURVE",
"257 319 OFFCURVE",
"254 322 CURVE SMOOTH",
"100 501 LINE SMOOTH",
"86 517 OFFCURVE",
"67 521 OFFCURVE",
"51 509 CURVE SMOOTH",
"34 497 OFFCURVE",
"30 474 OFFCURVE",
"43 459 CURVE SMOOTH",
"210 261 LINE SMOOTH",
"212 259 OFFCURVE",
"212 257 OFFCURVE",
"210 254 CURVE SMOOTH",
"43 56 LINE SMOOTH",
"30 41 OFFCURVE",
"34 18 OFFCURVE",
"51 6 CURVE SMOOTH",
"67 -6 OFFCURVE",
"86 -2 OFFCURVE",
"100 14 CURVE SMOOTH",
"254 194 LINE SMOOTH",
"257 197 OFFCURVE",
"259 197 OFFCURVE",
"262 194 CURVE SMOOTH",
"416 14 LINE SMOOTH",
"430 -2 OFFCURVE",
"449 -6 OFFCURVE",
"465 6 CURVE SMOOTH",
"482 18 OFFCURVE",
"486 41 OFFCURVE",
"473 56 CURVE SMOOTH",
"305 254 LINE SMOOTH",
"303 257 OFFCURVE",
"303 259 OFFCURVE",
"305 261 CURVE SMOOTH"
);
}
);
width = 515.696;
}
);
leftKerningGroup = x;
rightKerningGroup = x;
unicode = 0078;
},
{
glyphname = y;
lastChange = "2013-12-18 08:30:52 +0400";
layers = (
{
anchors = (
{
name = top;
position = "{281, 515}";
}
);
layerId = "9764FC2E-EF50-4B10-BB5F-6BAA27A55E88";
name = Regular;
paths = (
{
closed = 1;
nodes = (
"416 198 LINE SMOOTH",
"416 122 OFFCURVE",
"354 60 OFFCURVE",
"278 60 CURVE SMOOTH",
"202 60 OFFCURVE",
"140 122 OFFCURVE",
"140 198 CURVE SMOOTH",
"140 479 LINE SMOOTH",
"140 500 OFFCURVE",
"126 515 OFFCURVE",
"106 515 CURVE SMOOTH",
"85 515 OFFCURVE",
"70 500 OFFCURVE",
"70 479 CURVE SMOOTH",
"70 198 LINE SMOOTH",
"70 83 OFFCURVE",
"163 -10 OFFCURVE",
"278 -10 CURVE SMOOTH",
"328 -10 OFFCURVE",
"374 8 OFFCURVE",
"410 37 CURVE SMOOTH",
"413 40 OFFCURVE",
"416 39 OFFCURVE",
"416 34 CURVE SMOOTH",
"416 4 LINE SMOOTH",
"416 -104 OFFCURVE",
"320 -140 OFFCURVE",
"262 -140 CURVE SMOOTH",
"207 -140 OFFCURVE",
"174 -122 OFFCURVE",
"147 -102 CURVE SMOOTH",
"130 -89 OFFCURVE",
"110 -96 OFFCURVE",
"100 -110 CURVE SMOOTH",
"89 -125 OFFCURVE",
"96 -146 OFFCURVE",
"106 -155 CURVE SMOOTH",
"140 -186 OFFCURVE",
"201 -210 OFFCURVE",
"262 -210 CURVE SMOOTH",
"358 -210 OFFCURVE",
"486 -140 OFFCURVE",
"486 4 CURVE SMOOTH",
"486 479 LINE SMOOTH",
"486 500 OFFCURVE",
"471 515 OFFCURVE",
"451 515 CURVE SMOOTH",
"431 515 OFFCURVE",
"416 500 OFFCURVE",
"416 479 CURVE SMOOTH"
);
}
);
width = 566;
}
);
leftKerningGroup = y;
rightKerningGroup = y;
unicode = 0079;
},
{
glyphname = z;
lastChange = "2013-12-18 08:30:52 +0400";
layers = (
{
anchors = (
{
name = top;
position = "{251, 515}";
}
);
layerId = "9764FC2E-EF50-4B10-BB5F-6BAA27A55E88";
name = Regular;
paths = (
{
closed = 1;
nodes = (
"103 515 LINE SMOOTH",
"82 515 OFFCURVE",
"67 501 OFFCURVE",
"67 481 CURVE SMOOTH",
"67 460 OFFCURVE",
"82 445 OFFCURVE",
"103 445 CURVE SMOOTH",
"357 445 LINE SMOOTH",
"361.008 445 OFFCURVE",
"362 442 OFFCURVE",
"360 439 CURVE SMOOTH",
"45 60 LINE",
"41.4852 55.0035 LINE SMOOTH",
"37.9716 49.7114 OFFCURVE",
"35.9999 43.2501 OFFCURVE",
"35.9999 36 CURVE SMOOTH",
"35.9999 15 OFFCURVE",
"50.9999 0 OFFCURVE",
"71.9999 0 CURVE SMOOTH",
"424 0 LINE SMOOTH",
"445 0 OFFCURVE",
"460 14 OFFCURVE",
"460 34 CURVE SMOOTH",
"460 55 OFFCURVE",
"445 70 OFFCURVE",
"424 70 CURVE SMOOTH",
"153 70 LINE SMOOTH",
"149 70 OFFCURVE",
"148 73 OFFCURVE",
"151 76 CURVE SMOOTH",
"466 456 LINE SMOOTH",
"479 472 OFFCURVE",
"478 493 OFFCURVE",
"462 506 CURVE SMOOTH",
"458.599 508.948 OFFCURVE",
"454.838 511.124 OFFCURVE",
"450.904 512.553 CURVE SMOOTH",
"446.694 514.143 OFFCURVE",
"442.018 515 OFFCURVE",
"437 515 CURVE SMOOTH"
);
}
);
width = 502;
}
);
leftKerningGroup = z;
rightKerningGroup = z;
unicode = 007A;
},
{
glyphname = fi;
lastChange = "2013-12-18 08:30:52 +0400";
layers = (
{
layerId = "9764FC2E-EF50-4B10-BB5F-6BAA27A55E88";
name = Regular;
paths = (
{
closed = 1;
nodes = (
"176 515 LINE SMOOTH",
"171 515 OFFCURVE",
"169 517 OFFCURVE",
"169 522 CURVE SMOOTH",
"169 574 LINE SMOOTH",
"169 647 OFFCURVE",
"215 675 OFFCURVE",
"265 674 CURVE SMOOTH",
"311 673 OFFCURVE",
"339 656 OFFCURVE",
"364 629 CURVE SMOOTH",
"389 602 OFFCURVE",
"421 606 OFFCURVE",
"436 625 CURVE SMOOTH",
"452 645 OFFCURVE",
"442 673 OFFCURVE",
"422 691 CURVE SMOOTH",
"389 721 OFFCURVE",
"335 742 OFFCURVE",
"265 742 CURVE SMOOTH",
"181 742 OFFCURVE",
"99 702 OFFCURVE",
"99 594 CURVE SMOOTH",
"99 522 LINE SMOOTH",
"99 517 OFFCURVE",
"97 515 OFFCURVE",
"92 515 CURVE SMOOTH",
"57 515 LINE SMOOTH",
"31 515 OFFCURVE",
"17 501 OFFCURVE",
"17 480 CURVE SMOOTH",
"17 459 OFFCURVE",
"31 445 OFFCURVE",
"57 445 CURVE SMOOTH",
"92 445 LINE SMOOTH",
"97 445 OFFCURVE",
"99 443 OFFCURVE",
"99 438 CURVE SMOOTH",
"99 35 LINE SMOOTH",
"99 13.994 OFFCURVE",
"114 -1 OFFCURVE",
"134 -1 CURVE SMOOTH",
"154 -1 OFFCURVE",
"169 13.994 OFFCURVE",
"169 35 CURVE SMOOTH",
"169 438 LINE SMOOTH",
"169 443 OFFCURVE",
"171 445 OFFCURVE",
"176 445 CURVE SMOOTH",
"367 445 LINE SMOOTH",
"372 445 OFFCURVE",
"374 443 OFFCURVE",
"374 438 CURVE SMOOTH",
"374 36 LINE SMOOTH",
"374 14.994 OFFCURVE",
"389 0 OFFCURVE",
"409 0 CURVE SMOOTH",
"429 0 OFFCURVE",
"444 14.994 OFFCURVE",
"444 36 CURVE SMOOTH",
"444 479 LINE SMOOTH",
"444 500.006 OFFCURVE",
"429.006 515 OFFCURVE",
"408 515 CURVE SMOOTH"
);
}
);
width = 513;
}
);
leftMetricsKey = f;
rightMetricsKey = i;
unicode = FB01;
},
{
glyphname = fl;
lastChange = "2013-12-18 08:30:52 +0400";
layers = (
{
anchors = (
{
name = bottom;
position = "{441, 0}";
},
{
name = top;
position = "{441, 515}";
},
{
name = topright;
position = "{537, 515}";
}
);
layerId = "9764FC2E-EF50-4B10-BB5F-6BAA27A55E88";
name = Regular;
paths = (
{
closed = 1;
nodes = (
"421 740 OFFCURVE",
"406 725 OFFCURVE",
"406 704 CURVE SMOOTH",
"406 681 LINE SMOOTH",
"406 677 OFFCURVE",
"403 675 OFFCURVE",
"400 678 CURVE SMOOTH",
"364 700 OFFCURVE",
"313 724 OFFCURVE",
"250 724 CURVE SMOOTH",
"163 724 OFFCURVE",
"107 661 OFFCURVE",
"107 586 CURVE SMOOTH",
"107 522 LINE SMOOTH",
"107 517 OFFCURVE",
"105 515 OFFCURVE",
"100 515 CURVE SMOOTH",
"60 515 LINE SMOOTH",
"34 515 OFFCURVE",
"25 496 OFFCURVE",
"25 480 CURVE SMOOTH",
"25 464 OFFCURVE",
"34 445 OFFCURVE",
"60 445 CURVE SMOOTH",
"100 445 LINE SMOOTH",
"105 445 OFFCURVE",
"107 443 OFFCURVE",
"107 438 CURVE SMOOTH",
"107 35 LINE SMOOTH",
"107 19 OFFCURVE",
"116 0 OFFCURVE",
"142 0 CURVE SMOOTH",
"168 0 OFFCURVE",
"177 19 OFFCURVE",
"177 35 CURVE SMOOTH",
"177 438 LINE SMOOTH",
"177 443 OFFCURVE",
"179 445 OFFCURVE",
"184 445 CURVE SMOOTH",
"267 445 LINE SMOOTH",
"293 445 OFFCURVE",
"302 464 OFFCURVE",
"302 480 CURVE SMOOTH",
"302 496 OFFCURVE",
"293 515 OFFCURVE",
"267 515 CURVE SMOOTH",
"184 515 LINE SMOOTH",
"179 515 OFFCURVE",
"177 517 OFFCURVE",
"177 522 CURVE SMOOTH",
"177 566 LINE SMOOTH",
"177 607 OFFCURVE",
"197 652 OFFCURVE",
"249 655 CURVE SMOOTH",
"296 658 OFFCURVE",
"351 631 OFFCURVE",
"403 589 CURVE SMOOTH",
"405 587 OFFCURVE",
"406 585 OFFCURVE",
"406 583 CURVE SMOOTH",
"406 36 LINE SMOOTH",
"406 15 OFFCURVE",
"420 0 OFFCURVE",
"440 0 CURVE SMOOTH",
"461 0 OFFCURVE",
"476 15 OFFCURVE",
"476 36 CURVE SMOOTH",
"476 704 LINE SMOOTH",
"476 725 OFFCURVE",
"462 740 OFFCURVE",
"442 740 CURVE SMOOTH"
);
}
);
width = 556;
}
);
leftMetricsKey = f;
rightMetricsKey = l;
unicode = FB02;
},
{
glyphname = ordfeminine;
lastChange = "2013-12-18 08:30:52 +0400";
layers = (
{
layerId = "9764FC2E-EF50-4B10-BB5F-6BAA27A55E88";
name = Regular;
paths = (
{
closed = 1;
nodes = (
"327 710 OFFCURVE",
"314 697 OFFCURVE",
"314 679 CURVE SMOOTH",
"314 670 LINE SMOOTH",
"314 665 OFFCURVE",
"311 664 OFFCURVE",
"308 668 CURVE SMOOTH",
"288 694 OFFCURVE",
"254 710 OFFCURVE",
"209 710 CURVE SMOOTH",
"118 710 OFFCURVE",
"45 632 OFFCURVE",
"45 535 CURVE SMOOTH",
"45 438 OFFCURVE",
"118 360 OFFCURVE",
"209 360 CURVE SMOOTH",
"254 360 OFFCURVE",
"288 380 OFFCURVE",
"308 403 CURVE SMOOTH",
"311 406 OFFCURVE",
"314 405 OFFCURVE",
"314 401 CURVE SMOOTH",
"314 391 LINE SMOOTH",
"314 373 OFFCURVE",
"326 360 OFFCURVE",
"343 360 CURVE SMOOTH",
"361 360 OFFCURVE",
"374 373 OFFCURVE",
"374 391 CURVE SMOOTH",
"374 679 LINE SMOOTH",
"374 697 OFFCURVE",
"361 710 OFFCURVE",
"344 710 CURVE SMOOTH"
);
},
{
closed = 1;
nodes = (
"156 420 OFFCURVE",
"105 459 OFFCURVE",
"105 535 CURVE SMOOTH",
"105 611 OFFCURVE",
"156 650 OFFCURVE",
"213 650 CURVE SMOOTH",
"271 650 OFFCURVE",
"320 610 OFFCURVE",
"320 535 CURVE SMOOTH",
"320 460 OFFCURVE",
"271 420 OFFCURVE",
"213 420 CURVE SMOOTH"
);
}
);
width = 452;
}
);
leftMetricsKey = a;
rightMetricsKey = a;
unicode = 00AA;
},
{
glyphname = ordmasculine;
lastChange = "2013-12-18 08:30:52 +0400";
layers = (
{
layerId = "9764FC2E-EF50-4B10-BB5F-6BAA27A55E88";
name = Regular;
paths = (
{
closed = 1;
nodes = (
"305 469 OFFCURVE",
"258 420 OFFCURVE",
"204 420 CURVE",
"150 420 OFFCURVE",
"104 468 OFFCURVE",
"104 534 CURVE",
"104 601 OFFCURVE",
"150 650 OFFCURVE",
"204 650 CURVE",
"258 650 OFFCURVE",
"305 601 OFFCURVE",
"305 534 CURVE"
);
},
{
closed = 1;
nodes = (
"365 632 OFFCURVE",
"292 710 OFFCURVE",
"204 710 CURVE",
"116 710 OFFCURVE",
"44 632 OFFCURVE",
"44 534 CURVE",
"44 437 OFFCURVE",
"116 360 OFFCURVE",
"204 360 CURVE",
"292 360 OFFCURVE",
"365 437 OFFCURVE",
"365 534 CURVE"
);
}
);
width = 409;
}
);
leftMetricsKey = o;
rightMetricsKey = o;
unicode = 00BA;
},
{
glyphname = pi;
lastChange = "2013-12-18 08:30:52 +0400";
layers = (
{
layerId = "9764FC2E-EF50-4B10-BB5F-6BAA27A55E88";
name = Regular;
paths = (
{
closed = 1;
nodes = (
"526 445 LINE SMOOTH",
"547.006 445 OFFCURVE",
"562 459 OFFCURVE",
"562 479 CURVE SMOOTH",
"562 500.006 OFFCURVE",
"547.006 515 OFFCURVE",
"526 515 CURVE SMOOTH",
"69 515 LINE SMOOTH",
"47.994 515 OFFCURVE",
"33 501 OFFCURVE",
"33 481 CURVE SMOOTH",
"33 459.994 OFFCURVE",
"47.994 445 OFFCURVE",
"69 445 CURVE SMOOTH",
"98 445 LINE SMOOTH",
"101 445 OFFCURVE",
"103 443 OFFCURVE",
"103 440 CURVE SMOOTH",
"103 36 LINE SMOOTH",
"103 14.994 OFFCURVE",
"117 0 OFFCURVE",
"137 0 CURVE SMOOTH",
"158.006 0 OFFCURVE",
"173 14.994 OFFCURVE",
"173 36 CURVE SMOOTH",
"173 440 LINE SMOOTH",
"173 443 OFFCURVE",
"175 445 OFFCURVE",
"178 445 CURVE SMOOTH",
"417 445 LINE SMOOTH",
"420 445 OFFCURVE",
"422 443 OFFCURVE",
"422 440 CURVE SMOOTH",
"422 36 LINE SMOOTH",
"422 14.994 OFFCURVE",
"436 0 OFFCURVE",
"456 0 CURVE SMOOTH",
"477.006 0 OFFCURVE",
"492 14.994 OFFCURVE",
"492 36 CURVE SMOOTH",
"492 440 LINE SMOOTH",
"492 443 OFFCURVE",
"494 445 OFFCURVE",
"497 445 CURVE SMOOTH"
);
}
);
width = 600;
}
);
unicode = 03C0;
},
{
glyphname = zero;
lastChange = "2013-12-18 08:30:52 +0400";
layers = (
{
layerId = "9764FC2E-EF50-4B10-BB5F-6BAA27A55E88";
name = Regular;
paths = (
{
closed = 1;
nodes = (
"492 172 OFFCURVE",
"427 60 OFFCURVE",
"311 60 CURVE",
"195 60 OFFCURVE",
"130 172 OFFCURVE",
"130 350 CURVE",
"130 528 OFFCURVE",
"195 640 OFFCURVE",
"311 640 CURVE",
"427 640 OFFCURVE",
"492 528 OFFCURVE",
"492 350 CURVE"
);
},
{
closed = 1;
nodes = (
"562 559 OFFCURVE",
"474 710 OFFCURVE",
"311 710 CURVE",
"148 710 OFFCURVE",
"60 559 OFFCURVE",
"60 350 CURVE",
"60 141 OFFCURVE",
"148 -10 OFFCURVE",
"311 -10 CURVE",
"474 -10 OFFCURVE",
"562 141 OFFCURVE",
"562 350 CURVE"
);
}
);
width = 622;
}
);
unicode = 0030;
},
{
glyphname = one;
lastChange = "2013-12-18 08:30:52 +0400";
layers = (
{
layerId = "9764FC2E-EF50-4B10-BB5F-6BAA27A55E88";
name = Regular;
paths = (
{
closed = 1;
nodes = (
"58 594 LINE SMOOTH",
"40 584 OFFCURVE",
"35 563 OFFCURVE",
"45 546 CURVE SMOOTH",
"55 528 OFFCURVE",
"76 523 OFFCURVE",
"94 533 CURVE SMOOTH",
"217 602 LINE SMOOTH",
"220 604 OFFCURVE",
"223 602 OFFCURVE",
"223 598 CURVE SMOOTH",
"223 36 LINE SMOOTH",
"223 15 OFFCURVE",
"237 0 OFFCURVE",
"257 0 CURVE SMOOTH",
"278 0 OFFCURVE",
"293 15 OFFCURVE",
"293 36 CURVE SMOOTH",
"293 662 LINE",
"293 668 LINE",
"291 686 OFFCURVE",
"279 699 OFFCURVE",
"261 700 CURVE",
"254 701 OFFCURVE",
"246 699 OFFCURVE",
"239 695 CURVE SMOOTH"
);
}
);
width = 383;
}
);
unicode = 0031;
},
{
glyphname = two;
lastChange = "2013-12-18 08:30:52 +0400";
layers = (
{
layerId = "9764FC2E-EF50-4B10-BB5F-6BAA27A55E88";
name = Regular;
paths = (
{
closed = 1;
nodes = (
"179 70 LINE SMOOTH",
"174 70 OFFCURVE",
"173 73 OFFCURVE",
"176 76 CURVE SMOOTH",
"368 264 LINE SMOOTH",
"394 290 OFFCURVE",
"485 365 OFFCURVE",
"485 485 CURVE SMOOTH",
"485 582 OFFCURVE",
"411 710 OFFCURVE",
"273 710 CURVE SMOOTH",
"171 710 OFFCURVE",
"96 650 OFFCURVE",
"62 605 CURVE SMOOTH",
"47 585 OFFCURVE",
"55 565 OFFCURVE",
"66 556 CURVE SMOOTH",
"77 547 OFFCURVE",
"100 545 OFFCURVE",
"115 560 CURVE SMOOTH",
"144 589 OFFCURVE",
"195 640 OFFCURVE",
"273 640 CURVE SMOOTH",
"363 640 OFFCURVE",
"415 556 OFFCURVE",
"415 485 CURVE SMOOTH",
"415 397 OFFCURVE",
"348 341 OFFCURVE",
"320 314 CURVE SMOOTH",
"62 62 LINE SMOOTH",
"56 56 OFFCURVE",
"52 49 OFFCURVE",
"51 42 CURVE",
"50 40 OFFCURVE",
"50 38 OFFCURVE",
"50 36 CURVE SMOOTH",
"50 15 OFFCURVE",
"65 0 OFFCURVE",
"86 0 CURVE SMOOTH",
"476 0 LINE SMOOTH",
"497 0 OFFCURVE",
"512 14 OFFCURVE",
"512 34 CURVE SMOOTH",
"512 55 OFFCURVE",
"497 70 OFFCURVE",
"476 70 CURVE SMOOTH"
);
}
);
width = 582;
}
);
unicode = 0032;
},
{
glyphname = three;
lastChange = "2013-12-18 08:30:52 +0400";
layers = (
{
layerId = "9764FC2E-EF50-4B10-BB5F-6BAA27A55E88";
name = Regular;
paths = (
{
closed = 1;
nodes = (
"429 638 LINE SMOOTH",
"433 642 OFFCURVE",
"435 647 OFFCURVE",
"437 651 CURVE",
"438 655 OFFCURVE",
"439 659 OFFCURVE",
"439 664 CURVE SMOOTH",
"439 685 OFFCURVE",
"424 700 OFFCURVE",
"403 700 CURVE SMOOTH",
"86 700 LINE SMOOTH",
"65 700 OFFCURVE",
"50 686 OFFCURVE",
"50 666 CURVE SMOOTH",
"50 645 OFFCURVE",
"65 630 OFFCURVE",
"86 630 CURVE SMOOTH",
"320 630 LINE SMOOTH",
"325 630 OFFCURVE",
"326 627 OFFCURVE",
"323 624 CURVE SMOOTH",
"168 447 LINE",
"160 439 OFFCURVE",
"156 427 OFFCURVE",
"158 414 CURVE SMOOTH",
"162 395 OFFCURVE",
"179 385 OFFCURVE",
"198 387 CURVE SMOOTH",
"299 397 OFFCURVE",
"383 345 OFFCURVE",
"383 223 CURVE SMOOTH",
"383 108 OFFCURVE",
"288 60 OFFCURVE",
"218 60 CURVE SMOOTH",
"168 60 OFFCURVE",
"134 73 OFFCURVE",
"112 86 CURVE SMOOTH",
"98 94 OFFCURVE",
"83 95 OFFCURVE",
"71 84 CURVE SMOOTH",
"53 67 OFFCURVE",
"54 42 OFFCURVE",
"74 28 CURVE SMOOTH",
"105 6 OFFCURVE",
"153 -10 OFFCURVE",
"218 -10 CURVE SMOOTH",
"310 -10 OFFCURVE",
"453 54 OFFCURVE",
"453 223 CURVE SMOOTH",
"453 358 OFFCURVE",
"372 432 OFFCURVE",
"274 452 CURVE SMOOTH",
"270 453 OFFCURVE",
"269 456 OFFCURVE",
"271 459 CURVE SMOOTH"
);
}
);
width = 523;
}
);
unicode = 0033;
},
{
glyphname = four;
lastChange = "2013-12-18 08:30:52 +0400";
layers = (
{
layerId = "9764FC2E-EF50-4B10-BB5F-6BAA27A55E88";
name = Regular;
paths = (
{
closed = 1;
nodes = (
"488 230 LINE SMOOTH",
"485 230 OFFCURVE",
"483 232 OFFCURVE",
"483 235 CURVE SMOOTH",
"483 664 LINE SMOOTH",
"483 685 OFFCURVE",
"469 700 OFFCURVE",
"449 700 CURVE",
"441 699 LINE",
"433 698 OFFCURVE",
"424 693 OFFCURVE",
"418 685 CURVE SMOOTH",
"58 217 LINE SMOOTH",
"48 204 OFFCURVE",
"47 188 OFFCURVE",
"56 176 CURVE",
"62 166 OFFCURVE",
"73 160 OFFCURVE",
"86 160 CURVE SMOOTH",
"408 160 LINE SMOOTH",
"411 160 OFFCURVE",
"413 158 OFFCURVE",
"413 155 CURVE SMOOTH",
"413 36 LINE SMOOTH",
"413 15 OFFCURVE",
"427 0 OFFCURVE",
"447 0 CURVE SMOOTH",
"468 0 OFFCURVE",
"483 15 OFFCURVE",
"483 36 CURVE SMOOTH",
"483 155 LINE SMOOTH",
"483 158 OFFCURVE",
"485 160 OFFCURVE",
"488 160 CURVE SMOOTH",
"528 160 LINE SMOOTH",
"549 160 OFFCURVE",
"564 174 OFFCURVE",
"564 194 CURVE SMOOTH",
"564 215 OFFCURVE",
"549 230 OFFCURVE",
"528 230 CURVE SMOOTH"
);
},
{
closed = 1;
nodes = (
"164 230 LINE SMOOTH",
"160 230 OFFCURVE",
"158 233 OFFCURVE",
"161 236 CURVE SMOOTH",
"407 556 LINE SMOOTH",
"410 559 OFFCURVE",
"413 558 OFFCURVE",
"413 554 CURVE SMOOTH",
"413 235 LINE SMOOTH",
"413 232 OFFCURVE",
"411 230 OFFCURVE",
"408 230 CURVE SMOOTH"
);
}
);
width = 644;
}
);
unicode = 0034;
},
{
glyphname = five;
lastChange = "2013-12-18 08:30:52 +0400";
layers = (
{
layerId = "9764FC2E-EF50-4B10-BB5F-6BAA27A55E88";
name = Regular;
paths = (
{
closed = 1;
nodes = (
"158 625 LINE SMOOTH",
"159 628 OFFCURVE",
"161 630 OFFCURVE",
"164 630 CURVE SMOOTH",
"411 630 LINE SMOOTH",
"432 630 OFFCURVE",
"447 644 OFFCURVE",
"447 664 CURVE SMOOTH",
"447 685 OFFCURVE",
"432 700 OFFCURVE",
"411 700 CURVE SMOOTH",
"131 700 LINE SMOOTH",
"127 700 OFFCURVE",
"124 700 OFFCURVE",
"121 699 CURVE",
"107 696 OFFCURVE",
"96 684 OFFCURVE",
"94 668 CURVE SMOOTH",
"56 418 LINE",
"50 391 OFFCURVE",
"77 364 OFFCURVE",
"112 383 CURVE SMOOTH",
"222 442 OFFCURVE",
"389 420 OFFCURVE",
"389 233 CURVE SMOOTH",
"389 118 OFFCURVE",
"294 60 OFFCURVE",
"224 60 CURVE SMOOTH",
"174 60 OFFCURVE",
"140 73 OFFCURVE",
"118 86 CURVE SMOOTH",
"104 94 OFFCURVE",
"89 95 OFFCURVE",
"77 84 CURVE SMOOTH",
"59 67 OFFCURVE",
"60 42 OFFCURVE",
"80 28 CURVE SMOOTH",
"111 6 OFFCURVE",
"159 -10 OFFCURVE",
"224 -10 CURVE SMOOTH",
"316 -10 OFFCURVE",
"459 64 OFFCURVE",
"459 233 CURVE SMOOTH",
"459 444 OFFCURVE",
"277 519 OFFCURVE",
"138 462 CURVE SMOOTH",
"134 460 OFFCURVE",
"131 462 OFFCURVE",
"132 466 CURVE SMOOTH"
);
}
);
width = 529;
}
);
unicode = 0035;
},
{
glyphname = six;
lastChange = "2013-12-18 08:30:52 +0400";
layers = (
{
layerId = "9764FC2E-EF50-4B10-BB5F-6BAA27A55E88";
name = Regular;
paths = (
{
closed = 1;
nodes = (
"411 672 CURVE",
"408 692 OFFCURVE",
"390 705 OFFCURVE",
"368 700 CURVE SMOOTH",
"108 635 OFFCURVE",
"50 349 OFFCURVE",
"62 208 CURVE SMOOTH",
"73 82 OFFCURVE",
"167 -10 OFFCURVE",
"290 -10 CURVE SMOOTH",
"413 -10 OFFCURVE",
"513 93 OFFCURVE",
"513 218 CURVE SMOOTH",
"513 342 OFFCURVE",
"413 445 OFFCURVE",
"290 445 CURVE SMOOTH",
"245 445 OFFCURVE",
"204 431 OFFCURVE",
"169 409 CURVE SMOOTH",
"165 406 OFFCURVE",
"162 408 OFFCURVE",
"164 413 CURVE SMOOTH",
"193 507 OFFCURVE",
"255 601 OFFCURVE",
"382 631 CURVE SMOOTH",
"402 636 OFFCURVE",
"414 651 OFFCURVE"
);
},
{
closed = 1;
nodes = (
"205 60 OFFCURVE",
"137 129 OFFCURVE",
"137 218 CURVE SMOOTH",
"137 306 OFFCURVE",
"205 375 OFFCURVE",
"290 375 CURVE SMOOTH",
"375 375 OFFCURVE",
"443 306 OFFCURVE",
"443 218 CURVE SMOOTH",
"443 129 OFFCURVE",
"375 60 OFFCURVE",
"290 60 CURVE SMOOTH"
);
}
);
width = 563;
}
);
unicode = 0036;
},
{
glyphname = seven;
lastChange = "2013-12-18 08:30:52 +0400";
layers = (
{
layerId = "9764FC2E-EF50-4B10-BB5F-6BAA27A55E88";
name = Regular;
paths = (
{
closed = 1;
nodes = (
"96 700 LINE SMOOTH",
"75 700 OFFCURVE",
"60 686 OFFCURVE",
"60 666 CURVE SMOOTH",
"60 645 OFFCURVE",
"75 630 OFFCURVE",
"96 630 CURVE SMOOTH",
"369 630 LINE SMOOTH",
"373 630 OFFCURVE",
"374 628 OFFCURVE",
"373 624 CURVE SMOOTH",
"126 48 LINE SMOOTH",
"118 29 OFFCURVE",
"125 10 OFFCURVE",
"143 2 CURVE SMOOTH",
"162 -6 OFFCURVE",
"182 2 OFFCURVE",
"190 21 CURVE SMOOTH",
"460 651 LINE SMOOTH",
"468 670 OFFCURVE",
"461 689 OFFCURVE",
"443 697 CURVE SMOOTH",
"437 699 OFFCURVE",
"431 700 OFFCURVE",
"426 700 CURVE"
);
}
);
width = 533.28;
}
);
unicode = 0037;
},
{
glyphname = eight;
lastChange = "2013-12-18 08:30:52 +0400";
layers = (
{
layerId = "9764FC2E-EF50-4B10-BB5F-6BAA27A55E88";
name = Regular;
paths = (
{
closed = 1;
nodes = (
"432 435 OFFCURVE",
"450 478 OFFCURVE",
"450 525 CURVE SMOOTH",
"450 623 OFFCURVE",
"373 700 OFFCURVE",
"275 700 CURVE SMOOTH",
"177 700 OFFCURVE",
"100 623 OFFCURVE",
"100 525 CURVE SMOOTH",
"100 477 OFFCURVE",
"119 434 OFFCURVE",
"149 403 CURVE SMOOTH",
"154 398 OFFCURVE",
"153 393 OFFCURVE",
"148 389 CURVE SMOOTH",
"94 350 OFFCURVE",
"60 287 OFFCURVE",
"60 215 CURVE SMOOTH",
"60 95 OFFCURVE",
"155 0 OFFCURVE",
"275 0 CURVE SMOOTH",
"395 0 OFFCURVE",
"491 95 OFFCURVE",
"491 215 CURVE SMOOTH",
"491 287 OFFCURVE",
"456 350 OFFCURVE",
"402 389 CURVE SMOOTH",
"397 393 OFFCURVE",
"396 398 OFFCURVE",
"401 403 CURVE SMOOTH"
);
},
{
closed = 1;
nodes = (
"165 593 OFFCURVE",
"217 635 OFFCURVE",
"275 635 CURVE SMOOTH",
"333 635 OFFCURVE",
"385 593 OFFCURVE",
"385 525 CURVE SMOOTH",
"385 458 OFFCURVE",
"332 415 OFFCURVE",
"275 415 CURVE SMOOTH",
"218 415 OFFCURVE",
"165 458 OFFCURVE",
"165 525 CURVE"
);
},
{
closed = 1;
nodes = (
"195 65 OFFCURVE",
"125 125 OFFCURVE",
"125 215 CURVE SMOOTH",
"125 305 OFFCURVE",
"195 365 OFFCURVE",
"275 365 CURVE SMOOTH",
"355 365 OFFCURVE",
"426 304 OFFCURVE",
"426 215 CURVE SMOOTH",
"426 126 OFFCURVE",
"355 65 OFFCURVE",
"275 65 CURVE SMOOTH"
);
}
);
width = 551;
}
);
unicode = 0038;
},
{
glyphname = nine;
lastChange = "2013-12-18 08:30:52 +0400";
layers = (
{
layerId = "9764FC2E-EF50-4B10-BB5F-6BAA27A55E88";
name = Regular;
paths = (
{
closed = 1;
nodes = (
"152 28 CURVE",
"155 8 OFFCURVE",
"173 -5 OFFCURVE",
"195 0 CURVE SMOOTH",
"455 65 OFFCURVE",
"513 351 OFFCURVE",
"501 492 CURVE SMOOTH",
"490 618 OFFCURVE",
"396 710 OFFCURVE",
"273 710 CURVE SMOOTH",
"150 710 OFFCURVE",
"50 607 OFFCURVE",
"50 482 CURVE SMOOTH",
"50 358 OFFCURVE",
"150 255 OFFCURVE",
"273 255 CURVE SMOOTH",
"318 255 OFFCURVE",
"359 269 OFFCURVE",
"394 291 CURVE SMOOTH",
"398 294 OFFCURVE",
"401 292 OFFCURVE",
"399 287 CURVE SMOOTH",
"370 193 OFFCURVE",
"308 99 OFFCURVE",
"181 69 CURVE SMOOTH",
"161 64 OFFCURVE",
"149 49 OFFCURVE"
);
},
{
closed = 1;
nodes = (
"358 640 OFFCURVE",
"426 571 OFFCURVE",
"426 482 CURVE SMOOTH",
"426 394 OFFCURVE",
"358 325 OFFCURVE",
"273 325 CURVE SMOOTH",
"188 325 OFFCURVE",
"120 394 OFFCURVE",
"120 482 CURVE SMOOTH",
"120 571 OFFCURVE",
"188 640 OFFCURVE",
"273 640 CURVE SMOOTH"
);
}
);
width = 562.468;
}
);
unicode = 0039;
},
{
glyphname = fraction;
lastChange = "2013-12-18 08:30:52 +0400";
layers = (
{
layerId = "9764FC2E-EF50-4B10-BB5F-6BAA27A55E88";
name = Regular;
paths = (
{
closed = 1;
nodes = (
"26 45 LINE SMOOTH",
"17 32 OFFCURVE",
"20 15 OFFCURVE",
"34 5 CURVE SMOOTH",
"48 -4 OFFCURVE",
"67 -1 OFFCURVE",
"77 14 CURVE SMOOTH",
"500 656 LINE SMOOTH",
"509 669 OFFCURVE",
"506 686 OFFCURVE",
"492 696 CURVE SMOOTH",
"478 706 OFFCURVE",
"459 702 OFFCURVE",
"449 687 CURVE SMOOTH"
);
}
);
width = 525;
}
);
unicode = 2044;
},
{
glyphname = onehalf;
lastChange = "2013-12-18 08:30:52 +0400";
layers = (
{
layerId = "9764FC2E-EF50-4B10-BB5F-6BAA27A55E88";
leftMetricsKey = one;
rightMetricsKey = two;
name = Regular;
paths = (
{
closed = 1;
nodes = (
"148 45 LINE SMOOTH",
"139 32 OFFCURVE",
"142 15 OFFCURVE",
"156 5 CURVE SMOOTH",
"170 -4 OFFCURVE",
"189 -1 OFFCURVE",
"199 14 CURVE SMOOTH",
"622 656 LINE SMOOTH",
"631 669 OFFCURVE",
"628 686 OFFCURVE",
"614 696 CURVE SMOOTH",
"600 706 OFFCURVE",
"581 702 OFFCURVE",
"571 687 CURVE SMOOTH"
);
},
{
closed = 1;
nodes = (
"56 627 LINE",
"40 618 OFFCURVE",
"36 601 OFFCURVE",
"45 587 CURVE SMOOTH",
"54 572 OFFCURVE",
"71 568 OFFCURVE",
"87 577 CURVE SMOOTH",
"150 614 LINE SMOOTH",
"153 616 OFFCURVE",
"156 615 OFFCURVE",
"156 611 CURVE SMOOTH",
"156 333 LINE SMOOTH",
"156 315 OFFCURVE",
"168 302 OFFCURVE",
"185 302 CURVE SMOOTH",
"203 302 OFFCURVE",
"216 315 OFFCURVE",
"216 333 CURVE SMOOTH",
"216 669 LINE SMOOTH",
"216 683 OFFCURVE",
"208 694 OFFCURVE",
"197 698 CURVE",
"188 702 OFFCURVE",
"178 701 OFFCURVE",
"169 696 CURVE"
);
},
{
closed = 1;
nodes = (
"630 59 LINE",
"713 140 LINE SMOOTH",
"744 171 OFFCURVE",
"780 214 OFFCURVE",
"780 273 CURVE SMOOTH",
"780 336 OFFCURVE",
"731 400 OFFCURVE",
"650 400 CURVE SMOOTH",
"597 400 OFFCURVE",
"550 378 OFFCURVE",
"526 352 CURVE SMOOTH",
"513 337 OFFCURVE",
"515 319 OFFCURVE",
"529 308 CURVE",
"542 298 OFFCURVE",
"558 301 OFFCURVE",
"570 312 CURVE SMOOTH",
"589 330 OFFCURVE",
"615 341 OFFCURVE",
"650 341 CURVE SMOOTH",
"694 341 OFFCURVE",
"720 309 OFFCURVE",
"720 273 CURVE SMOOTH",
"720 235 OFFCURVE",
"701 211 OFFCURVE",
"672 183 CURVE SMOOTH",
"536 53 LINE",
"532 49 OFFCURVE",
"530 45 OFFCURVE",
"529 41 CURVE SMOOTH",
"527 38 OFFCURVE",
"527 34 OFFCURVE",
"527 30 CURVE SMOOTH",
"527 13 OFFCURVE",
"539 0 OFFCURVE",
"558 0 CURVE SMOOTH",
"767 0 LINE SMOOTH",
"784 0 OFFCURVE",
"797 12 OFFCURVE",
"797 28 CURVE SMOOTH",
"797 46 OFFCURVE",
"784 59 OFFCURVE",
"767 59 CURVE SMOOTH"
);
}
);
width = 867;
}
);
leftMetricsKey = one;
rightMetricsKey = two;
unicode = 00BD;
},
{
glyphname = onequarter;
lastChange = "2013-12-18 08:30:52 +0400";
layers = (
{
layerId = "9764FC2E-EF50-4B10-BB5F-6BAA27A55E88";
leftMetricsKey = one;
rightMetricsKey = four;
name = Regular;
paths = (
{
closed = 1;
nodes = (
"646 144 OFFCURVE",
"645 146 OFFCURVE",
"645 149 CURVE SMOOTH",
"645 370 LINE",
"644 376 LINE",
"642 391 OFFCURVE",
"631 402 OFFCURVE",
"616 402 CURVE",
"606 403 OFFCURVE",
"596 399 OFFCURVE",
"590 390 CURVE SMOOTH",
"392 135 LINE SMOOTH",
"386 128 OFFCURVE",
"384 121 OFFCURVE",
"385 113 CURVE",
"386 96 OFFCURVE",
"398 84 OFFCURVE",
"416 84 CURVE SMOOTH",
"580 84 LINE SMOOTH",
"583 84 OFFCURVE",
"585 82 OFFCURVE",
"585 79 CURVE SMOOTH",
"585 33 LINE SMOOTH",
"585 15 OFFCURVE",
"597 2 OFFCURVE",
"614 2 CURVE SMOOTH",
"632 2 OFFCURVE",
"645 15 OFFCURVE",
"645 33 CURVE SMOOTH",
"645 79 LINE SMOOTH",
"645 82 OFFCURVE",
"646 84 OFFCURVE",
"649 84 CURVE SMOOTH",
"667 84 OFFCURVE",
"680 96 OFFCURVE",
"680 113 CURVE SMOOTH",
"680 131 OFFCURVE",
"667 144 OFFCURVE",
"649 144 CURVE SMOOTH"
);
},
{
closed = 1;
nodes = (
"484 144 LINE SMOOTH",
"480 144 OFFCURVE",
"479 147 OFFCURVE",
"481 150 CURVE SMOOTH",
"579 276 LINE SMOOTH",
"582 280 OFFCURVE",
"585 278 OFFCURVE",
"585 274 CURVE SMOOTH",
"585 149 LINE SMOOTH",
"585 146 OFFCURVE",
"583 144 OFFCURVE",
"580 144 CURVE SMOOTH"
);
},
{
closed = 1;
nodes = (
"56 628 LINE",
"40 619 OFFCURVE",
"36 602 OFFCURVE",
"45 587 CURVE SMOOTH",
"54 572 OFFCURVE",
"71 568 OFFCURVE",
"87 577 CURVE SMOOTH",
"150 615 LINE SMOOTH",
"153 617 OFFCURVE",
"156 616 OFFCURVE",
"156 612 CURVE SMOOTH",
"156 332 LINE SMOOTH",
"156 314 OFFCURVE",
"168 301 OFFCURVE",
"185 301 CURVE SMOOTH",
"203 301 OFFCURVE",
"216 314 OFFCURVE",
"216 332 CURVE SMOOTH",
"216 670 LINE SMOOTH",
"216 684 OFFCURVE",
"209 695 OFFCURVE",
"197 699 CURVE",
"189 703 OFFCURVE",
"179 702 OFFCURVE",
"169 697 CURVE"
);
},
{
closed = 1;
nodes = (
"132 45 LINE SMOOTH",
"123 32 OFFCURVE",
"126 15 OFFCURVE",
"140 5 CURVE SMOOTH",
"154 -4 OFFCURVE",
"173 -1 OFFCURVE",
"183 14 CURVE SMOOTH",
"606 656 LINE SMOOTH",
"615 669 OFFCURVE",
"612 686 OFFCURVE",
"598 696 CURVE SMOOTH",
"584 706 OFFCURVE",
"565 702 OFFCURVE",
"555 687 CURVE SMOOTH"
);
}
);
width = 760;
}
);
leftMetricsKey = one;
rightMetricsKey = four;
unicode = 00BC;
},
{
glyphname = threequarters;
lastChange = "2013-12-18 08:30:52 +0400";
layers = (
{
layerId = "9764FC2E-EF50-4B10-BB5F-6BAA27A55E88";
leftMetricsKey = three;
rightMetricsKey = four;
name = Regular;
paths = (
{
closed = 1;
nodes = (
"725 144 OFFCURVE",
"724 146 OFFCURVE",
"724 149 CURVE SMOOTH",
"724 370 LINE",
"723 376 LINE",
"721 391 OFFCURVE",
"710 402 OFFCURVE",
"695 402 CURVE",
"685 403 OFFCURVE",
"675 399 OFFCURVE",
"669 390 CURVE SMOOTH",
"471 135 LINE SMOOTH",
"465 128 OFFCURVE",
"463 121 OFFCURVE",
"464 113 CURVE",
"465 96 OFFCURVE",
"477 84 OFFCURVE",
"495 84 CURVE SMOOTH",
"659 84 LINE SMOOTH",
"662 84 OFFCURVE",
"664 82 OFFCURVE",
"664 79 CURVE SMOOTH",
"664 33 LINE SMOOTH",
"664 15 OFFCURVE",
"676 2 OFFCURVE",
"693 2 CURVE SMOOTH",
"711 2 OFFCURVE",
"724 15 OFFCURVE",
"724 33 CURVE SMOOTH",
"724 79 LINE SMOOTH",
"724 82 OFFCURVE",
"725 84 OFFCURVE",
"728 84 CURVE SMOOTH",
"746 84 OFFCURVE",
"759 96 OFFCURVE",
"759 113 CURVE SMOOTH",
"759 131 OFFCURVE",
"746 144 OFFCURVE",
"728 144 CURVE SMOOTH"
);
},
{
closed = 1;
nodes = (
"563 144 LINE SMOOTH",
"559 144 OFFCURVE",
"558 147 OFFCURVE",
"560 150 CURVE SMOOTH",
"658 276 LINE SMOOTH",
"661 280 OFFCURVE",
"664 278 OFFCURVE",
"664 274 CURVE SMOOTH",
"664 149 LINE SMOOTH",
"664 146 OFFCURVE",
"662 144 OFFCURVE",
"659 144 CURVE SMOOTH"
);
},
{
closed = 1;
nodes = (
"209 45 LINE SMOOTH",
"200 32 OFFCURVE",
"203 15 OFFCURVE",
"217 5 CURVE SMOOTH",
"231 -4 OFFCURVE",
"250 -1 OFFCURVE",
"260 14 CURVE SMOOTH",
"683 656 LINE SMOOTH",
"692 669 OFFCURVE",
"689 686 OFFCURVE",
"675 696 CURVE SMOOTH",
"661 706 OFFCURVE",
"642 702 OFFCURVE",
"632 687 CURVE SMOOTH"
);
},
{
closed = 1;
nodes = (
"270 587 LINE SMOOTH",
"273 590 OFFCURVE",
"275 594 OFFCURVE",
"277 598 CURVE",
"278 601 OFFCURVE",
"279 606 OFFCURVE",
"279 610 CURVE SMOOTH",
"279 628 OFFCURVE",
"266 641 OFFCURVE",
"248 641 CURVE SMOOTH",
"81 641 LINE SMOOTH",
"63 641 OFFCURVE",
"50 629 OFFCURVE",
"50 612 CURVE SMOOTH",
"50 594 OFFCURVE",
"63 581 OFFCURVE",
"81 581 CURVE SMOOTH",
"185 581 LINE",
"112 501 LINE SMOOTH",
"101 487 OFFCURVE",
"102 469 OFFCURVE",
"114 458 CURVE SMOOTH",
"133 442 OFFCURVE",
"143 456 OFFCURVE",
"179 450 CURVE SMOOTH",
"210 445 OFFCURVE",
"235 419 OFFCURVE",
"235 380 CURVE SMOOTH",
"235 341 OFFCURVE",
"201 300 OFFCURVE",
"151 300 CURVE SMOOTH",
"132 300 OFFCURVE",
"105 311 OFFCURVE",
"96 316 CURVE SMOOTH",
"87 321 OFFCURVE",
"78 322 OFFCURVE",
"65 312 CURVE",
"49 297 OFFCURVE",
"50 274 OFFCURVE",
"68 263 CURVE SMOOTH",
"88 250 OFFCURVE",
"115 241 OFFCURVE",
"151 241 CURVE SMOOTH",
"238 241 OFFCURVE",
"294 313 OFFCURVE",
"294 380 CURVE SMOOTH",
"294 443 OFFCURVE",
"264 493 OFFCURVE",
"199 507 CURVE"
);
}
);
width = 839;
}
);
leftMetricsKey = three;
rightMetricsKey = four;
unicode = 00BE;
},
{
glyphname = onesuperior;
lastChange = "2013-12-18 08:30:52 +0400";
layers = (
{
layerId = "9764FC2E-EF50-4B10-BB5F-6BAA27A55E88";
name = Regular;
paths = (
{
closed = 1;
nodes = (
"45 627 LINE",
"29 618 OFFCURVE",
"25 601 OFFCURVE",
"34 587 CURVE SMOOTH",
"43 572 OFFCURVE",
"60 568 OFFCURVE",
"76 577 CURVE SMOOTH",
"139 614 LINE SMOOTH",
"142 616 OFFCURVE",
"145 615 OFFCURVE",
"145 611 CURVE SMOOTH",
"145 333 LINE SMOOTH",
"145 315 OFFCURVE",
"157 302 OFFCURVE",
"174 302 CURVE SMOOTH",
"192 302 OFFCURVE",
"205 315 OFFCURVE",
"205 333 CURVE SMOOTH",
"205 669 LINE SMOOTH",
"205 683 OFFCURVE",
"197 694 OFFCURVE",
"186 698 CURVE",
"177 702 OFFCURVE",
"167 701 OFFCURVE",
"158 696 CURVE"
);
}
);
width = 270;
}
);
leftMetricsKey = one;
rightMetricsKey = one;
unicode = 00B9;
},
{
glyphname = twosuperior;
lastChange = "2013-12-18 08:30:52 +0400";
layers = (
{
layerId = "9764FC2E-EF50-4B10-BB5F-6BAA27A55E88";
name = Regular;
paths = (
{
closed = 1;
nodes = (
"159 359 LINE",
"242 440 LINE SMOOTH",
"273 471 OFFCURVE",
"309 514 OFFCURVE",
"309 573 CURVE SMOOTH",
"309 636 OFFCURVE",
"260 700 OFFCURVE",
"179 700 CURVE SMOOTH",
"126 700 OFFCURVE",
"79 678 OFFCURVE",
"55 652 CURVE SMOOTH",
"42 637 OFFCURVE",
"44 619 OFFCURVE",
"58 608 CURVE",
"71 598 OFFCURVE",
"87 601 OFFCURVE",
"99 612 CURVE SMOOTH",
"118 630 OFFCURVE",
"144 641 OFFCURVE",
"179 641 CURVE SMOOTH",
"223 641 OFFCURVE",
"249 609 OFFCURVE",
"249 573 CURVE SMOOTH",
"249 535 OFFCURVE",
"230 511 OFFCURVE",
"201 483 CURVE SMOOTH",
"65 353 LINE",
"61 349 OFFCURVE",
"59 345 OFFCURVE",
"58 341 CURVE SMOOTH",
"56 338 OFFCURVE",
"56 334 OFFCURVE",
"56 330 CURVE SMOOTH",
"56 313 OFFCURVE",
"68 300 OFFCURVE",
"87 300 CURVE SMOOTH",
"296 300 LINE SMOOTH",
"313 300 OFFCURVE",
"326 312 OFFCURVE",
"326 328 CURVE SMOOTH",
"326 346 OFFCURVE",
"313 359 OFFCURVE",
"296 359 CURVE SMOOTH"
);
}
);
width = 378;
}
);
leftMetricsKey = two;
rightMetricsKey = two;
unicode = 00B2;
},
{
glyphname = threesuperior;
lastChange = "2013-12-18 08:30:52 +0400";
layers = (
{
layerId = "9764FC2E-EF50-4B10-BB5F-6BAA27A55E88";
name = Regular;
paths = (
{
closed = 1;
nodes = (
"259 646 LINE SMOOTH",
"262 649 OFFCURVE",
"264 653 OFFCURVE",
"266 657 CURVE",
"267 660 OFFCURVE",
"268 665 OFFCURVE",
"268 669 CURVE SMOOTH",
"268 687 OFFCURVE",
"255 700 OFFCURVE",
"237 700 CURVE SMOOTH",
"70 700 LINE SMOOTH",
"52 700 OFFCURVE",
"39 688 OFFCURVE",
"39 671 CURVE SMOOTH",
"39 653 OFFCURVE",
"52 640 OFFCURVE",
"70 640 CURVE SMOOTH",
"174 640 LINE",
"101 560 LINE SMOOTH",
"90 546 OFFCURVE",
"91 528 OFFCURVE",
"103 517 CURVE SMOOTH",
"122 501 OFFCURVE",
"132 515 OFFCURVE",
"168 509 CURVE SMOOTH",
"199 504 OFFCURVE",
"224 478 OFFCURVE",
"224 439 CURVE SMOOTH",
"224 400 OFFCURVE",
"190 359 OFFCURVE",
"140 359 CURVE SMOOTH",
"121 359 OFFCURVE",
"94 370 OFFCURVE",
"85 375 CURVE SMOOTH",
"76 380 OFFCURVE",
"67 381 OFFCURVE",
"54 371 CURVE",
"38 356 OFFCURVE",
"39 333 OFFCURVE",
"57 322 CURVE SMOOTH",
"77 309 OFFCURVE",
"104 300 OFFCURVE",
"140 300 CURVE SMOOTH",
"227 300 OFFCURVE",
"283 372 OFFCURVE",
"283 439 CURVE SMOOTH",
"283 502 OFFCURVE",
"253 552 OFFCURVE",
"188 566 CURVE"
);
}
);
width = 340;
}
);
leftMetricsKey = three;
rightMetricsKey = three;
unicode = 00B3;
},
{
glyphname = asterisk;
lastChange = "2013-12-18 08:30:52 +0400";
layers = (
{
layerId = "9764FC2E-EF50-4B10-BB5F-6BAA27A55E88";
name = Regular;
paths = (
{
closed = 1;
nodes = (
"197 542 LINE SMOOTH",
"189 546 OFFCURVE",
"189 552 OFFCURVE",
"197 556 CURVE SMOOTH",
"276 593 LINE SMOOTH",
"289 599 OFFCURVE",
"293 612 OFFCURVE",
"286 623 CURVE SMOOTH",
"282 629 LINE SMOOTH",
"276 641 OFFCURVE",
"263 643 OFFCURVE",
"252 636 CURVE SMOOTH",
"181 586 LINE SMOOTH",
"174 581 OFFCURVE",
"169 584 OFFCURVE",
"169 593 CURVE SMOOTH",
"176 679 LINE SMOOTH",
"177 692 OFFCURVE",
"168 702 OFFCURVE",
"155 702 CURVE SMOOTH",
"149 702 LINE SMOOTH",
"136 702 OFFCURVE",
"127 692 OFFCURVE",
"128 679 CURVE SMOOTH",
"135 593 LINE SMOOTH",
"135 584 OFFCURVE",
"130 581 OFFCURVE",
"123 586 CURVE SMOOTH",
"52 636 LINE SMOOTH",
"41 643 OFFCURVE",
"28 640 OFFCURVE",
"22 629 CURVE SMOOTH",
"18 623 LINE SMOOTH",
"11 612 OFFCURVE",
"15 599 OFFCURVE",
"27 593 CURVE SMOOTH",
"107 556 LINE SMOOTH",
"115 552 OFFCURVE",
"115 546 OFFCURVE",
"107 542 CURVE SMOOTH",
"27 505 LINE SMOOTH",
"15 500 OFFCURVE",
"11 487 OFFCURVE",
"17 476 CURVE SMOOTH",
"21 469 LINE SMOOTH",
"28 458 OFFCURVE",
"41 455 OFFCURVE",
"52 462 CURVE SMOOTH",
"123 513 LINE SMOOTH",
"130 518 OFFCURVE",
"135 515 OFFCURVE",
"135 506 CURVE SMOOTH",
"128 420 LINE SMOOTH",
"127 407 OFFCURVE",
"136 397 OFFCURVE",
"149 397 CURVE SMOOTH",
"155 397 LINE SMOOTH",
"168 397 OFFCURVE",
"177 407 OFFCURVE",
"176 420 CURVE SMOOTH",
"169 506 LINE SMOOTH",
"169 515 OFFCURVE",
"174 518 OFFCURVE",
"181 513 CURVE SMOOTH",
"252 462 LINE SMOOTH",
"263 455 OFFCURVE",
"276 457 OFFCURVE",
"283 469 CURVE SMOOTH",
"287 476 LINE SMOOTH",
"293 487 OFFCURVE",
"289 500 OFFCURVE",
"277 506 CURVE SMOOTH"
);
}
);
width = 303;
}
);
unicode = 002A;
},
{
glyphname = backslash;
lastChange = "2013-12-18 08:30:52 +0400";
layers = (
{
layerId = "9764FC2E-EF50-4B10-BB5F-6BAA27A55E88";
name = Regular;
paths = (
{
closed = 1;
nodes = (
"66 794 OFFCURVE",
"57 800 OFFCURVE",
"43 800 CURVE SMOOTH",
"25 800 LINE SMOOTH",
"6 800 OFFCURVE",
"-2 788 OFFCURVE",
"7 770 CURVE SMOOTH",
"447 -108 LINE SMOOTH",
"453 -120 OFFCURVE",
"462 -126 OFFCURVE",
"476 -126 CURVE SMOOTH",
"494 -126 LINE SMOOTH",
"513 -126 OFFCURVE",
"521 -114 OFFCURVE",
"512 -96 CURVE SMOOTH",
"72 782 LINE SMOOTH"
);
}
);
width = 496;
}
);
unicode = 005C;
},
{
glyphname = bullet;
lastChange = "2013-12-18 08:30:52 +0400";
layers = (
{
layerId = "9764FC2E-EF50-4B10-BB5F-6BAA27A55E88";
name = Regular;
paths = (
{
closed = 1;
nodes = (
"308 424 OFFCURVE",
"249 483 OFFCURVE",
"177 483 CURVE SMOOTH",
"105 483 OFFCURVE",
"46 424 OFFCURVE",
"46 352 CURVE SMOOTH",
"46 280 OFFCURVE",
"105 221 OFFCURVE",
"177 221 CURVE SMOOTH",
"249 221 OFFCURVE",
"308 280 OFFCURVE",
"308 352 CURVE SMOOTH"
);
}
);
width = 354;
}
);
unicode = 2022;
},
{
glyphname = colon;
lastChange = "2013-12-18 08:30:52 +0400";
layers = (
{
layerId = "9764FC2E-EF50-4B10-BB5F-6BAA27A55E88";
name = Regular;
paths = (
{
closed = 1;
nodes = (
"130 476 LINE SMOOTH",
"130 500 OFFCURVE",
"113 517 OFFCURVE",
"89 517 CURVE SMOOTH",
"79 517 LINE SMOOTH",
"55 517 OFFCURVE",
"38 500 OFFCURVE",
"38 476 CURVE SMOOTH",
"38 453 LINE SMOOTH",
"38 429 OFFCURVE",
"55 412 OFFCURVE",
"79 412 CURVE SMOOTH",
"89 412 LINE SMOOTH",
"113 412 OFFCURVE",
"130 429 OFFCURVE",
"130 453 CURVE SMOOTH"
);
},
{
closed = 1;
nodes = (
"130 64 LINE SMOOTH",
"130 88 OFFCURVE",
"113 105 OFFCURVE",
"89 105 CURVE SMOOTH",
"79 105 LINE SMOOTH",
"55 105 OFFCURVE",
"38 88 OFFCURVE",
"38 64 CURVE SMOOTH",
"38 41 LINE SMOOTH",
"38 17 OFFCURVE",
"55 0 OFFCURVE",
"79 0 CURVE SMOOTH",
"89 0 LINE SMOOTH",
"113 0 OFFCURVE",
"130 17 OFFCURVE",
"130 41 CURVE SMOOTH"
);
}
);
width = 168;
}
);
unicode = 003A;
},
{
glyphname = comma;
lastChange = "2013-12-18 08:30:52 +0400";
layers = (
{
layerId = "9764FC2E-EF50-4B10-BB5F-6BAA27A55E88";
name = Regular;
paths = (
{
closed = 1;
nodes = (
"43 -115 OFFCURVE",
"61 -119 OFFCURVE",
"82 -111 CURVE SMOOTH",
"132 -90 OFFCURVE",
"156 -52 OFFCURVE",
"156 15 CURVE SMOOTH",
"156 64 LINE SMOOTH",
"156 88 OFFCURVE",
"139 105 OFFCURVE",
"115 105 CURVE SMOOTH",
"105 105 LINE SMOOTH",
"81 105 OFFCURVE",
"64 88 OFFCURVE",
"64 64 CURVE SMOOTH",
"64 41 LINE SMOOTH",
"64 19 OFFCURVE",
"77 3 OFFCURVE",
"95 0 CURVE SMOOTH",
"98 0 OFFCURVE",
"100 -2 OFFCURVE",
"100 -5 CURVE SMOOTH",
"102 -34 OFFCURVE",
"91 -56 OFFCURVE",
"65 -72 CURVE SMOOTH",
"47 -83 OFFCURVE",
"35 -94 OFFCURVE",
"39 -105 CURVE SMOOTH"
);
}
);
width = 194;
}
);
unicode = 002C;
},
{
glyphname = ellipsis;
lastChange = "2013-12-18 08:30:52 +0400";
layers = (
{
layerId = "9764FC2E-EF50-4B10-BB5F-6BAA27A55E88";
name = Regular;
paths = (
{
closed = 1;
nodes = (
"608 62 LINE SMOOTH",
"608 86 OFFCURVE",
"591 103 OFFCURVE",
"567 103 CURVE SMOOTH",
"559 103 LINE SMOOTH",
"535 103 OFFCURVE",
"518 86 OFFCURVE",
"518 62 CURVE SMOOTH",
"518 41 LINE SMOOTH",
"518 17 OFFCURVE",
"535 0 OFFCURVE",
"559 0 CURVE SMOOTH",
"567 0 LINE SMOOTH",
"591 0 OFFCURVE",
"608 17 OFFCURVE",
"608 41 CURVE SMOOTH"
);
},
{
closed = 1;
nodes = (
"367 62 LINE SMOOTH",
"367 86 OFFCURVE",
"350 103 OFFCURVE",
"326 103 CURVE SMOOTH",
"319 103 LINE SMOOTH",
"295 103 OFFCURVE",
"278 86 OFFCURVE",
"278 62 CURVE SMOOTH",
"278 41 LINE SMOOTH",
"278 17 OFFCURVE",
"295 0 OFFCURVE",
"319 0 CURVE SMOOTH",
"326 0 LINE SMOOTH",
"350 0 OFFCURVE",
"367 17 OFFCURVE",
"367 41 CURVE SMOOTH"
);
},
{
closed = 1;
nodes = (
"127 62 LINE SMOOTH",
"127 86 OFFCURVE",
"110 103 OFFCURVE",
"86 103 CURVE SMOOTH",
"79 103 LINE SMOOTH",
"55 103 OFFCURVE",
"38 86 OFFCURVE",
"38 62 CURVE SMOOTH",
"38 41 LINE SMOOTH",
"38 17 OFFCURVE",
"55 0 OFFCURVE",
"79 0 CURVE SMOOTH",
"86 0 LINE SMOOTH",
"110 0 OFFCURVE",
"127 17 OFFCURVE",
"127 41 CURVE SMOOTH"
);
}
);
width = 646;
}
);
unicode = 2026;
},
{
glyphname = exclam;
lastChange = "2013-12-18 08:30:52 +0400";
layers = (
{
layerId = "9764FC2E-EF50-4B10-BB5F-6BAA27A55E88";
name = Regular;
paths = (
{
closed = 1;
nodes = (
"47 643 LINE",
"69 227 LINE SMOOTH",
"69 210 OFFCURVE",
"75 198 OFFCURVE",
"92 198 CURVE SMOOTH",
"109 198 OFFCURVE",
"114 210 OFFCURVE",
"115 226 CURVE SMOOTH",
"137 643 LINE",
"137 669 LINE SMOOTH",
"137 687 OFFCURVE",
"124 700 OFFCURVE",
"106 700 CURVE SMOOTH",
"78 700 LINE SMOOTH",
"60 700 OFFCURVE",
"47 688 OFFCURVE",
"47 672 CURVE SMOOTH"
);
},
{
closed = 1;
nodes = (
"138 74 LINE SMOOTH",
"138 92 OFFCURVE",
"125 105 OFFCURVE",
"107 105 CURVE SMOOTH",
"77 105 LINE SMOOTH",
"59 105 OFFCURVE",
"46 92 OFFCURVE",
"46 74 CURVE SMOOTH",
"46 31 LINE SMOOTH",
"46 13 OFFCURVE",
"59 0 OFFCURVE",
"77 0 CURVE SMOOTH",
"107 0 LINE SMOOTH",
"125 0 OFFCURVE",
"138 13 OFFCURVE",
"138 31 CURVE SMOOTH"
);
}
);
width = 183;
}
);
unicode = 0021;
},
{
glyphname = exclamdown;
lastChange = "2013-12-18 08:30:52 +0400";
layers = (
{
layerId = "9764FC2E-EF50-4B10-BB5F-6BAA27A55E88";
name = Regular;
paths = (
{
closed = 1;
nodes = (
"47 13 OFFCURVE",
"60 1 OFFCURVE",
"78 1 CURVE SMOOTH",
"106 1 LINE SMOOTH",
"124 1 OFFCURVE",
"137 14 OFFCURVE",
"137 32 CURVE SMOOTH",
"137 58 LINE",
"115 475 LINE SMOOTH",
"114 491 OFFCURVE",
"109 503 OFFCURVE",
"92 503 CURVE SMOOTH",
"75 503 OFFCURVE",
"69 491 OFFCURVE",
"69 474 CURVE SMOOTH",
"47 58 LINE",
"47 29 LINE SMOOTH"
);
},
{
closed = 1;
nodes = (
"138 688 OFFCURVE",
"125 701 OFFCURVE",
"107 701 CURVE SMOOTH",
"77 701 LINE SMOOTH",
"59 701 OFFCURVE",
"46 688 OFFCURVE",
"46 670 CURVE SMOOTH",
"46 627 LINE SMOOTH",
"46 609 OFFCURVE",
"59 596 OFFCURVE",
"77 596 CURVE SMOOTH",
"107 596 LINE SMOOTH",
"125 596 OFFCURVE",
"138 609 OFFCURVE",
"138 627 CURVE SMOOTH",
"138 670 LINE SMOOTH"
);
}
);
width = 183;
}
);
unicode = 00A1;
},
{
glyphname = numbersign;
lastChange = "2013-12-18 08:30:52 +0400";
layers = (
{
layerId = "9764FC2E-EF50-4B10-BB5F-6BAA27A55E88";
name = Regular;
paths = (
{
closed = 1;
nodes = (
"630 496 LINE SMOOTH",
"630 514 OFFCURVE",
"617 527 OFFCURVE",
"599 527 CURVE SMOOTH",
"533 527 LINE SMOOTH",
"526 527 OFFCURVE",
"523 531 OFFCURVE",
"524 538 CURVE SMOOTH",
"545 662 LINE SMOOTH",
"548 683 OFFCURVE",
"534 700 OFFCURVE",
"513 700 CURVE SMOOTH",
"505 700 LINE SMOOTH",
"491 700 OFFCURVE",
"479 690 OFFCURVE",
"477 676 CURVE SMOOTH",
"453 536 LINE SMOOTH",
"452 530 OFFCURVE",
"448 527 OFFCURVE",
"442 527 CURVE SMOOTH",
"272 527 LINE SMOOTH",
"265 527 OFFCURVE",
"262 531 OFFCURVE",
"263 538 CURVE SMOOTH",
"284 662 LINE SMOOTH",
"287 683 OFFCURVE",
"273 700 OFFCURVE",
"252 700 CURVE SMOOTH",
"244 700 LINE SMOOTH",
"230 700 OFFCURVE",
"218 690 OFFCURVE",
"216 676 CURVE SMOOTH",
"192 536 LINE SMOOTH",
"191 530 OFFCURVE",
"187 527 OFFCURVE",
"181 527 CURVE SMOOTH",
"91 527 LINE SMOOTH",
"73 527 OFFCURVE",
"60 514 OFFCURVE",
"60 496 CURVE SMOOTH",
"60 489 LINE SMOOTH",
"60 471 OFFCURVE",
"73 458 OFFCURVE",
"91 458 CURVE SMOOTH",
"168 458 LINE SMOOTH",
"175 458 OFFCURVE",
"178 454 OFFCURVE",
"177 447 CURVE SMOOTH",
"144 255 LINE SMOOTH",
"143 249 OFFCURVE",
"139 246 OFFCURVE",
"133 246 CURVE SMOOTH",
"51 246 LINE SMOOTH",
"33 246 OFFCURVE",
"20 233 OFFCURVE",
"20 215 CURVE SMOOTH",
"20 208 LINE SMOOTH",
"20 190 OFFCURVE",
"33 177 OFFCURVE",
"51 177 CURVE SMOOTH",
"119 177 LINE SMOOTH",
"126 177 OFFCURVE",
"129 173 OFFCURVE",
"128 166 CURVE SMOOTH",
"106 38 LINE SMOOTH",
"103 17 OFFCURVE",
"117 0 OFFCURVE",
"138 0 CURVE SMOOTH",
"146 0 LINE SMOOTH",
"160 0 OFFCURVE",
"172 10 OFFCURVE",
"174 24 CURVE SMOOTH",
"199 168 LINE SMOOTH",
"200 174 OFFCURVE",
"204 177 OFFCURVE",
"210 177 CURVE SMOOTH",
"380 177 LINE SMOOTH",
"387 177 OFFCURVE",
"390 173 OFFCURVE",
"389 166 CURVE SMOOTH",
"367 38 LINE SMOOTH",
"364 17 OFFCURVE",
"378 0 OFFCURVE",
"399 0 CURVE SMOOTH",
"407 0 LINE SMOOTH",
"421 0 OFFCURVE",
"433 10 OFFCURVE",
"435 24 CURVE SMOOTH",
"460 168 LINE SMOOTH",
"461 174 OFFCURVE",
"465 177 OFFCURVE",
"471 177 CURVE SMOOTH",
"560 177 LINE SMOOTH",
"578 177 OFFCURVE",
"591 190 OFFCURVE",
"591 208 CURVE SMOOTH",
"591 215 LINE SMOOTH",
"591 233 OFFCURVE",
"578 246 OFFCURVE",
"560 246 CURVE SMOOTH",
"484 246 LINE SMOOTH",
"477 246 OFFCURVE",
"474 250 OFFCURVE",
"475 257 CURVE SMOOTH",
"508 449 LINE SMOOTH",
"509 455 OFFCURVE",
"513 458 OFFCURVE",
"519 458 CURVE SMOOTH",
"599 458 LINE SMOOTH",
"617 458 OFFCURVE",
"630 471 OFFCURVE",
"630 489 CURVE SMOOTH"
);
},
{
closed = 1;
nodes = (
"405 255 LINE SMOOTH",
"404 249 OFFCURVE",
"400 246 OFFCURVE",
"394 246 CURVE SMOOTH",
"224 246 LINE SMOOTH",
"217 246 OFFCURVE",
"214 250 OFFCURVE",
"215 257 CURVE SMOOTH",
"247 449 LINE SMOOTH",
"248 455 OFFCURVE",
"252 458 OFFCURVE",
"258 458 CURVE SMOOTH",
"428 458 LINE SMOOTH",
"435 458 OFFCURVE",
"438 454 OFFCURVE",
"437 447 CURVE SMOOTH"
);
}
);
width = 650;
}
);
unicode = 0023;
},
{
glyphname = period;
lastChange = "2013-12-18 08:30:52 +0400";
layers = (
{
layerId = "9764FC2E-EF50-4B10-BB5F-6BAA27A55E88";
name = Regular;
paths = (
{
closed = 1;
nodes = (
"134 62 LINE SMOOTH",
"134 86 OFFCURVE",
"117 103 OFFCURVE",
"93 103 CURVE SMOOTH",
"86 103 LINE SMOOTH",
"62 103 OFFCURVE",
"45 86 OFFCURVE",
"45 62 CURVE SMOOTH",
"45 41 LINE SMOOTH",
"45 17 OFFCURVE",
"62 0 OFFCURVE",
"86 0 CURVE SMOOTH",
"93 0 LINE SMOOTH",
"117 0 OFFCURVE",
"134 17 OFFCURVE",
"134 41 CURVE SMOOTH"
);
}
);
width = 179;
}
);
unicode = 002E;
},
{
glyphname = periodcentered;
lastChange = "2013-12-18 08:30:52 +0400";
layers = (
{
layerId = "9764FC2E-EF50-4B10-BB5F-6BAA27A55E88";
name = Regular;
paths = (
{
closed = 1;
nodes = (
"133 312 LINE SMOOTH",
"133 336 OFFCURVE",
"116 353 OFFCURVE",
"92 353 CURVE SMOOTH",
"82 353 LINE SMOOTH",
"58 353 OFFCURVE",
"41 336 OFFCURVE",
"41 312 CURVE SMOOTH",
"41 289 LINE SMOOTH",
"41 265 OFFCURVE",
"58 248 OFFCURVE",
"82 248 CURVE SMOOTH",
"92 248 LINE SMOOTH",
"116 248 OFFCURVE",
"133 265 OFFCURVE",
"133 289 CURVE SMOOTH"
);
}
);
width = 175;
}
);
unicode = 00B7;
},
{
glyphname = question;
lastChange = "2013-12-18 08:30:52 +0400";
layers = (
{
layerId = "9764FC2E-EF50-4B10-BB5F-6BAA27A55E88";
name = Regular;
paths = (
{
closed = 1;
nodes = (
"189 195 LINE SMOOTH",
"189 174 OFFCURVE",
"203 159 OFFCURVE",
"223 159 CURVE SMOOTH",
"244 159 OFFCURVE",
"259 174 OFFCURVE",
"259 195 CURVE SMOOTH",
"259 289 LINE SMOOTH",
"259 292 OFFCURVE",
"261 294 OFFCURVE",
"264 294 CURVE SMOOTH",
"383 317 OFFCURVE",
"468 395 OFFCURVE",
"468 511 CURVE SMOOTH",
"468 644 OFFCURVE",
"359 740 OFFCURVE",
"224 740 CURVE SMOOTH",
"151 740 OFFCURVE",
"80 703 OFFCURVE",
"35 651 CURVE",
"21 633 OFFCURVE",
"27 610 OFFCURVE",
"46 599 CURVE SMOOTH",
"62 590 OFFCURVE",
"79 595 OFFCURVE",
"91 609 CURVE SMOOTH",
"123 647 OFFCURVE",
"170 670 OFFCURVE",
"224 670 CURVE SMOOTH",
"321 670 OFFCURVE",
"398 608 OFFCURVE",
"398 511 CURVE SMOOTH",
"398 420 OFFCURVE",
"334 369 OFFCURVE",
"222 359 CURVE",
"200 356 OFFCURVE",
"189 339 OFFCURVE",
"189 324 CURVE SMOOTH"
);
},
{
closed = 1;
nodes = (
"189 36 LINE SMOOTH",
"189 15 OFFCURVE",
"203 0 OFFCURVE",
"223 0 CURVE SMOOTH",
"244 0 OFFCURVE",
"259 15 OFFCURVE",
"259 36 CURVE SMOOTH",
"259 82 LINE SMOOTH",
"259 103 OFFCURVE",
"245 118 OFFCURVE",
"225 118 CURVE SMOOTH",
"204 118 OFFCURVE",
"189 103 OFFCURVE",
"189 82 CURVE SMOOTH"
);
}
);
width = 500;
}
);
unicode = 003F;
},
{
glyphname = questiondown;
lastChange = "2013-12-18 08:30:52 +0400";
layers = (
{
layerId = "9764FC2E-EF50-4B10-BB5F-6BAA27A55E88";
name = Regular;
paths = (
{
closed = 1;
nodes = (
"306 360 LINE SMOOTH",
"306 381 OFFCURVE",
"292 396 OFFCURVE",
"272 396 CURVE SMOOTH",
"251 396 OFFCURVE",
"236 381 OFFCURVE",
"236 360 CURVE SMOOTH",
"236 266 LINE SMOOTH",
"236 263 OFFCURVE",
"234 261 OFFCURVE",
"231 261 CURVE SMOOTH",
"112 238 OFFCURVE",
"27 160 OFFCURVE",
"27 44 CURVE SMOOTH",
"27 -89 OFFCURVE",
"136 -185 OFFCURVE",
"271 -185 CURVE SMOOTH",
"344 -185 OFFCURVE",
"415 -148 OFFCURVE",
"460 -96 CURVE",
"474 -78 OFFCURVE",
"468 -55 OFFCURVE",
"449 -44 CURVE SMOOTH",
"433 -35 OFFCURVE",
"416 -40 OFFCURVE",
"404 -54 CURVE SMOOTH",
"372 -92 OFFCURVE",
"325 -115 OFFCURVE",
"271 -115 CURVE SMOOTH",
"174 -115 OFFCURVE",
"97 -53 OFFCURVE",
"97 44 CURVE SMOOTH",
"97 135 OFFCURVE",
"161 186 OFFCURVE",
"273 196 CURVE",
"295 199 OFFCURVE",
"306 216 OFFCURVE",
"306 231 CURVE SMOOTH"
);
},
{
closed = 1;
nodes = (
"306 519 LINE SMOOTH",
"306 540 OFFCURVE",
"292 555 OFFCURVE",
"272 555 CURVE SMOOTH",
"251 555 OFFCURVE",
"236 540 OFFCURVE",
"236 519 CURVE SMOOTH",
"236 473 LINE SMOOTH",
"236 452 OFFCURVE",
"250 437 OFFCURVE",
"270 437 CURVE SMOOTH",
"291 437 OFFCURVE",
"306 452 OFFCURVE",
"306 473 CURVE SMOOTH"
);
}
);
width = 500;
}
);
unicode = 00BF;
},
{
glyphname = quotedbl;
lastChange = "2013-12-18 08:30:52 +0400";
layers = (
{
layerId = "9764FC2E-EF50-4B10-BB5F-6BAA27A55E88";
name = Regular;
paths = (
{
closed = 1;
nodes = (
"76 438 OFFCURVE",
"81 439 OFFCURVE",
"86 456 CURVE SMOOTH",
"156 674 LINE SMOOTH",
"162 693 OFFCURVE",
"153 709 OFFCURVE",
"134 710 CURVE SMOOTH",
"131 710 OFFCURVE",
"127 710 OFFCURVE",
"124 710 CURVE SMOOTH",
"108 710 LINE SMOOTH",
"87 710 OFFCURVE",
"71 696 OFFCURVE",
"69 675 CURVE SMOOTH",
"48 456 LINE SMOOTH",
"47 444 OFFCURVE",
"52 438 OFFCURVE",
"63 438 CURVE SMOOTH"
);
},
{
closed = 1;
nodes = (
"271 438 OFFCURVE",
"276 439 OFFCURVE",
"281 456 CURVE SMOOTH",
"351 674 LINE SMOOTH",
"357 693 OFFCURVE",
"348 709 OFFCURVE",
"329 710 CURVE SMOOTH",
"326 710 OFFCURVE",
"322 710 OFFCURVE",
"319 710 CURVE SMOOTH",
"303 710 LINE SMOOTH",
"282 710 OFFCURVE",
"266 696 OFFCURVE",
"264 675 CURVE SMOOTH",
"243 456 LINE SMOOTH",
"242 444 OFFCURVE",
"247 438 OFFCURVE",
"258 438 CURVE SMOOTH"
);
}
);
width = 398;
}
);
unicode = 0022;
},
{
glyphname = quotesingle;
lastChange = "2013-12-18 08:30:52 +0400";
layers = (
{
layerId = "9764FC2E-EF50-4B10-BB5F-6BAA27A55E88";
name = Regular;
paths = (
{
closed = 1;
nodes = (
"76 438 OFFCURVE",
"81 439 OFFCURVE",
"86 456 CURVE SMOOTH",
"156 674 LINE SMOOTH",
"162 693 OFFCURVE",
"153 709 OFFCURVE",
"134 710 CURVE SMOOTH",
"131 710 OFFCURVE",
"127 710 OFFCURVE",
"124 710 CURVE SMOOTH",
"108 710 LINE SMOOTH",
"87 710 OFFCURVE",
"71 696 OFFCURVE",
"69 675 CURVE SMOOTH",
"48 456 LINE SMOOTH",
"47 444 OFFCURVE",
"52 438 OFFCURVE",
"63 438 CURVE SMOOTH"
);
}
);
width = 203;
}
);
unicode = 0027;
},
{
glyphname = semicolon;
lastChange = "2013-12-18 08:30:52 +0400";
layers = (
{
layerId = "9764FC2E-EF50-4B10-BB5F-6BAA27A55E88";
name = Regular;
paths = (
{
closed = 1;
nodes = (
"156 476 LINE SMOOTH",
"156 500 OFFCURVE",
"139 517 OFFCURVE",
"115 517 CURVE SMOOTH",
"105 517 LINE SMOOTH",
"81 517 OFFCURVE",
"64 500 OFFCURVE",
"64 476 CURVE SMOOTH",
"64 453 LINE SMOOTH",
"64 429 OFFCURVE",
"81 412 OFFCURVE",
"105 412 CURVE SMOOTH",
"115 412 LINE SMOOTH",
"139 412 OFFCURVE",
"156 429 OFFCURVE",
"156 453 CURVE SMOOTH"
);
},
{
closed = 1;
nodes = (
"43 -115 OFFCURVE",
"61 -119 OFFCURVE",
"82 -111 CURVE SMOOTH",
"132 -90 OFFCURVE",
"156 -52 OFFCURVE",
"156 15 CURVE SMOOTH",
"156 64 LINE SMOOTH",
"156 88 OFFCURVE",
"139 105 OFFCURVE",
"115 105 CURVE SMOOTH",
"105 105 LINE SMOOTH",
"81 105 OFFCURVE",
"64 88 OFFCURVE",
"64 64 CURVE SMOOTH",
"64 41 LINE SMOOTH",
"64 19 OFFCURVE",
"77 3 OFFCURVE",
"95 0 CURVE SMOOTH",
"98 0 OFFCURVE",
"100 -2 OFFCURVE",
"100 -5 CURVE SMOOTH",
"102 -34 OFFCURVE",
"91 -56 OFFCURVE",
"65 -72 CURVE SMOOTH",
"47 -83 OFFCURVE",
"35 -94 OFFCURVE",
"39 -105 CURVE SMOOTH"
);
}
);
width = 194;
}
);
unicode = 003B;
},
{
glyphname = slash;
lastChange = "2013-12-18 08:30:52 +0400";
layers = (
{
layerId = "9764FC2E-EF50-4B10-BB5F-6BAA27A55E88";
name = Regular;
paths = (
{
closed = 1;
nodes = (
"-16 -96 LINE SMOOTH",
"-25 -114 OFFCURVE",
"-17 -126 OFFCURVE",
"2 -126 CURVE SMOOTH",
"20 -126 LINE SMOOTH",
"34 -126 OFFCURVE",
"43 -120 OFFCURVE",
"49 -108 CURVE SMOOTH",
"489 770 LINE SMOOTH",
"498 788 OFFCURVE",
"490 800 OFFCURVE",
"471 800 CURVE SMOOTH",
"453 800 LINE SMOOTH",
"439 800 OFFCURVE",
"430 794 OFFCURVE",
"424 782 CURVE SMOOTH"
);
}
);
width = 496;
}
);
unicode = 002F;
},
{
glyphname = underscore;
lastChange = "2013-12-18 08:30:52 +0400";
layers = (
{
layerId = "9764FC2E-EF50-4B10-BB5F-6BAA27A55E88";
name = Regular;
paths = (
{
closed = 1;
nodes = (
"20 -129 LINE SMOOTH",
"20 -147 OFFCURVE",
"33 -160 OFFCURVE",
"51 -160 CURVE SMOOTH",
"593 -160 LINE SMOOTH",
"611 -160 OFFCURVE",
"624 -147 OFFCURVE",
"624 -129 CURVE SMOOTH",
"624 -128 LINE SMOOTH",
"624 -110 OFFCURVE",
"611 -97 OFFCURVE",
"593 -97 CURVE SMOOTH",
"51 -97 LINE SMOOTH",
"33 -97 OFFCURVE",
"20 -110 OFFCURVE",
"20 -128 CURVE SMOOTH"
);
}
);
width = 644;
}
);
unicode = 005F;
},
{
glyphname = braceleft;
lastChange = "2013-12-18 08:30:52 +0400";
layers = (
{
layerId = "9764FC2E-EF50-4B10-BB5F-6BAA27A55E88";
name = Regular;
paths = (
{
closed = 1;
nodes = (
"389 765 OFFCURVE",
"375 773 OFFCURVE",
"357 769 CURVE SMOOTH",
"203 734 OFFCURVE",
"170 641 OFFCURVE",
"170 543 CURVE SMOOTH",
"171 467 LINE SMOOTH",
"171 389 OFFCURVE",
"143 347 OFFCURVE",
"53 347 CURVE SMOOTH",
"38 347 OFFCURVE",
"27 335 OFFCURVE",
"27 318 CURVE SMOOTH",
"27 300 OFFCURVE",
"38 287 OFFCURVE",
"53 287 CURVE SMOOTH",
"143 287 OFFCURVE",
"171 245 OFFCURVE",
"171 167 CURVE SMOOTH",
"170 91 LINE SMOOTH",
"170 -7 OFFCURVE",
"203 -100 OFFCURVE",
"356 -135 CURVE SMOOTH",
"374 -139 OFFCURVE",
"389 -131 OFFCURVE",
"392 -118 CURVE SMOOTH",
"396 -102 OFFCURVE",
"387 -87 OFFCURVE",
"370 -82 CURVE SMOOTH",
"257 -48 OFFCURVE",
"243 18 OFFCURVE",
"243 101 CURVE SMOOTH",
"244 176 LINE SMOOTH",
"244 254 OFFCURVE",
"212 290 OFFCURVE",
"154 312 CURVE SMOOTH",
"146 315 OFFCURVE",
"146 319 OFFCURVE",
"154 322 CURVE SMOOTH",
"210 343 OFFCURVE",
"244 380 OFFCURVE",
"244 458 CURVE SMOOTH",
"243 533 LINE SMOOTH",
"243 616 OFFCURVE",
"257 682 OFFCURVE",
"370 716 CURVE SMOOTH",
"387 721 OFFCURVE",
"397 735 OFFCURVE",
"393 750 CURVE SMOOTH"
);
}
);
width = 438;
}
);
unicode = 007B;
},
{
glyphname = braceright;
lastChange = "2013-12-18 08:30:52 +0400";
layers = (
{
layerId = "9764FC2E-EF50-4B10-BB5F-6BAA27A55E88";
name = Regular;
paths = (
{
closed = 1;
nodes = (
"40 735 OFFCURVE",
"50 721 OFFCURVE",
"67 716 CURVE SMOOTH",
"180 682 OFFCURVE",
"194 616 OFFCURVE",
"194 533 CURVE SMOOTH",
"193 458 LINE SMOOTH",
"193 380 OFFCURVE",
"227 343 OFFCURVE",
"283 322 CURVE SMOOTH",
"291 319 OFFCURVE",
"291 315 OFFCURVE",
"283 312 CURVE SMOOTH",
"225 290 OFFCURVE",
"193 254 OFFCURVE",
"193 176 CURVE SMOOTH",
"194 101 LINE SMOOTH",
"194 18 OFFCURVE",
"180 -48 OFFCURVE",
"67 -82 CURVE SMOOTH",
"50 -87 OFFCURVE",
"41 -102 OFFCURVE",
"45 -118 CURVE SMOOTH",
"48 -131 OFFCURVE",
"63 -139 OFFCURVE",
"81 -135 CURVE SMOOTH",
"234 -100 OFFCURVE",
"267 -7 OFFCURVE",
"267 91 CURVE SMOOTH",
"266 167 LINE SMOOTH",
"266 245 OFFCURVE",
"294 287 OFFCURVE",
"384 287 CURVE SMOOTH",
"399 287 OFFCURVE",
"410 300 OFFCURVE",
"410 318 CURVE SMOOTH",
"410 335 OFFCURVE",
"399 347 OFFCURVE",
"384 347 CURVE SMOOTH",
"294 347 OFFCURVE",
"266 389 OFFCURVE",
"266 467 CURVE SMOOTH",
"267 543 LINE SMOOTH",
"267 641 OFFCURVE",
"234 734 OFFCURVE",
"80 769 CURVE SMOOTH",
"62 773 OFFCURVE",
"48 765 OFFCURVE",
"44 750 CURVE SMOOTH"
);
}
);
width = 437;
}
);
unicode = 007D;
},
{
glyphname = bracketleft;
lastChange = "2013-12-18 08:30:52 +0400";
layers = (
{
layerId = "9764FC2E-EF50-4B10-BB5F-6BAA27A55E88";
name = Regular;
paths = (
{
closed = 1;
nodes = (
"97 760 LINE SMOOTH",
"79 760 OFFCURVE",
"66 747 OFFCURVE",
"66 729 CURVE SMOOTH",
"66 -99 LINE SMOOTH",
"66 -117 OFFCURVE",
"79 -130 OFFCURVE",
"97 -130 CURVE SMOOTH",
"321 -130 LINE SMOOTH",
"339 -130 OFFCURVE",
"352 -118 OFFCURVE",
"352 -101 CURVE SMOOTH",
"352 -83 OFFCURVE",
"339 -70 OFFCURVE",
"321 -70 CURVE SMOOTH",
"149 -70 LINE SMOOTH",
"143 -70 OFFCURVE",
"139 -66 OFFCURVE",
"139 -60 CURVE SMOOTH",
"139 690 LINE SMOOTH",
"139 697 OFFCURVE",
"143 700 OFFCURVE",
"149 700 CURVE SMOOTH",
"321 700 LINE SMOOTH",
"339 700 OFFCURVE",
"352 712 OFFCURVE",
"352 729 CURVE SMOOTH",
"352 747 OFFCURVE",
"339 760 OFFCURVE",
"321 760 CURVE SMOOTH"
);
}
);
width = 396;
}
);
unicode = 005B;
},
{
glyphname = bracketright;
lastChange = "2013-12-18 08:30:52 +0400";
layers = (
{
layerId = "9764FC2E-EF50-4B10-BB5F-6BAA27A55E88";
name = Regular;
paths = (
{
closed = 1;
nodes = (
"56 760 OFFCURVE",
"43 747 OFFCURVE",
"43 729 CURVE SMOOTH",
"43 712 OFFCURVE",
"56 700 OFFCURVE",
"74 700 CURVE SMOOTH",
"246 700 LINE SMOOTH",
"252 700 OFFCURVE",
"256 697 OFFCURVE",
"256 690 CURVE SMOOTH",
"256 -60 LINE SMOOTH",
"256 -66 OFFCURVE",
"252 -70 OFFCURVE",
"246 -70 CURVE SMOOTH",
"74 -70 LINE SMOOTH",
"56 -70 OFFCURVE",
"43 -83 OFFCURVE",
"43 -101 CURVE SMOOTH",
"43 -118 OFFCURVE",
"56 -130 OFFCURVE",
"74 -130 CURVE SMOOTH",
"298 -130 LINE SMOOTH",
"316 -130 OFFCURVE",
"329 -117 OFFCURVE",
"329 -99 CURVE SMOOTH",
"329 729 LINE SMOOTH",
"329 747 OFFCURVE",
"316 760 OFFCURVE",
"298 760 CURVE SMOOTH",
"74 760 LINE SMOOTH"
);
}
);
width = 395;
}
);
unicode = 005D;
},
{
glyphname = parenleft;
lastChange = "2013-12-18 08:30:52 +0400";
layers = (
{
layerId = "9764FC2E-EF50-4B10-BB5F-6BAA27A55E88";
name = Regular;
paths = (
{
closed = 1;
nodes = (
"325 765 OFFCURVE",
"304 768 OFFCURVE",
"285 756 CURVE SMOOTH",
"128 657 OFFCURVE",
"41 489 OFFCURVE",
"41 317 CURVE SMOOTH",
"41 145 OFFCURVE",
"128 -23 OFFCURVE",
"285 -122 CURVE SMOOTH",
"304 -134 OFFCURVE",
"325 -131 OFFCURVE",
"335 -116 CURVE SMOOTH",
"344 -101 OFFCURVE",
"337 -81 OFFCURVE",
"318 -68 CURVE SMOOTH",
"187 25 OFFCURVE",
"119 169 OFFCURVE",
"119 317 CURVE SMOOTH",
"119 465 OFFCURVE",
"187 609 OFFCURVE",
"318 702 CURVE SMOOTH",
"337 715 OFFCURVE",
"344 735 OFFCURVE",
"335 750 CURVE SMOOTH"
);
}
);
width = 365;
}
);
unicode = 0028;
},
{
glyphname = parenright;
lastChange = "2013-12-18 08:30:52 +0400";
layers = (
{
layerId = "9764FC2E-EF50-4B10-BB5F-6BAA27A55E88";
name = Regular;
paths = (
{
closed = 1;
nodes = (
"21 735 OFFCURVE",
"28 715 OFFCURVE",
"47 702 CURVE SMOOTH",
"178 609 OFFCURVE",
"246 465 OFFCURVE",
"246 317 CURVE SMOOTH",
"246 169 OFFCURVE",
"178 25 OFFCURVE",
"47 -68 CURVE SMOOTH",
"28 -81 OFFCURVE",
"21 -101 OFFCURVE",
"30 -116 CURVE SMOOTH",
"40 -131 OFFCURVE",
"61 -134 OFFCURVE",
"80 -122 CURVE SMOOTH",
"237 -23 OFFCURVE",
"324 145 OFFCURVE",
"324 317 CURVE SMOOTH",
"324 489 OFFCURVE",
"237 657 OFFCURVE",
"80 756 CURVE SMOOTH",
"61 768 OFFCURVE",
"40 765 OFFCURVE",
"30 750 CURVE SMOOTH"
);
}
);
width = 365;
}
);
unicode = 0029;
},
{
glyphname = emdash;
lastChange = "2013-12-18 08:30:52 +0400";
layers = (
{
layerId = "9764FC2E-EF50-4B10-BB5F-6BAA27A55E88";
name = Regular;
paths = (
{
closed = 1;
nodes = (
"825 323 OFFCURVE",
"808 339 OFFCURVE",
"784 339 CURVE SMOOTH",
"98 339 LINE SMOOTH",
"74 339 OFFCURVE",
"57 324 OFFCURVE",
"57 303 CURVE SMOOTH",
"57 279 OFFCURVE",
"74 262 OFFCURVE",
"98 262 CURVE SMOOTH",
"784 262 LINE SMOOTH",
"808 262 OFFCURVE",
"825 278 OFFCURVE",
"825 301 CURVE SMOOTH"
);
}
);
width = 882;
}
);
unicode = 2014;
},
{
glyphname = endash;
lastChange = "2013-12-18 08:30:52 +0400";
layers = (
{
layerId = "9764FC2E-EF50-4B10-BB5F-6BAA27A55E88";
name = Regular;
paths = (
{
closed = 1;
nodes = (
"455 323 OFFCURVE",
"438 339 OFFCURVE",
"414 339 CURVE SMOOTH",
"98 339 LINE SMOOTH",
"74 339 OFFCURVE",
"57 323 OFFCURVE",
"57 301 CURVE SMOOTH",
"57 278 OFFCURVE",
"74 262 OFFCURVE",
"98 262 CURVE SMOOTH",
"414 262 LINE SMOOTH",
"438 262 OFFCURVE",
"455 278 OFFCURVE",
"455 301 CURVE SMOOTH"
);
}
);
width = 512;
}
);
unicode = 2013;
},
{
glyphname = hyphen;
lastChange = "2013-12-18 08:30:52 +0400";
layers = (
{
layerId = "9764FC2E-EF50-4B10-BB5F-6BAA27A55E88";
name = Regular;
paths = (
{
closed = 1;
nodes = (
"335 324 OFFCURVE",
"318 341 OFFCURVE",
"294 341 CURVE SMOOTH",
"98 341 LINE SMOOTH",
"74 341 OFFCURVE",
"57 324 OFFCURVE",
"57 301 CURVE SMOOTH",
"57 277 OFFCURVE",
"74 260 OFFCURVE",
"98 260 CURVE SMOOTH",
"294 260 LINE SMOOTH",
"318 260 OFFCURVE",
"335 277 OFFCURVE",
"335 301 CURVE SMOOTH"
);
}
);
width = 392;
}
);
unicode = 002D;
},
{
glyphname = guillemetleft;
lastChange = "2013-12-18 08:30:52 +0400";
layers = (
{
layerId = "9764FC2E-EF50-4B10-BB5F-6BAA27A55E88";
name = Regular;
paths = (
{
closed = 1;
nodes = (
"284 285 LINE SMOOTH",
"273 269 OFFCURVE",
"269 255 OFFCURVE",
"280 239 CURVE SMOOTH",
"283 236 LINE",
"410 67 LINE SMOOTH",
"423 50 OFFCURVE",
"439 46 OFFCURVE",
"456 56 CURVE SMOOTH",
"477 68 OFFCURVE",
"480 86 OFFCURVE",
"466 105 CURVE SMOOTH",
"358 253 LINE SMOOTH",
"355 258 OFFCURVE",
"355 262 OFFCURVE",
"358 267 CURVE SMOOTH",
"466 413 LINE SMOOTH",
"480 432 OFFCURVE",
"478 449 OFFCURVE",
"459 460 CURVE SMOOTH",
"440 471 OFFCURVE",
"423 467 OFFCURVE",
"410 450 CURVE SMOOTH"
);
},
{
closed = 1;
nodes = (
"61 285 LINE SMOOTH",
"50 269 OFFCURVE",
"46 255 OFFCURVE",
"57 239 CURVE SMOOTH",
"60 236 LINE",
"187 67 LINE SMOOTH",
"200 50 OFFCURVE",
"216 46 OFFCURVE",
"234 57 CURVE SMOOTH",
"254 68 OFFCURVE",
"258 86 OFFCURVE",
"244 105 CURVE SMOOTH",
"136 253 LINE SMOOTH",
"133 258 OFFCURVE",
"133 262 OFFCURVE",
"136 267 CURVE SMOOTH",
"244 413 LINE SMOOTH",
"258 432 OFFCURVE",
"255 449 OFFCURVE",
"236 460 CURVE SMOOTH",
"217 471 OFFCURVE",
"200 467 OFFCURVE",
"187 450 CURVE SMOOTH"
);
}
);
width = 525.105;
}
);
unicode = 00AB;
},
{
glyphname = guillemetright;
lastChange = "2013-12-18 08:30:52 +0400";
layers = (
{
layerId = "9764FC2E-EF50-4B10-BB5F-6BAA27A55E88";
name = Regular;
paths = (
{
closed = 1;
nodes = (
"102 467 OFFCURVE",
"85 471 OFFCURVE",
"66 460 CURVE SMOOTH",
"47 449 OFFCURVE",
"45 432 OFFCURVE",
"59 413 CURVE SMOOTH",
"167 267 LINE SMOOTH",
"170 262 OFFCURVE",
"170 258 OFFCURVE",
"167 253 CURVE SMOOTH",
"59 105 LINE SMOOTH",
"45 86 OFFCURVE",
"48 68 OFFCURVE",
"69 56 CURVE SMOOTH",
"86 46 OFFCURVE",
"102 50 OFFCURVE",
"115 67 CURVE SMOOTH",
"242 236 LINE",
"245 239 LINE SMOOTH",
"256 255 OFFCURVE",
"252 269 OFFCURVE",
"241 285 CURVE SMOOTH",
"115 450 LINE SMOOTH"
);
},
{
closed = 1;
nodes = (
"325 467 OFFCURVE",
"308 471 OFFCURVE",
"289 460 CURVE SMOOTH",
"270 449 OFFCURVE",
"267 432 OFFCURVE",
"281 413 CURVE SMOOTH",
"389 267 LINE SMOOTH",
"392 262 OFFCURVE",
"392 258 OFFCURVE",
"389 253 CURVE SMOOTH",
"281 105 LINE SMOOTH",
"267 86 OFFCURVE",
"271 68 OFFCURVE",
"291 57 CURVE SMOOTH",
"309 46 OFFCURVE",
"325 50 OFFCURVE",
"338 67 CURVE SMOOTH",
"465 236 LINE",
"468 239 LINE SMOOTH",
"479 255 OFFCURVE",
"475 269 OFFCURVE",
"464 285 CURVE SMOOTH",
"338 450 LINE SMOOTH"
);
}
);
width = 524.517;
}
);
unicode = 00BB;
},
{
glyphname = guilsinglleft;
lastChange = "2013-12-18 08:30:52 +0400";
layers = (
{
layerId = "9764FC2E-EF50-4B10-BB5F-6BAA27A55E88";
name = Regular;
paths = (
{
closed = 1;
nodes = (
"57 285 LINE SMOOTH",
"46 269 OFFCURVE",
"42 255 OFFCURVE",
"53 239 CURVE SMOOTH",
"56 236 LINE",
"183 67 LINE SMOOTH",
"196 50 OFFCURVE",
"212 46 OFFCURVE",
"230 57 CURVE SMOOTH",
"250 68 OFFCURVE",
"254 86 OFFCURVE",
"240 105 CURVE SMOOTH",
"132 253 LINE SMOOTH",
"129 258 OFFCURVE",
"129 262 OFFCURVE",
"132 267 CURVE SMOOTH",
"240 413 LINE SMOOTH",
"254 432 OFFCURVE",
"251 449 OFFCURVE",
"232 460 CURVE SMOOTH",
"213 471 OFFCURVE",
"196 467 OFFCURVE",
"183 450 CURVE SMOOTH"
);
}
);
width = 295;
}
);
unicode = 2039;
},
{
glyphname = guilsinglright;
lastChange = "2013-12-18 08:30:52 +0400";
layers = (
{
layerId = "9764FC2E-EF50-4B10-BB5F-6BAA27A55E88";
name = Regular;
paths = (
{
closed = 1;
nodes = (
"99 467 OFFCURVE",
"82 471 OFFCURVE",
"63 460 CURVE SMOOTH",
"44 449 OFFCURVE",
"41 432 OFFCURVE",
"55 413 CURVE SMOOTH",
"163 267 LINE SMOOTH",
"166 262 OFFCURVE",
"166 258 OFFCURVE",
"163 253 CURVE SMOOTH",
"55 105 LINE SMOOTH",
"41 86 OFFCURVE",
"45 68 OFFCURVE",
"65 57 CURVE SMOOTH",
"83 46 OFFCURVE",
"99 50 OFFCURVE",
"112 67 CURVE SMOOTH",
"239 236 LINE",
"242 239 LINE SMOOTH",
"253 255 OFFCURVE",
"249 269 OFFCURVE",
"238 285 CURVE SMOOTH",
"112 450 LINE SMOOTH"
);
}
);
width = 295;
}
);
unicode = 203A;
},
{
glyphname = quotedblleft;
lastChange = "2013-12-18 08:30:52 +0400";
layers = (
{
layerId = "9764FC2E-EF50-4B10-BB5F-6BAA27A55E88";
name = Regular;
paths = (
{
closed = 1;
nodes = (
"350 710 OFFCURVE",
"332 714 OFFCURVE",
"311 706 CURVE SMOOTH",
"261 685 OFFCURVE",
"238 646 OFFCURVE",
"238 580 CURVE SMOOTH",
"238 531 LINE SMOOTH",
"238 507 OFFCURVE",
"255 490 OFFCURVE",
"279 490 CURVE SMOOTH",
"288 490 LINE SMOOTH",
"312 490 OFFCURVE",
"329 507 OFFCURVE",
"329 531 CURVE SMOOTH",
"329 554 LINE SMOOTH",
"329 576 OFFCURVE",
"316 592 OFFCURVE",
"298 595 CURVE SMOOTH",
"295 595 OFFCURVE",
"293 597 OFFCURVE",
"293 600 CURVE SMOOTH",
"292 629 OFFCURVE",
"303 651 OFFCURVE",
"328 667 CURVE SMOOTH",
"346 678 OFFCURVE",
"358 689 OFFCURVE",
"354 700 CURVE SMOOTH"
);
},
{
closed = 1;
nodes = (
"150 710 OFFCURVE",
"132 714 OFFCURVE",
"111 706 CURVE SMOOTH",
"61 685 OFFCURVE",
"38 646 OFFCURVE",
"38 580 CURVE SMOOTH",
"38 531 LINE SMOOTH",
"38 507 OFFCURVE",
"55 490 OFFCURVE",
"79 490 CURVE SMOOTH",
"89 490 LINE SMOOTH",
"113 490 OFFCURVE",
"130 507 OFFCURVE",
"130 531 CURVE SMOOTH",
"130 554 LINE SMOOTH",
"130 576 OFFCURVE",
"116 592 OFFCURVE",
"98 595 CURVE SMOOTH",
"95 595 OFFCURVE",
"93 597 OFFCURVE",
"93 600 CURVE SMOOTH",
"92 629 OFFCURVE",
"103 651 OFFCURVE",
"128 667 CURVE SMOOTH",
"146 678 OFFCURVE",
"158 689 OFFCURVE",
"154 700 CURVE SMOOTH"
);
}
);
width = 393;
}
);
unicode = 201C;
},
{
glyphname = quotedblright;
lastChange = "2013-12-18 08:30:52 +0400";
layers = (
{
layerId = "9764FC2E-EF50-4B10-BB5F-6BAA27A55E88";
name = Regular;
paths = (
{
closed = 1;
nodes = (
"43 490 OFFCURVE",
"61 486 OFFCURVE",
"82 494 CURVE SMOOTH",
"132 515 OFFCURVE",
"155 554 OFFCURVE",
"155 620 CURVE SMOOTH",
"155 669 LINE SMOOTH",
"155 693 OFFCURVE",
"138 710 OFFCURVE",
"114 710 CURVE SMOOTH",
"105 710 LINE SMOOTH",
"81 710 OFFCURVE",
"64 693 OFFCURVE",
"64 669 CURVE SMOOTH",
"64 646 LINE SMOOTH",
"64 624 OFFCURVE",
"77 608 OFFCURVE",
"95 605 CURVE SMOOTH",
"98 605 OFFCURVE",
"100 603 OFFCURVE",
"100 600 CURVE SMOOTH",
"101 571 OFFCURVE",
"90 549 OFFCURVE",
"65 533 CURVE SMOOTH",
"47 522 OFFCURVE",
"35 511 OFFCURVE",
"39 500 CURVE SMOOTH"
);
},
{
closed = 1;
nodes = (
"243 490 OFFCURVE",
"261 486 OFFCURVE",
"282 494 CURVE SMOOTH",
"332 515 OFFCURVE",
"355 554 OFFCURVE",
"355 620 CURVE SMOOTH",
"355 669 LINE SMOOTH",
"355 693 OFFCURVE",
"338 710 OFFCURVE",
"314 710 CURVE SMOOTH",
"304 710 LINE SMOOTH",
"280 710 OFFCURVE",
"263 693 OFFCURVE",
"263 669 CURVE SMOOTH",
"263 646 LINE SMOOTH",
"263 624 OFFCURVE",
"277 608 OFFCURVE",
"295 605 CURVE SMOOTH",
"298 605 OFFCURVE",
"300 603 OFFCURVE",
"300 600 CURVE SMOOTH",
"301 571 OFFCURVE",
"290 549 OFFCURVE",
"265 533 CURVE SMOOTH",
"247 522 OFFCURVE",
"235 511 OFFCURVE",
"239 500 CURVE SMOOTH"
);
}
);
width = 393;
}
);
unicode = 201D;
},
{
glyphname = quoteleft;
lastChange = "2013-12-18 08:30:52 +0400";
layers = (
{
layerId = "9764FC2E-EF50-4B10-BB5F-6BAA27A55E88";
name = Regular;
paths = (
{
closed = 1;
nodes = (
"150 710 OFFCURVE",
"132 714 OFFCURVE",
"111 706 CURVE SMOOTH",
"61 685 OFFCURVE",
"38 646 OFFCURVE",
"38 580 CURVE SMOOTH",
"38 531 LINE SMOOTH",
"38 507 OFFCURVE",
"55 490 OFFCURVE",
"79 490 CURVE SMOOTH",
"89 490 LINE SMOOTH",
"113 490 OFFCURVE",
"130 507 OFFCURVE",
"130 531 CURVE SMOOTH",
"130 554 LINE SMOOTH",
"130 576 OFFCURVE",
"116 592 OFFCURVE",
"98 595 CURVE SMOOTH",
"95 595 OFFCURVE",
"93 597 OFFCURVE",
"93 600 CURVE SMOOTH",
"92 629 OFFCURVE",
"103 651 OFFCURVE",
"128 667 CURVE SMOOTH",
"146 678 OFFCURVE",
"158 689 OFFCURVE",
"154 700 CURVE SMOOTH"
);
}
);
width = 193;
}
);
unicode = 2018;
},
{
glyphname = quoteright;
lastChange = "2013-12-18 08:30:52 +0400";
layers = (
{
layerId = "9764FC2E-EF50-4B10-BB5F-6BAA27A55E88";
name = Regular;
paths = (
{
closed = 1;
nodes = (
"43 490 OFFCURVE",
"61 486 OFFCURVE",
"82 494 CURVE SMOOTH",
"132 515 OFFCURVE",
"155 554 OFFCURVE",
"155 620 CURVE SMOOTH",
"155 669 LINE SMOOTH",
"155 693 OFFCURVE",
"138 710 OFFCURVE",
"114 710 CURVE SMOOTH",
"104 710 LINE SMOOTH",
"80 710 OFFCURVE",
"63 693 OFFCURVE",
"63 669 CURVE SMOOTH",
"63 646 LINE SMOOTH",
"63 624 OFFCURVE",
"77 608 OFFCURVE",
"95 605 CURVE SMOOTH",
"98 605 OFFCURVE",
"100 603 OFFCURVE",
"100 600 CURVE SMOOTH",
"101 571 OFFCURVE",
"90 549 OFFCURVE",
"65 533 CURVE SMOOTH",
"47 522 OFFCURVE",
"35 511 OFFCURVE",
"39 500 CURVE SMOOTH"
);
}
);
width = 193;
}
);
unicode = 2019;
},
{
glyphname = .notdef;
lastChange = "2013-12-18 08:30:52 +0400";
layers = (
{
layerId = "9764FC2E-EF50-4B10-BB5F-6BAA27A55E88";
name = Regular;
paths = (
{
closed = 1;
nodes = (
"40 35 LINE SMOOTH",
"40 12 OFFCURVE",
"52 0 OFFCURVE",
"75 0 CURVE SMOOTH",
"509 0 LINE SMOOTH",
"532 0 OFFCURVE",
"544 12 OFFCURVE",
"544 35 CURVE SMOOTH",
"544 665 LINE SMOOTH",
"544 688 OFFCURVE",
"532 700 OFFCURVE",
"509 700 CURVE SMOOTH",
"75 700 LINE SMOOTH",
"52 700 OFFCURVE",
"40 688 OFFCURVE",
"40 665 CURVE SMOOTH"
);
},
{
closed = 1;
nodes = (
"509 670 LINE SMOOTH",
"512 670 OFFCURVE",
"514 668 OFFCURVE",
"514 665 CURVE SMOOTH",
"514 67 LINE SMOOTH",
"514 62 OFFCURVE",
"511 61 OFFCURVE",
"508 65 CURVE SMOOTH",
"92 664 LINE SMOOTH",
"90 667 OFFCURVE",
"91 670 OFFCURVE",
"95 670 CURVE SMOOTH"
);
},
{
closed = 1;
nodes = (
"70 633 LINE SMOOTH",
"70 638 OFFCURVE",
"73 639 OFFCURVE",
"76 635 CURVE SMOOTH",
"491 36 LINE SMOOTH",
"493 33 OFFCURVE",
"492 30 OFFCURVE",
"488 30 CURVE SMOOTH",
"75 30 LINE SMOOTH",
"72 30 OFFCURVE",
"70 32 OFFCURVE",
"70 35 CURVE SMOOTH"
);
}
);
width = 600;
}
);
},
{
glyphname = florin;
lastChange = "2013-12-18 08:30:52 +0400";
layers = (
{
layerId = "9764FC2E-EF50-4B10-BB5F-6BAA27A55E88";
name = Regular;
paths = (
{
closed = 1;
nodes = (
"511 646 OFFCURVE",
"501 670 OFFCURVE",
"477 675 CURVE SMOOTH",
"464 677 OFFCURVE",
"449 679 OFFCURVE",
"433 679 CURVE SMOOTH",
"324 679 OFFCURVE",
"264 612 OFFCURVE",
"248 511 CURVE SMOOTH",
"233 421 LINE SMOOTH",
"232 418 OFFCURVE",
"230 416 OFFCURVE",
"227 416 CURVE SMOOTH",
"154 416 LINE SMOOTH",
"133 416 OFFCURVE",
"118 401 OFFCURVE",
"118 381 CURVE SMOOTH",
"118 361 OFFCURVE",
"133 346 OFFCURVE",
"154 346 CURVE SMOOTH",
"214 346 LINE SMOOTH",
"217 346 OFFCURVE",
"219 344 OFFCURVE",
"218 341 CURVE SMOOTH",
"168 48 LINE SMOOTH",
"158 -8 OFFCURVE",
"129 -40 OFFCURVE",
"69 -40 CURVE SMOOTH",
"58 -40 OFFCURVE",
"48 -39 OFFCURVE",
"39 -37 CURVE SMOOTH",
"22 -33 OFFCURVE",
"6 -40 OFFCURVE",
"-1 -58 CURVE SMOOTH",
"-10 -81 OFFCURVE",
"0 -107 OFFCURVE",
"25 -112 CURVE SMOOTH",
"38 -115 OFFCURVE",
"53 -116 OFFCURVE",
"69 -116 CURVE SMOOTH",
"180 -116 OFFCURVE",
"237 -47 OFFCURVE",
"254 52 CURVE SMOOTH",
"303 341 LINE SMOOTH",
"304 344 OFFCURVE",
"306 346 OFFCURVE",
"309 346 CURVE SMOOTH",
"411 346 LINE SMOOTH",
"432 346 OFFCURVE",
"447 361 OFFCURVE",
"447 381 CURVE SMOOTH",
"447 401 OFFCURVE",
"432 416 OFFCURVE",
"411 416 CURVE SMOOTH",
"322 416 LINE SMOOTH",
"319 416 OFFCURVE",
"317 418 OFFCURVE",
"318 421 CURVE SMOOTH",
"333 515 LINE SMOOTH",
"342 571 OFFCURVE",
"371 602 OFFCURVE",
"436 602 CURVE SMOOTH",
"447 602 OFFCURVE",
"455 601 OFFCURVE",
"464 599 CURVE SMOOTH",
"480 595 OFFCURVE",
"495 604 OFFCURVE",
"503 624 CURVE SMOOTH"
);
}
);
width = 556;
}
);
unicode = 0192;
},
{
glyphname = cent;
lastChange = "2013-12-18 08:30:52 +0400";
layers = (
{
anchors = (
{
name = bottom;
position = "{271, 100}";
},
{
name = top;
position = "{271, 600}";
}
);
layerId = "9764FC2E-EF50-4B10-BB5F-6BAA27A55E88";
name = Regular;
paths = (
{
closed = 1;
nodes = (
"457 93 OFFCURVE",
"439 95 OFFCURVE",
"422 86 CURVE SMOOTH",
"398 72 OFFCURVE",
"371 64 OFFCURVE",
"341 61 CURVE SMOOTH",
"338 61 OFFCURVE",
"336 62 OFFCURVE",
"336 66 CURVE SMOOTH",
"336 449 LINE SMOOTH",
"336 453 OFFCURVE",
"338 454 OFFCURVE",
"341 454 CURVE SMOOTH",
"371 451 OFFCURVE",
"398 443 OFFCURVE",
"422 429 CURVE SMOOTH",
"439 420 OFFCURVE",
"457 421 OFFCURVE",
"468 436 CURVE SMOOTH",
"482 454 OFFCURVE",
"479 477 OFFCURVE",
"460 488 CURVE SMOOTH",
"425 509 OFFCURVE",
"384 521 OFFCURVE",
"341 524 CURVE SMOOTH",
"338 524 OFFCURVE",
"336 526 OFFCURVE",
"336 529 CURVE SMOOTH",
"336 584 LINE SMOOTH",
"336 602 OFFCURVE",
"325 615 OFFCURVE",
"309 615 CURVE SMOOTH",
"293 615 OFFCURVE",
"281 602 OFFCURVE",
"281 584 CURVE SMOOTH",
"281 527 LINE SMOOTH",
"281 524 OFFCURVE",
"279 522 OFFCURVE",
"276 522 CURVE SMOOTH",
"145 501 OFFCURVE",
"45 391 OFFCURVE",
"45 257 CURVE SMOOTH",
"45 124 OFFCURVE",
"145 14 OFFCURVE",
"276 -7 CURVE SMOOTH",
"279 -7 OFFCURVE",
"281 -9 OFFCURVE",
"281 -12 CURVE SMOOTH",
"281 -69 LINE SMOOTH",
"281 -87 OFFCURVE",
"293 -100 OFFCURVE",
"309 -100 CURVE SMOOTH",
"324 -100 OFFCURVE",
"336 -87 OFFCURVE",
"336 -69 CURVE SMOOTH",
"336 -14 LINE SMOOTH",
"336 -11 OFFCURVE",
"338 -9 OFFCURVE",
"341 -9 CURVE SMOOTH",
"384 -6 OFFCURVE",
"425 6 OFFCURVE",
"460 27 CURVE SMOOTH",
"479 38 OFFCURVE",
"482 61 OFFCURVE",
"469 78 CURVE SMOOTH"
);
},
{
closed = 1;
nodes = (
"115 351 OFFCURVE",
"183 431 OFFCURVE",
"275 450 CURVE SMOOTH",
"279 451 OFFCURVE",
"281 449 OFFCURVE",
"281 446 CURVE SMOOTH",
"281 69 LINE SMOOTH",
"281 66 OFFCURVE",
"279 64 OFFCURVE",
"276 65 CURVE SMOOTH",
"183 84 OFFCURVE",
"115 163 OFFCURVE",
"115 257 CURVE SMOOTH"
);
}
);
width = 507;
}
);
unicode = 00A2;
},
{
glyphname = currency;
lastChange = "2013-12-18 08:30:52 +0400";
layers = (
{
layerId = "9764FC2E-EF50-4B10-BB5F-6BAA27A55E88";
name = Regular;
paths = (
{
closed = 1;
nodes = (
"370 221 LINE",
"382 243 OFFCURVE",
"389 268 OFFCURVE",
"389 295 CURVE SMOOTH",
"389 305 LINE SMOOTH",
"389 331 OFFCURVE",
"382 356 OFFCURVE",
"370 378 CURVE",
"408 412 LINE SMOOTH",
"421 424 OFFCURVE",
"422 442 OFFCURVE",
"410 455 CURVE SMOOTH",
"398 468 OFFCURVE",
"380 469 OFFCURVE",
"367 457 CURVE SMOOTH",
"331 424 LINE",
"306 443 OFFCURVE",
"274 454 OFFCURVE",
"240 454 CURVE SMOOTH",
"206 454 OFFCURVE",
"174 442 OFFCURVE",
"149 423 CURVE",
"111 457 LINE SMOOTH",
"98 469 OFFCURVE",
"80 468 OFFCURVE",
"68 455 CURVE SMOOTH",
"56 442 OFFCURVE",
"57 424 OFFCURVE",
"70 412 CURVE SMOOTH",
"109 376 LINE",
"97 354 OFFCURVE",
"90 329 OFFCURVE",
"90 303 CURVE SMOOTH",
"90 293 LINE SMOOTH",
"90 267 OFFCURVE",
"97 242 OFFCURVE",
"108 221 CURVE",
"70 186 LINE SMOOTH",
"57 174 OFFCURVE",
"56 156 OFFCURVE",
"68 143 CURVE SMOOTH",
"80 130 OFFCURVE",
"98 129 OFFCURVE",
"111 141 CURVE SMOOTH",
"148 175 LINE",
"173 155 OFFCURVE",
"204 144 OFFCURVE",
"239 144 CURVE SMOOTH",
"273 144 OFFCURVE",
"304 156 OFFCURVE",
"330 175 CURVE",
"367 141 LINE SMOOTH",
"380 129 OFFCURVE",
"398 130 OFFCURVE",
"410 143 CURVE SMOOTH",
"422 156 OFFCURVE",
"421 174 OFFCURVE",
"408 186 CURVE SMOOTH"
);
},
{
closed = 1;
nodes = (
"220 195 OFFCURVE",
"203 201 OFFCURVE",
"188 211 CURVE SMOOTH",
"162 229 OFFCURVE",
"149 259 OFFCURVE",
"149 291 CURVE SMOOTH",
"149 305 LINE SMOOTH",
"149 335 OFFCURVE",
"159 366 OFFCURVE",
"188 386 CURVE SMOOTH",
"202 396 OFFCURVE",
"220 402 OFFCURVE",
"239 402 CURVE SMOOTH",
"258 402 OFFCURVE",
"275 396 OFFCURVE",
"290 386 CURVE SMOOTH",
"319 366 OFFCURVE",
"330 335 OFFCURVE",
"330 305 CURVE SMOOTH",
"330 291 LINE SMOOTH",
"330 267 OFFCURVE",
"321 230 OFFCURVE",
"291 211 CURVE SMOOTH",
"277 201 OFFCURVE",
"259 195 OFFCURVE",
"240 195 CURVE SMOOTH"
);
}
);
width = 479;
}
);
unicode = 00A4;
},
{
glyphname = dollar;
lastChange = "2013-12-18 08:30:52 +0400";
layers = (
{
anchors = (
{
name = bottom;
position = "{305, 0}";
},
{
name = top;
position = "{305, 700}";
}
);
layerId = "9764FC2E-EF50-4B10-BB5F-6BAA27A55E88";
name = Regular;
paths = (
{
closed = 1;
nodes = (
"551 310 OFFCURVE",
"450 357 OFFCURVE",
"327 393 CURVE SMOOTH",
"323 394 LINE SMOOTH",
"320 395 OFFCURVE",
"319 397 OFFCURVE",
"319 400 CURVE SMOOTH",
"319 631 LINE SMOOTH",
"319 634 OFFCURVE",
"321 636 OFFCURVE",
"324 635 CURVE SMOOTH",
"375 626 OFFCURVE",
"417 606 OFFCURVE",
"449 584 CURVE SMOOTH",
"464 573 OFFCURVE",
"484 576 OFFCURVE",
"495 591 CURVE SMOOTH",
"508 609 OFFCURVE",
"504 631 OFFCURVE",
"486 643 CURVE SMOOTH",
"445 670 OFFCURVE",
"389 696 OFFCURVE",
"324 706 CURVE SMOOTH",
"321 706 OFFCURVE",
"319 708 OFFCURVE",
"319 711 CURVE SMOOTH",
"319 740 LINE SMOOTH",
"319 758 OFFCURVE",
"306 771 OFFCURVE",
"288 771 CURVE SMOOTH",
"286 771 LINE SMOOTH",
"268 771 OFFCURVE",
"255 758 OFFCURVE",
"255 740 CURVE SMOOTH",
"255 715 LINE SMOOTH",
"255 711 OFFCURVE",
"253 710 OFFCURVE",
"250 710 CURVE SMOOTH",
"141 704 OFFCURVE",
"35 646 OFFCURVE",
"35 524 CURVE SMOOTH",
"35 408 OFFCURVE",
"143 372 OFFCURVE",
"251 341 CURVE SMOOTH",
"254 340 OFFCURVE",
"255 338 OFFCURVE",
"255 335 CURVE SMOOTH",
"255 68 LINE SMOOTH",
"255 65 OFFCURVE",
"253 63 OFFCURVE",
"250 64 CURVE SMOOTH",
"176 73 OFFCURVE",
"132 106 OFFCURVE",
"88 140 CURVE SMOOTH",
"71 153 OFFCURVE",
"52 149 OFFCURVE",
"40 137 CURVE SMOOTH",
"25 122 OFFCURVE",
"25 99 OFFCURVE",
"44 84 CURVE SMOOTH",
"98 40 OFFCURVE",
"161 3 OFFCURVE",
"250 -7 CURVE SMOOTH",
"253 -7 OFFCURVE",
"255 -9 OFFCURVE",
"255 -12 CURVE SMOOTH",
"255 -67 LINE SMOOTH",
"255 -85 OFFCURVE",
"268 -98 OFFCURVE",
"286 -98 CURVE SMOOTH",
"288 -98 LINE SMOOTH",
"306 -98 OFFCURVE",
"319 -85 OFFCURVE",
"319 -67 CURVE SMOOTH",
"319 -13 LINE SMOOTH",
"319 -10 OFFCURVE",
"321 -8 OFFCURVE",
"324 -8 CURVE SMOOTH",
"433 0 OFFCURVE",
"551 53 OFFCURVE",
"551 185 CURVE SMOOTH"
);
},
{
closed = 1;
nodes = (
"105 596 OFFCURVE",
"167 634 OFFCURVE",
"249 639 CURVE SMOOTH",
"253 640 OFFCURVE",
"255 638 OFFCURVE",
"255 635 CURVE SMOOTH",
"255 419 LINE SMOOTH",
"255 415 OFFCURVE",
"253 414 OFFCURVE",
"249 415 CURVE SMOOTH",
"164 439 OFFCURVE",
"105 463 OFFCURVE",
"105 524 CURVE"
);
},
{
closed = 1;
nodes = (
"319 316 LINE SMOOTH",
"319 319 OFFCURVE",
"321 321 OFFCURVE",
"325 320 CURVE SMOOTH",
"437 286 OFFCURVE",
"481 253 OFFCURVE",
"481 185 CURVE SMOOTH",
"481 106 OFFCURVE",
"408 69 OFFCURVE",
"324 62 CURVE SMOOTH",
"321 62 OFFCURVE",
"319 64 OFFCURVE",
"319 67 CURVE SMOOTH"
);
}
);
width = 589;
}
);
unicode = 0024;
},
{
glyphname = euro;
lastChange = "2013-12-18 08:30:52 +0400";
layers = (
{
layerId = "9764FC2E-EF50-4B10-BB5F-6BAA27A55E88";
name = Regular;
paths = (
{
closed = 1;
nodes = (
"130 385 OFFCURVE",
"129 367 OFFCURVE",
"129 349 CURVE SMOOTH",
"129 334 OFFCURVE",
"129 320 OFFCURVE",
"130 305 CURVE SMOOTH",
"131 302 OFFCURVE",
"129 300 OFFCURVE",
"126 300 CURVE SMOOTH",
"81 300 LINE SMOOTH",
"63 300 OFFCURVE",
"50 287 OFFCURVE",
"50 269 CURVE SMOOTH",
"50 268 LINE SMOOTH",
"50 250 OFFCURVE",
"63 237 OFFCURVE",
"81 237 CURVE SMOOTH",
"137 237 LINE SMOOTH",
"140 237 OFFCURVE",
"141 236 OFFCURVE",
"142 233 CURVE SMOOTH",
"178 87 OFFCURVE",
"283 -12 OFFCURVE",
"424 -12 CURVE SMOOTH",
"526 -12 OFFCURVE",
"592 39 OFFCURVE",
"645 109 CURVE SMOOTH",
"655 124 OFFCURVE",
"652 141 OFFCURVE",
"638 152 CURVE SMOOTH",
"630 157 LINE SMOOTH",
"615 167 OFFCURVE",
"598 164 OFFCURVE",
"587 150 CURVE SMOOTH",
"544 94 OFFCURVE",
"496 59 OFFCURVE",
"427 59 CURVE SMOOTH",
"330 59 OFFCURVE",
"255 128 OFFCURVE",
"225 231 CURVE SMOOTH",
"224 235 OFFCURVE",
"225 237 OFFCURVE",
"229 237 CURVE SMOOTH",
"451 237 LINE SMOOTH",
"469 237 OFFCURVE",
"482 250 OFFCURVE",
"482 268 CURVE SMOOTH",
"482 269 LINE SMOOTH",
"482 287 OFFCURVE",
"469 300 OFFCURVE",
"451 300 CURVE SMOOTH",
"215 300 LINE SMOOTH",
"212 300 OFFCURVE",
"210 302 OFFCURVE",
"210 305 CURVE SMOOTH",
"209 320 OFFCURVE",
"208 335 OFFCURVE",
"208 351 CURVE SMOOTH",
"208 368 OFFCURVE",
"209 387 OFFCURVE",
"211 403 CURVE SMOOTH",
"212 406 OFFCURVE",
"214 408 OFFCURVE",
"217 408 CURVE SMOOTH",
"451 408 LINE SMOOTH",
"469 408 OFFCURVE",
"482 421 OFFCURVE",
"482 439 CURVE SMOOTH",
"482 457 OFFCURVE",
"469 470 OFFCURVE",
"451 470 CURVE SMOOTH",
"231 470 LINE SMOOTH",
"227 470 OFFCURVE",
"226 472 OFFCURVE",
"227 476 CURVE SMOOTH",
"259 574 OFFCURVE",
"329 641 OFFCURVE",
"416 641 CURVE SMOOTH",
"491 641 OFFCURVE",
"538 611 OFFCURVE",
"582 556 CURVE SMOOTH",
"593 542 OFFCURVE",
"610 539 OFFCURVE",
"624 549 CURVE SMOOTH",
"635 557 LINE SMOOTH",
"650 568 OFFCURVE",
"653 586 OFFCURVE",
"642 600 CURVE SMOOTH",
"591 666 OFFCURVE",
"524 712 OFFCURVE",
"419 712 CURVE SMOOTH",
"285 712 OFFCURVE",
"184 612 OFFCURVE",
"145 474 CURVE SMOOTH",
"144 471 OFFCURVE",
"143 470 OFFCURVE",
"140 470 CURVE SMOOTH",
"81 470 LINE SMOOTH",
"63 470 OFFCURVE",
"50 457 OFFCURVE",
"50 439 CURVE SMOOTH",
"50 421 OFFCURVE",
"63 408 OFFCURVE",
"81 408 CURVE SMOOTH",
"128 408 LINE SMOOTH",
"131 408 OFFCURVE",
"133 406 OFFCURVE",
"132 403 CURVE SMOOTH"
);
}
);
width = 700.888;
}
);
unicode = 20AC;
},
{
glyphname = sterling;
lastChange = "2013-12-18 08:30:52 +0400";
layers = (
{
layerId = "9764FC2E-EF50-4B10-BB5F-6BAA27A55E88";
name = Regular;
paths = (
{
closed = 1;
nodes = (
"59 364 LINE SMOOTH",
"41 364 OFFCURVE",
"28 351 OFFCURVE",
"28 333 CURVE SMOOTH",
"28 326 LINE SMOOTH",
"28 308 OFFCURVE",
"41 295 OFFCURVE",
"59 295 CURVE SMOOTH",
"107 295 LINE SMOOTH",
"110 295 OFFCURVE",
"112 293 OFFCURVE",
"112 290 CURVE SMOOTH",
"112 71 LINE SMOOTH",
"112 68 OFFCURVE",
"111 67 OFFCURVE",
"108 66 CURVE SMOOTH",
"46 50 LINE SMOOTH",
"35 48 OFFCURVE",
"28 39 OFFCURVE",
"28 27 CURVE SMOOTH",
"28 23 LINE SMOOTH",
"28 10 OFFCURVE",
"39 0 OFFCURVE",
"53 0 CURVE SMOOTH",
"515 0 LINE SMOOTH",
"533 0 OFFCURVE",
"546 13 OFFCURVE",
"546 31 CURVE SMOOTH",
"546 39 LINE SMOOTH",
"546 57 OFFCURVE",
"533 70 OFFCURVE",
"515 70 CURVE SMOOTH",
"196 70 LINE SMOOTH",
"193 70 OFFCURVE",
"191 72 OFFCURVE",
"191 75 CURVE SMOOTH",
"191 290 LINE SMOOTH",
"191 293 OFFCURVE",
"193 295 OFFCURVE",
"196 295 CURVE SMOOTH",
"439 295 LINE SMOOTH",
"457 295 OFFCURVE",
"470 308 OFFCURVE",
"470 326 CURVE SMOOTH",
"470 333 LINE SMOOTH",
"470 351 OFFCURVE",
"457 364 OFFCURVE",
"439 364 CURVE SMOOTH",
"196 364 LINE SMOOTH",
"193 364 OFFCURVE",
"191 366 OFFCURVE",
"191 369 CURVE SMOOTH",
"191 472 LINE SMOOTH",
"191 573 OFFCURVE",
"242 637 OFFCURVE",
"332 637 CURVE SMOOTH",
"390 637 OFFCURVE",
"428 616 OFFCURVE",
"461 582 CURVE SMOOTH",
"477 566 OFFCURVE",
"498 563 OFFCURVE",
"516 577 CURVE SMOOTH",
"517 578 LINE SMOOTH",
"534 592 OFFCURVE",
"536 617 OFFCURVE",
"519 634 CURVE SMOOTH",
"476 679 OFFCURVE",
"419 710 OFFCURVE",
"333 710 CURVE SMOOTH",
"193 710 OFFCURVE",
"112 614 OFFCURVE",
"112 472 CURVE SMOOTH",
"112 369 LINE SMOOTH",
"112 366 OFFCURVE",
"110 364 OFFCURVE",
"107 364 CURVE SMOOTH"
);
}
);
width = 562;
}
);
unicode = 00A3;
},
{
glyphname = yen;
lastChange = "2013-12-18 08:30:52 +0400";
layers = (
{
anchors = (
{
name = top;
position = "{300, 700}";
}
);
layerId = "9764FC2E-EF50-4B10-BB5F-6BAA27A55E88";
name = Regular;
paths = (
{
closed = 1;
nodes = (
"539 694 OFFCURVE",
"515 690 OFFCURVE",
"501 671 CURVE SMOOTH",
"307 406 LINE",
"303 400 OFFCURVE",
"297 400 OFFCURVE",
"293 406 CURVE",
"98 672 LINE SMOOTH",
"84 690 OFFCURVE",
"61 694 OFFCURVE",
"42 681 CURVE",
"23 667 OFFCURVE",
"19 643 OFFCURVE",
"33 624 CURVE SMOOTH",
"221 367 LINE SMOOTH",
"225 362 OFFCURVE",
"223 358 OFFCURVE",
"217 358 CURVE SMOOTH",
"98 358 LINE SMOOTH",
"80 358 OFFCURVE",
"67 344 OFFCURVE",
"67 327 CURVE SMOOTH",
"67 309 OFFCURVE",
"80 294 OFFCURVE",
"98 294 CURVE SMOOTH",
"253 294 LINE SMOOTH",
"258 294 OFFCURVE",
"260 292 OFFCURVE",
"260 287 CURVE SMOOTH",
"260 195 LINE SMOOTH",
"260 190 OFFCURVE",
"258 188 OFFCURVE",
"253 188 CURVE SMOOTH",
"98 188 LINE SMOOTH",
"80 188 OFFCURVE",
"67 174 OFFCURVE",
"67 157 CURVE SMOOTH",
"67 139 OFFCURVE",
"80 124 OFFCURVE",
"98 124 CURVE SMOOTH",
"253 124 LINE SMOOTH",
"258 124 OFFCURVE",
"260 122 OFFCURVE",
"260 117 CURVE SMOOTH",
"260 41 LINE SMOOTH",
"260 17 OFFCURVE",
"277 0 OFFCURVE",
"300 0 CURVE SMOOTH",
"323 0 OFFCURVE",
"340 17 OFFCURVE",
"340 41 CURVE SMOOTH",
"340 117 LINE SMOOTH",
"340 122 OFFCURVE",
"342 124 OFFCURVE",
"347 124 CURVE SMOOTH",
"501 124 LINE SMOOTH",
"519 124 OFFCURVE",
"532 138 OFFCURVE",
"532 155 CURVE SMOOTH",
"532 173 OFFCURVE",
"519 188 OFFCURVE",
"501 188 CURVE SMOOTH",
"347 188 LINE SMOOTH",
"342 188 OFFCURVE",
"340 190 OFFCURVE",
"340 195 CURVE SMOOTH",
"340 287 LINE SMOOTH",
"340 292 OFFCURVE",
"342 294 OFFCURVE",
"347 294 CURVE SMOOTH",
"501 294 LINE SMOOTH",
"519 294 OFFCURVE",
"532 308 OFFCURVE",
"532 325 CURVE SMOOTH",
"532 343 OFFCURVE",
"519 358 OFFCURVE",
"501 358 CURVE SMOOTH",
"382 358 LINE SMOOTH",
"376 358 OFFCURVE",
"374 362 OFFCURVE",
"377 367 CURVE SMOOTH",
"566 625 LINE SMOOTH",
"580 643 OFFCURVE",
"577 667 OFFCURVE",
"558 681 CURVE"
);
}
);
width = 601;
}
);
unicode = 00A5;
},
{
glyphname = Ohm;
lastChange = "2013-12-18 08:30:52 +0400";
layers = (
{
layerId = "9764FC2E-EF50-4B10-BB5F-6BAA27A55E88";
name = Regular;
paths = (
{
closed = 1;
nodes = (
"153 678 OFFCURVE",
"47 561 OFFCURVE",
"47 400 CURVE SMOOTH",
"47 246 OFFCURVE",
"116 151 OFFCURVE",
"179 68 CURVE",
"73 68 LINE SMOOTH",
"52 68 OFFCURVE",
"37 55 OFFCURVE",
"37 36 CURVE SMOOTH",
"37 15 OFFCURVE",
"52 0 OFFCURVE",
"73 0 CURVE SMOOTH",
"225 0 LINE SMOOTH",
"246 0 OFFCURVE",
"261 15 OFFCURVE",
"261 36 CURVE SMOOTH",
"261 54 LINE SMOOTH",
"261 61 OFFCURVE",
"259 67 OFFCURVE",
"255 72 CURVE SMOOTH",
"156 195 OFFCURVE",
"117 278 OFFCURVE",
"117 396 CURVE SMOOTH",
"117 523 OFFCURVE",
"192 612 OFFCURVE",
"311 612 CURVE SMOOTH",
"429 612 OFFCURVE",
"505 523 OFFCURVE",
"505 396 CURVE SMOOTH",
"505 278 OFFCURVE",
"465 195 OFFCURVE",
"366 72 CURVE SMOOTH",
"362 67 OFFCURVE",
"360 61 OFFCURVE",
"360 54 CURVE SMOOTH",
"360 36 LINE SMOOTH",
"360 15 OFFCURVE",
"375 0 OFFCURVE",
"396 0 CURVE SMOOTH",
"549 0 LINE SMOOTH",
"570 0 OFFCURVE",
"585 13 OFFCURVE",
"585 32 CURVE SMOOTH",
"585 53 OFFCURVE",
"570 68 OFFCURVE",
"549 68 CURVE SMOOTH",
"443 68 LINE",
"503 147 OFFCURVE",
"575 246 OFFCURVE",
"575 398 CURVE SMOOTH",
"575 561 OFFCURVE",
"468 678 OFFCURVE",
"311 678 CURVE SMOOTH"
);
}
);
width = 600;
}
);
unicode = 2126;
},
{
glyphname = approxequal;
lastChange = "2013-12-18 08:30:52 +0400";
layers = (
{
layerId = "9764FC2E-EF50-4B10-BB5F-6BAA27A55E88";
name = Regular;
paths = (
{
closed = 1;
nodes = (
"58 163 OFFCURVE",
"69 164 OFFCURVE",
"81 174 CURVE SMOOTH",
"106 193 OFFCURVE",
"135 207 OFFCURVE",
"169 207 CURVE SMOOTH",
"203 207 OFFCURVE",
"234 195 OFFCURVE",
"282 174 CURVE SMOOTH",
"332 153 OFFCURVE",
"362 140 OFFCURVE",
"399 140 CURVE SMOOTH",
"454 140 OFFCURVE",
"495 177 OFFCURVE",
"523 212 CURVE SMOOTH",
"533 224 OFFCURVE",
"532 235 OFFCURVE",
"522 245 CURVE SMOOTH",
"511 256 OFFCURVE",
"499 256 OFFCURVE",
"487 246 CURVE SMOOTH",
"462 226 OFFCURVE",
"433 213 OFFCURVE",
"399 213 CURVE SMOOTH",
"365 213 OFFCURVE",
"334 225 OFFCURVE",
"286 246 CURVE SMOOTH",
"236 267 OFFCURVE",
"206 280 OFFCURVE",
"169 280 CURVE SMOOTH",
"114 280 OFFCURVE",
"73 243 OFFCURVE",
"44 209 CURVE SMOOTH",
"35 196 OFFCURVE",
"36 185 OFFCURVE",
"47 174 CURVE SMOOTH"
);
},
{
closed = 1;
nodes = (
"57 352 OFFCURVE",
"69 352 OFFCURVE",
"81 362 CURVE SMOOTH",
"106 382 OFFCURVE",
"135 396 OFFCURVE",
"169 396 CURVE SMOOTH",
"203 396 OFFCURVE",
"234 383 OFFCURVE",
"282 363 CURVE SMOOTH",
"332 342 OFFCURVE",
"362 329 OFFCURVE",
"399 329 CURVE SMOOTH",
"454 329 OFFCURVE",
"495 365 OFFCURVE",
"523 400 CURVE SMOOTH",
"533 412 OFFCURVE",
"532 423 OFFCURVE",
"522 433 CURVE SMOOTH",
"511 445 OFFCURVE",
"499 445 OFFCURVE",
"487 435 CURVE SMOOTH",
"462 414 OFFCURVE",
"433 401 OFFCURVE",
"399 401 CURVE SMOOTH",
"365 401 OFFCURVE",
"334 414 OFFCURVE",
"286 435 CURVE SMOOTH",
"236 456 OFFCURVE",
"206 469 OFFCURVE",
"169 469 CURVE SMOOTH",
"114 469 OFFCURVE",
"73 432 OFFCURVE",
"45 398 CURVE SMOOTH",
"35 386 OFFCURVE",
"36 374 OFFCURVE",
"46 363 CURVE SMOOTH"
);
}
);
width = 565;
}
);
unicode = 2248;
},
{
glyphname = asciitilde;
lastChange = "2013-12-18 08:30:52 +0400";
layers = (
{
layerId = "9764FC2E-EF50-4B10-BB5F-6BAA27A55E88";
name = Regular;
paths = (
{
closed = 1;
nodes = (
"68 258 OFFCURVE",
"80 260 OFFCURVE",
"95 271 CURVE SMOOTH",
"119 289 OFFCURVE",
"147 302 OFFCURVE",
"179 302 CURVE SMOOTH",
"213 302 OFFCURVE",
"244 290 OFFCURVE",
"292 269 CURVE SMOOTH",
"342 248 OFFCURVE",
"372 235 OFFCURVE",
"409 235 CURVE SMOOTH",
"462 235 OFFCURVE",
"502 269 OFFCURVE",
"530 303 CURVE SMOOTH",
"542 317 OFFCURVE",
"543 329 OFFCURVE",
"535 337 CURVE SMOOTH",
"522 350 OFFCURVE",
"508 350 OFFCURVE",
"493 338 CURVE SMOOTH",
"469 320 OFFCURVE",
"441 308 OFFCURVE",
"409 308 CURVE SMOOTH",
"375 308 OFFCURVE",
"344 320 OFFCURVE",
"296 341 CURVE SMOOTH",
"246 362 OFFCURVE",
"216 375 OFFCURVE",
"179 375 CURVE SMOOTH",
"126 375 OFFCURVE",
"86 341 OFFCURVE",
"58 307 CURVE SMOOTH",
"45 293 OFFCURVE",
"46 280 OFFCURVE",
"57 269 CURVE SMOOTH"
);
}
);
width = 587;
}
);
unicode = 007E;
},
{
glyphname = bulletoperator;
lastChange = "2013-12-22 07:33:30 +0400";
layers = (
{
layerId = "9764FC2E-EF50-4B10-BB5F-6BAA27A55E88";
name = Regular;
paths = (
{
closed = 1;
nodes = (
"131 248 OFFCURVE",
"155 272 OFFCURVE",
"155 301 CURVE SMOOTH",
"155 329 OFFCURVE",
"131 353 OFFCURVE",
"103 353 CURVE SMOOTH",
"74 353 OFFCURVE",
"50 329 OFFCURVE",
"50 301 CURVE SMOOTH",
"50 272 OFFCURVE",
"74 248 OFFCURVE",
"103 248 CURVE SMOOTH"
);
}
);
width = 205;
}
);
unicode = 2219;
},
{
glyphname = divide;
lastChange = "2013-12-18 08:30:52 +0400";
layers = (
{
layerId = "9764FC2E-EF50-4B10-BB5F-6BAA27A55E88";
name = Regular;
paths = (
{
closed = 1;
nodes = (
"52 269 OFFCURVE",
"69 253 OFFCURVE",
"93 253 CURVE SMOOTH",
"589 253 LINE SMOOTH",
"613 253 OFFCURVE",
"630 269 OFFCURVE",
"630 291 CURVE SMOOTH",
"630 313 OFFCURVE",
"613 329 OFFCURVE",
"589 329 CURVE SMOOTH",
"93 329 LINE SMOOTH",
"69 329 OFFCURVE",
"52 313 OFFCURVE",
"52 291 CURVE SMOOTH"
);
},
{
closed = 1;
nodes = (
"387 476 LINE SMOOTH",
"387 500 OFFCURVE",
"370 517 OFFCURVE",
"346 517 CURVE SMOOTH",
"336 517 LINE SMOOTH",
"312 517 OFFCURVE",
"295 500 OFFCURVE",
"295 476 CURVE SMOOTH",
"295 453 LINE SMOOTH",
"295 429 OFFCURVE",
"312 412 OFFCURVE",
"336 412 CURVE SMOOTH",
"346 412 LINE SMOOTH",
"370 412 OFFCURVE",
"387 429 OFFCURVE",
"387 453 CURVE SMOOTH"
);
},
{
closed = 1;
nodes = (
"387 124 LINE SMOOTH",
"387 148 OFFCURVE",
"370 165 OFFCURVE",
"346 165 CURVE SMOOTH",
"336 165 LINE SMOOTH",
"312 165 OFFCURVE",
"295 148 OFFCURVE",
"295 124 CURVE SMOOTH",
"295 101 LINE SMOOTH",
"295 77 OFFCURVE",
"312 60 OFFCURVE",
"336 60 CURVE SMOOTH",
"346 60 LINE SMOOTH",
"370 60 OFFCURVE",
"387 77 OFFCURVE",
"387 101 CURVE SMOOTH"
);
}
);
width = 682;
}
);
unicode = 00F7;
},
{
glyphname = divisionslash;
lastChange = "2013-12-22 07:37:59 +0400";
layers = (
{
layerId = "9764FC2E-EF50-4B10-BB5F-6BAA27A55E88";
name = Regular;
paths = (
{
closed = 1;
nodes = (
"9 -96 LINE SMOOTH",
"0 -114 OFFCURVE",
"8 -126 OFFCURVE",
"27 -126 CURVE SMOOTH",
"45 -126 LINE SMOOTH",
"59 -126 OFFCURVE",
"68 -120 OFFCURVE",
"74 -108 CURVE SMOOTH",
"514 770 LINE SMOOTH",
"523 788 OFFCURVE",
"515 800 OFFCURVE",
"496 800 CURVE SMOOTH",
"478 800 LINE SMOOTH",
"464 800 OFFCURVE",
"455 794 OFFCURVE",
"449 782 CURVE SMOOTH"
);
}
);
width = 522.387;
}
);
unicode = 2215;
},
{
glyphname = emptyset;
lastChange = "2013-12-18 08:30:52 +0400";
layers = (
{
layerId = "9764FC2E-EF50-4B10-BB5F-6BAA27A55E88";
name = Regular;
paths = (
{
closed = 1;
nodes = (
"556 463 LINE SMOOTH",
"571 478 OFFCURVE",
"571 498 OFFCURVE",
"557 513 CURVE SMOOTH",
"543 528 OFFCURVE",
"522 528 OFFCURVE",
"507 513 CURVE SMOOTH",
"464 471 LINE SMOOTH",
"462 469 OFFCURVE",
"459 468 OFFCURVE",
"457 470 CURVE SMOOTH",
"412 505 OFFCURVE",
"356 525 OFFCURVE",
"296 525 CURVE SMOOTH",
"148 525 OFFCURVE",
"28 405 OFFCURVE",
"28 257 CURVE SMOOTH",
"28 198 OFFCURVE",
"47 144 OFFCURVE",
"79 100 CURVE SMOOTH",
"81 98 OFFCURVE",
"80 95 OFFCURVE",
"78 93 CURVE SMOOTH",
"35 50.9999 LINE SMOOTH",
"20 35.9999 OFFCURVE",
"20 15.9999 OFFCURVE",
"34 0.999899 CURVE SMOOTH",
"48 -14 OFFCURVE",
"69 -14 OFFCURVE",
"84 0.999899 CURVE SMOOTH",
"127 43 LINE SMOOTH",
"130 46 OFFCURVE",
"132 46 OFFCURVE",
"134 44 CURVE SMOOTH",
"179 10 OFFCURVE",
"235 -10 OFFCURVE",
"296 -10 CURVE SMOOTH",
"443 -10 OFFCURVE",
"563 109 OFFCURVE",
"563 257 CURVE SMOOTH",
"563 315 OFFCURVE",
"544 369 OFFCURVE",
"512 413 CURVE SMOOTH",
"510 416 OFFCURVE",
"510 418 OFFCURVE",
"513 421 CURVE SMOOTH"
);
},
{
closed = 1;
nodes = (
"98 366 OFFCURVE",
"187 455 OFFCURVE",
"296 455 CURVE SMOOTH",
"336 455 OFFCURVE",
"374 443 OFFCURVE",
"406 421 CURVE SMOOTH",
"408 419 OFFCURVE",
"409 417 OFFCURVE",
"406 414 CURVE SMOOTH",
"136 150 LINE SMOOTH",
"134 148 OFFCURVE",
"131 148 OFFCURVE",
"129 151 CURVE SMOOTH",
"109 181 OFFCURVE",
"98 218 OFFCURVE",
"98 257 CURVE"
);
},
{
closed = 1;
nodes = (
"493 148 OFFCURVE",
"404 60 OFFCURVE",
"296 60 CURVE SMOOTH",
"255 60 OFFCURVE",
"218 72 OFFCURVE",
"186 93 CURVE SMOOTH",
"183 95 OFFCURVE",
"183 98 OFFCURVE",
"185 100 CURVE SMOOTH",
"455 364 LINE SMOOTH",
"457 366 OFFCURVE",
"460 366 OFFCURVE",
"462 363 CURVE SMOOTH",
"482 333 OFFCURVE",
"493 296 OFFCURVE",
"493 257 CURVE SMOOTH"
);
}
);
width = 591;
}
);
unicode = 2205;
},
{
glyphname = equal;
lastChange = "2013-12-18 08:30:52 +0400";
layers = (
{
layerId = "9764FC2E-EF50-4B10-BB5F-6BAA27A55E88";
name = Regular;
paths = (
{
closed = 1;
nodes = (
"52 430 LINE SMOOTH",
"52 409 OFFCURVE",
"67 399 OFFCURVE",
"88 399 CURVE SMOOTH",
"546 399 LINE SMOOTH",
"567 399 OFFCURVE",
"582 409 OFFCURVE",
"582 430 CURVE SMOOTH",
"582 432 LINE SMOOTH",
"582 453 OFFCURVE",
"567 463 OFFCURVE",
"546 463 CURVE SMOOTH",
"88 463 LINE SMOOTH",
"67 463 OFFCURVE",
"52 453 OFFCURVE",
"52 432 CURVE SMOOTH"
);
},
{
closed = 1;
nodes = (
"52 256 LINE SMOOTH",
"52 235 OFFCURVE",
"67 225 OFFCURVE",
"88 225 CURVE SMOOTH",
"546 225 LINE SMOOTH",
"567 225 OFFCURVE",
"582 235 OFFCURVE",
"582 256 CURVE SMOOTH",
"582 258 LINE SMOOTH",
"582 279 OFFCURVE",
"567 289 OFFCURVE",
"546 289 CURVE SMOOTH",
"88 289 LINE SMOOTH",
"67 289 OFFCURVE",
"52 279 OFFCURVE",
"52 258 CURVE SMOOTH"
);
}
);
width = 634;
}
);
unicode = 003D;
},
{
glyphname = greater;
lastChange = "2013-12-18 08:30:52 +0400";
layers = (
{
layerId = "9764FC2E-EF50-4B10-BB5F-6BAA27A55E88";
name = Regular;
paths = (
{
closed = 1;
nodes = (
"607 375 OFFCURVE",
"596 391 OFFCURVE",
"571 403 CURVE SMOOTH",
"185 594 LINE SMOOTH",
"157 608 OFFCURVE",
"138 602 OFFCURVE",
"138 580 CURVE SMOOTH",
"138 574 LINE SMOOTH",
"138 551 OFFCURVE",
"147 537 OFFCURVE",
"167 527 CURVE SMOOTH",
"509 360 LINE SMOOTH",
"517 356 OFFCURVE",
"517 350 OFFCURVE",
"509 346 CURVE SMOOTH",
"167 178 LINE SMOOTH",
"147 168 OFFCURVE",
"138 154 OFFCURVE",
"138 131 CURVE SMOOTH",
"138 105 OFFCURVE",
"157 96 OFFCURVE",
"185 110 CURVE SMOOTH",
"571 301 LINE SMOOTH",
"596 313 OFFCURVE",
"607 329 OFFCURVE",
"607 352 CURVE SMOOTH"
);
}
);
width = 716;
}
);
unicode = 003E;
},
{
glyphname = greaterequal;
lastChange = "2013-12-18 08:30:52 +0400";
layers = (
{
layerId = "9764FC2E-EF50-4B10-BB5F-6BAA27A55E88";
name = Regular;
paths = (
{
closed = 1;
nodes = (
"523 375 OFFCURVE",
"512 391 OFFCURVE",
"487 403 CURVE SMOOTH",
"101 594 LINE SMOOTH",
"73 608 OFFCURVE",
"54 602 OFFCURVE",
"54 580 CURVE SMOOTH",
"54 574 LINE SMOOTH",
"54 551 OFFCURVE",
"63 537 OFFCURVE",
"83 527 CURVE SMOOTH",
"425 360 LINE SMOOTH",
"433 356 OFFCURVE",
"433 350 OFFCURVE",
"425 346 CURVE SMOOTH",
"83 178 LINE SMOOTH",
"63 168 OFFCURVE",
"54 154 OFFCURVE",
"54 131 CURVE SMOOTH",
"54 105 OFFCURVE",
"73 96 OFFCURVE",
"101 110 CURVE SMOOTH",
"487 301 LINE SMOOTH",
"512 313 OFFCURVE",
"523 329 OFFCURVE",
"523 352 CURVE SMOOTH"
);
},
{
closed = 1;
nodes = (
"51 11 OFFCURVE",
"68 0 OFFCURVE",
"92 0 CURVE SMOOTH",
"482 0 LINE SMOOTH",
"506 0 OFFCURVE",
"523 11 OFFCURVE",
"523 33 CURVE SMOOTH",
"523 55 OFFCURVE",
"506 66 OFFCURVE",
"482 66 CURVE SMOOTH",
"92 66 LINE SMOOTH",
"68 66 OFFCURVE",
"51 55 OFFCURVE",
"51 33 CURVE SMOOTH"
);
}
);
width = 576;
}
);
unicode = 2265;
},
{
glyphname = increment;
lastChange = "2013-12-18 08:30:52 +0400";
layers = (
{
layerId = "9764FC2E-EF50-4B10-BB5F-6BAA27A55E88";
name = Regular;
paths = (
{
closed = 1;
nodes = (
"367 688 LINE",
"365 695 OFFCURVE",
"359 701 OFFCURVE",
"352 704 CURVE SMOOTH",
"347 706 OFFCURVE",
"343 707 OFFCURVE",
"339 707 CURVE",
"327 707 OFFCURVE",
"316 700 OFFCURVE",
"311 688 CURVE SMOOTH",
"23 43 LINE SMOOTH",
"16 27 OFFCURVE",
"22 10 OFFCURVE",
"37 3 CURVE",
"44 1 LINE",
"52 0 LINE",
"622 0 LINE SMOOTH",
"640 0 OFFCURVE",
"653 12 OFFCURVE",
"653 29 CURVE SMOOTH",
"653 34 OFFCURVE",
"652 39 OFFCURVE",
"650 43 CURVE SMOOTH"
);
},
{
closed = 1;
nodes = (
"335 595 LINE SMOOTH",
"337 599 OFFCURVE",
"340 599 OFFCURVE",
"342 595 CURVE SMOOTH",
"574 66 LINE SMOOTH",
"576 62 OFFCURVE",
"574 60 OFFCURVE",
"570 60 CURVE SMOOTH",
"103 60 LINE SMOOTH",
"99 60 OFFCURVE",
"97 62 OFFCURVE",
"99 66 CURVE SMOOTH"
);
}
);
width = 673;
}
);
unicode = 2206;
},
